<?xml version="1.0" encoding="utf-8"?>
<!-- Generator: Adobe Illustrator 16.0.0, SVG Export Plug-In . SVG Version: 6.00 Build 0)  -->
<!DOCTYPE svg PUBLIC "-//W3C//DTD SVG 1.1//EN" "http://www.w3.org/Graphics/SVG/1.1/DTD/svg11.dtd">
<svg version="1.1" id="arrows_and_pointers" xmlns="http://www.w3.org/2000/svg" xmlns:xlink="http://www.w3.org/1999/xlink"
	 x="0px" y="0px" width="418.134px" height="538.041px" viewBox="0 0 418.134 538.041" enable-background="new 0 0 418.134 538.041"
	 xml:space="preserve">
<g>
	<g>
		<path fill="#FFFFFF" d="M87.64,501.026c-2.223,0-4.194,0.862-5.672,2.101c-5.434,4.315-10.738,6.783-18.748,6.783
			c-14.804,0-25.045-12.336-25.045-27.14v-0.24c0-14.804,10.481-26.896,25.045-26.896c6.783,0,12.329,2.226,17.637,6.174
			c1.349,0.86,3.087,1.848,5.671,1.848c5.184,0,9.373-4.071,9.373-9.259c0-3.329-1.727-6.042-3.702-7.516
			c-7.15-5.308-15.913-8.76-28.861-8.76c-26.523,0-45.024,20.106-45.024,44.649v0.25c0,24.793,18.875,44.4,44.279,44.4
			c13.82,0,22.949-4.064,30.718-10.854c1.727-1.472,3.212-3.82,3.212-6.78C96.521,504.975,92.449,501.026,87.64,501.026z"/>
		<path fill="#FFFFFF" d="M165.871,509.539h-30.1l14.06-10.853c15.301-11.842,22.704-19.001,22.704-33.434v-0.239
			c0-16.161-11.85-26.647-29.736-26.647c-13.069,0-21.212,4.685-28.121,12.701c-1.36,1.609-2.222,3.829-2.222,5.922
			c0,4.818,3.825,8.638,8.632,8.638c2.963,0,5.187-1.359,6.423-2.72c4.809-5.173,8.63-7.519,14.062-7.519
			c6.783,0,11.593,3.942,11.593,11.225c0,7.152-4.196,11.97-14.928,20.724l-24.546,20.104c-3.208,2.594-4.932,5.797-4.932,9.498
			c0,5.674,4.316,9.007,10.236,9.007h46.875c4.563,0,8.262-3.577,8.262-8.143S170.435,509.539,165.871,509.539z"/>
		<path fill="#FFFFFF" d="M259.461,476.234h-21.715c-4.559,0-8.263,3.701-8.263,8.266c0,4.563,3.704,8.137,8.263,8.137h12.833
			v12.337c-4.813,3.453-10.984,5.183-17.885,5.183c-15.292,0-26.148-11.596-26.148-27.388v-0.24
			c0-14.688,10.967-26.896,24.785-26.896c8.143,0,13.701,2.226,18.874,5.922c1.36,0.989,3.083,1.976,5.794,1.976
			c5.187,0,9.383-4.199,9.383-9.376c0-3.697-2.098-6.288-3.948-7.648c-7.771-5.427-16.402-8.386-29.478-8.386
			c-26.16,0-45.271,20.106-45.271,44.649v0.25c0,25.534,18.5,44.4,45.396,44.4c12.952,0,23.181-4.313,30.211-8.63
			c4.564-2.712,6.663-6.542,6.663-12.094v-20.964C268.953,480.431,264.762,476.234,259.461,476.234z"/>
		<path fill="#FFFFFF" d="M329.253,438.12c-26.641,0-46.016,20.106-46.016,44.649v0.25c0,24.549,19.125,44.4,45.771,44.4
			c26.644,0,45.999-20.103,45.999-44.651v-0.24C375.008,457.978,355.902,438.12,329.253,438.12z M355.153,483.02
			c0,14.799-10.609,26.89-25.9,26.89c-15.297,0-26.153-12.336-26.153-27.14v-0.24c0-14.804,10.606-26.896,25.909-26.896
			c15.287,0,26.145,12.333,26.145,27.136V483.02z"/>
		<path fill="#FFFFFF" d="M389.651,445.536c-5.693,0-10.196,4.681-10.196,10.247v0.053c0,5.569,4.446,10.195,10.196,10.195
			c5.68,0,10.195-4.679,10.195-10.248v-0.061C399.846,450.158,395.39,445.536,389.651,445.536z M398.671,455.783
			c0,4.972-3.931,9.138-9.02,9.138c-5.151,0-9.023-4.105-9.023-9.084v-0.053c0-4.98,3.923-9.137,9.023-9.137
			c5.148,0,9.02,4.102,9.02,9.077V455.783z"/>
		<path fill="#FFFFFF" d="M394.686,453.786c0-2.335-1.764-3.514-4.283-3.514h-3.688c-0.707,0-1.278,0.588-1.278,1.35v8.198
			c0,0.708,0.571,1.297,1.278,1.297c0.708,0,1.3-0.589,1.3-1.297v-2.28h1.688l2.465,3.036c0.296,0.306,0.574,0.541,1.048,0.541
			c0.757,0,1.292-0.541,1.292-1.23c0-0.359-0.059-0.644-0.351-0.944l-1.572-1.934C393.858,456.486,394.686,455.361,394.686,453.786z
			 M390.235,455.429h-2.22v-2.927h2.22c1.107,0,1.817,0.528,1.817,1.461C392.052,454.838,391.41,455.429,390.235,455.429z"/>
		<path fill="#FFFFFF" d="M197.991,164.26c8.927,0,15.246,3.532,21.016,8.369c1.49,1.119,3.906,2.234,6.693,2.234
			c5.765,0,10.418-4.467,10.418-10.233c0-3.72-2.045-6.509-3.532-7.811c-8.366-7.25-18.975-12.273-34.412-12.273
			c-29.57,0-51.155,23.437-51.155,51.334v0.374c0,27.899,21.585,50.779,50.778,50.779c16.371,0,26.976-5.584,35.723-13.951
			c2.039-1.676,3.164-4.09,3.164-7.068c0-5.396-4.289-9.856-9.677-9.856c-2.608,0-4.844,1.299-6.132,2.414
			c-6.139,5.212-13.025,8.744-21.955,8.744c-17.297,0-29.385-13.949-29.385-31.437v-0.368
			C169.535,178.395,181.623,164.26,197.991,164.26z"/>
		<path fill="#FFFFFF" d="M30.733,194.437l13.6,13.603l3.165,3.134l1.34,1.335l-0.015,0.018l123.809,123.801l16.752-16.75
			L64.24,194.437l-16.755-16.747l-4.649-4.662c-7.69-7.7-7.69-20.224,0-27.921L147.063,40.867c3.743-3.732,8.698-5.78,13.963-5.78
			c4.15,0,8.076,1.31,11.388,3.669l16.879-16.868c-7.871-6.771-17.762-10.496-28.267-10.496c-11.602,0-22.504,4.526-30.705,12.732
			L26.084,128.357c-16.925,16.931-16.925,44.485,0,61.42L30.733,194.437z"/>
		<path fill="#FFFFFF" d="M362.055,194.437l-16.742-16.747L220.123,52.498l-16.676,16.817l125.112,125.122l9.765,9.76l7.023,6.967
			l2.721,2.702l-0.032,0.041l1.927,1.924c7.703,7.707,7.703,20.233,0,27.931l-104.24,104.222
			c-6.681,6.694-17.771,7.344-25.373,2.063L203.528,367c7.869,6.743,17.753,10.459,28.234,10.459
			c11.603,0,22.511-4.52,30.712-12.706l104.242-104.245c16.922-16.929,16.922-44.489,0-61.424L362.055,194.437z"/>
		<path fill="#FFFFFF" d="M130.321,364.754c8.213,8.208,19.111,12.727,30.729,12.727c11.591,0,22.489-4.519,30.693-12.727
			l4.651-4.651l16.753-16.761l125.191-125.176l-16.753-16.757L196.394,326.593l-16.753,16.75l-4.653,4.668
			c-7.46,7.448-20.45,7.445-27.912,0L42.836,243.746c-6.885-6.878-7.553-17.617-2.11-25.327l-16.878-16.862
			c-14.62,17.051-13.895,42.817,2.236,58.943L130.321,364.754z"/>
		<path fill="#FFFFFF" d="M262.475,24.124c-8.201-8.206-19.098-12.732-30.712-12.732c-11.606,0-22.506,4.526-30.697,12.732
			l-4.662,4.656l-15.381,15.389l-1.361,1.367l-1.122,1.133l-0.011-0.01L54.46,170.712l16.811,16.689L196.404,62.278l16.751-16.746
			l4.663-4.671c3.72-3.727,8.679-5.774,13.945-5.774c5.27,0,10.228,2.048,13.948,5.78l104.251,104.249
			c3.733,3.726,5.782,8.679,5.782,13.959c0,4.151-1.301,8.081-3.671,11.388l16.934,16.798c6.736-7.857,10.434-17.736,10.434-28.187
			c0-11.606-4.521-22.519-12.723-30.718L262.475,24.124z"/>
	</g>
</g>
</svg>
