<?xml version="1.0" encoding="utf-8"?>
<!-- Generator: Adobe Illustrator 16.0.0, SVG Export Plug-In . SVG Version: 6.00 Build 0)  -->
<!DOCTYPE svg PUBLIC "-//W3C//DTD SVG 1.1//EN" "http://www.w3.org/Graphics/SVG/1.1/DTD/svg11.dtd">
<svg version="1.1" id="Layer_1" xmlns="http://www.w3.org/2000/svg" xmlns:xlink="http://www.w3.org/1999/xlink" x="0px" y="0px"
	 width="81.196px" height="75.109px" viewBox="0 0 81.196 75.109" enable-background="new 0 0 81.196 75.109" xml:space="preserve">
<path fill-rule="evenodd" clip-rule="evenodd" fill="#F2A744" d="M66.604,35.231c1.876-1.513,3.762-3.012,5.622-4.544
	c1.113-0.917,2.144-1.936,3.282-2.817c1.457-1.127,3.183-0.962,4.197,0.299c0.975,1.214,0.882,2.822-0.557,3.988
	c-4.281,3.47-8.604,6.893-13.019,10.189c-1.107,0.827-1.758,1.682-1.949,2.991c-1.264,8.733-2.543,17.464-3.801,26.198
	c-0.238,1.652-1.589,2.827-3.244,2.733c-1.527-0.086-2.695-1.18-2.555-2.887c0.324-3.929,0.837-7.841,1.322-11.756
	c0.254-2.052,0.725-4.083,0.879-6.14c0.107-1.412-0.081-2.866-0.289-4.279c-0.192-1.304-1.052-1.549-2.231-1.096
	c-6.246,2.39-12.628,4.016-19.387,4.194c-1.243,0.031-2.577,1.539-3.639,2.595c-4.843,4.819-9.489,9.842-14.436,14.551
	c-3.301,3.142-7.311,5.077-12.067,4.857c-0.618-0.029-1.391,0.01-1.812-0.33c-0.811-0.657-1.815-1.472-2.023-2.384
	C0.589,70.239,1.751,69.371,3.02,69.2c7.495-1.012,12.125-6.417,17.179-11.146c1.782-1.667,3.34-3.574,5.03-5.343
	c1.067-1.118,0.931-1.812-0.5-2.523c-2.686-1.335-5.045-3.146-6.241-6.003c-1.745-4.169-0.132-9.06,3.895-11.922
	c6.036-4.293,12.697-4.694,19.557-2.657c1.917,0.569,2.945,0.248,4.091-1.28C52.312,19.946,58.68,11.63,65.015,3.291
	c0.228-0.299,0.418-0.627,0.651-0.922c1.021-1.298,2.264-2.024,3.927-1.292c1.604,0.707,1.866,2.101,1.611,3.634
	c-0.505,3.025-1.073,6.041-1.602,9.062c-1.177,6.722-2.348,13.444-3.51,20.169c-0.05,0.289,0.019,0.598,0.032,0.898
	C66.286,34.969,66.445,35.1,66.604,35.231z M62.693,17.575c-0.638,0.285-0.861,0.314-0.962,0.44
	c-3.747,4.712-7.483,9.433-11.22,14.154c-0.681,0.861-0.119,1.266,0.543,1.794c1.861,1.483,3.639,3.069,5.477,4.581
	c0.592,0.486,1.271,0.863,1.912,1.29c0.318-0.719,0.795-1.41,0.93-2.161c0.965-5.433,1.866-10.876,2.776-16.319
	C62.341,20.208,62.482,19.053,62.693,17.575z M34.854,34.142c-3.667,0.235-6.989,0.77-9.608,3.246
	c-1.561,1.475-1.943,3.212-0.994,4.719c1.387,2.199,3.607,3.211,6.031,3.766c0.416,0.096,1.108-0.273,1.433-0.641
	c2.527-2.854,5.006-5.749,7.475-8.653c0.826-0.972,0.446-1.622-0.7-1.849C37.206,34.475,35.905,34.308,34.854,34.142z M39.469,45.48
	c0.376,0.292,0.49,0.445,0.562,0.427c3.607-0.894,7.217-1.784,10.799-2.776c0.147-0.042,0.268-1.304-0.009-1.563
	c-1.175-1.104-2.468-2.098-3.8-3.01c-0.364-0.249-1.274-0.306-1.5-0.057C43.453,40.774,41.479,43.136,39.469,45.48z"/>
</svg>
