<?xml version="1.0" encoding="utf-8"?>
<!-- Generator: Adobe Illustrator 16.0.0, SVG Export Plug-In . SVG Version: 6.00 Build 0)  -->
<!DOCTYPE svg PUBLIC "-//W3C//DTD SVG 1.1//EN" "http://www.w3.org/Graphics/SVG/1.1/DTD/svg11.dtd">
<svg version="1.1" id="Layer_1" xmlns="http://www.w3.org/2000/svg" xmlns:xlink="http://www.w3.org/1999/xlink" x="0px" y="0px"
	 width="123.001px" height="208.333px" viewBox="0 0 123.001 208.333" enable-background="new 0 0 123.001 208.333"
	 xml:space="preserve">
<g>
	<path fill="#F4F4F4" d="M118.515,138.966c0,0-0.009-0.245-0.017-0.245c1.701-2.682,2.175-5.554,1.303-8.625
		c-0.124-3.129-1.428-5.628-3.984-7.454c-2.424-2.469-5.632-3.038-8.819-3.665c-2.88-0.847-5.765-1.693-8.646-2.54
		c-5.242-1.556-10.483-3.109-15.729-4.667c-0.009-0.204-0.066-0.386-0.183-0.556c-0.009-5.728-0.017-11.453-0.029-17.181
		c0.054-6.4,0.104-12.802,0.146-19.204c4.117-0.089,8.234-0.178,12.352-0.271c1.681,0.012,3.361,0.025,5.038,0.037
		c1.756,0.025,3.512,0.052,5.271,0.077c1.668-0.129,3.299-0.341,4.407-1.824c2.254-0.979,3.412-2.689,3.424-5.157
		c1.067-1.699,0.693-3.571,0.66-5.403c0.059-0.347,0.121-0.693,0.183-1.04c0.515-1.619,0.515-3.241-0.004-4.86
		c-0.062-0.309-0.125-0.619-0.191-0.928c-0.021-4.459-0.054-8.913-0.075-13.373c0.013-0.978,0.021-1.953,0.037-2.932
		c-0.008-2.395-0.008-4.792-0.017-7.188c0.079-3.43,0.905-7.01-1.959-9.855c-0.477-1.553-1.544-2.466-3.092-2.866
		c-0.942-0.46-1.855-1.035-2.984-0.792c-1.013-0.884-2.029-0.755-3.046-0.004c-1.204-0.105-2.167,0.455-3.08,1.133
		c-1.378,0.525-2.548,1.268-2.889,2.845c-2.681,2.764-1.644,6.12-1.494,9.336l-0.041-0.004c-1.47,0.068-2.938,0.214-4.404,0.187
		c-1.914-0.037-2.582,0.432-1.291,2.248c1.843,2.598,3.603,5.263,5.396,7.898c-0.133,4.377-0.258,8.751-0.391,13.13
		c-3.88,0.038-7.761,0.075-11.642,0.112c-0.61-4.103,0.415-8.282-0.585-12.366c-2.001-3.051-4.458-5.711-7.048-8.266
		c-0.805-2.451-1.386-4.979-2.735-7.238C68.129,20.363,59.936,16.314,52,17.455c-9.496,1.368-15.323,6.919-17.963,17.129
		c-2.357,1.251-4.715,2.5-7.063,3.75c-0.029-9.361-0.033-18.723-0.116-28.082c-0.009-1.048,0.73-2.93-1.188-2.855
		c-1.876,0.073-0.971,1.938-0.979,2.959c-0.058,9.731-0.008,19.461,0.013,29.19c-1.241,1.492-3.449,1.654-4.553,3.333
		c-0.175,0.172-0.361,0.345-0.54,0.517c-0.705,7-0.386,14.005-0.166,21.011c-0.091,0.413-0.17,0.824-0.253,1.235
		c-2.287,1.203-3.271,3.583-4.868,5.408c-1.557,1.376-3.03,2.812-3.686,4.879c-1.395,1.075-2.557,2.341-3.3,3.959
		c-1.507,1.038-2.727,2.306-3.308,4.096c-1.652,1.108-2.752,2.688-3.728,4.376c-0.021,5.865-0.045,11.731-0.066,17.594
		c0.013,2,0.029,3.999,0.042,5.997c-0.382,2.129-0.345,4.259-0.046,6.396c-0.066,3.246-0.76,6.595,1.494,9.471
		c0.66,1.66,1.83,2.76,3.544,3.274c0.868,0.689,1.847,0.979,2.951,0.772c0.988,0.768,2.009,0.83,3.055,0.12
		c1.221,0.05,2.2-0.485,3.092-1.253c1.39-0.502,2.548-1.241,2.951-2.785c2.366-2.814,1.852-6.192,1.876-9.472
		c1.61-0.087,3.221-0.174,5.521-0.299c-2.075-2.229-3.686-3.959-5.296-5.694c-0.149-2.181-0.308-4.362-0.453-6.541
		c0.448-3.963-0.394-7.979,0.473-11.926c2.727,0.054,5.449,0.108,8.181,0.158c0,5.9,0.017,11.797,0.017,17.697
		c0.004,6.626,0,6.626,6.383,7.352c0.876,2.271,1.752,4.541,2.632,6.815c0.589,1.485,1.17,2.972,1.76,4.457
		c1.942,5.113,3.885,10.227,5.823,15.344c0.332,0.785,0.66,1.565,0.992,2.345c1.416,5.204,2.831,10.409,4.242,15.618
		c0.124,1.901,0.747,3.661,1.511,5.383c0.432,1.784,0.863,3.569,1.295,5.354c0.34,2.171,0.9,4.275,1.934,6.226
		c2.009,5.844,4.051,11.671,6.753,17.237c0.199,0.785,0.402,1.565,0.602,2.349c1.565,5.458,1.573,5.466,6.856,3.412
		c1.005-0.39,1.951-0.921,2.926-1.386c2.585-0.992,5.175-1.988,7.757-2.984c1.386-0.432,2.789-0.813,4.138-1.315
		c5.001-1.859,4.993-1.876,2.208-6.761c0.013-1.885-1.121-3.208-2.212-4.549c-0.398-4.607-2.855-8.5-4.404-12.709
		c-0.021-2.116-0.776-4.042-1.565-5.96c-0.469-1.747-0.942-3.499-1.411-5.246c-0.1-1.9-0.564-3.702-1.519-5.362
		c-1.407-5.362-2.814-10.725-4.221-16.095c-0.287-2.075-1.2-3.931-2.129-5.777c-0.029-0.341-0.062-0.689-0.091-1.029
		c7.645,2.232,15.298,4.461,22.947,6.694c-0.826,3.225-1.64,6.454-2.461,9.683c-1.262,2.848-2.025,5.844-2.686,8.874
		c-1.025,3.702-2.055,7.404-3.075,11.098c-0.64,1.138-1.872,2.71-0.739,3.532c1.71,1.237,3.984,2.017,6.185,1.789
		c1.564-0.166,1.137-1.885,1.345-3.021c0.805,0.162,1.61,0.319,2.415,0.477c-0.581,1.963-1.697,3.989,1.727,4.607
		c2.578,0.469,5.412,2.229,5.952-2.308c0.631,0.187,1.257,0.369,1.884,0.552c-0.008,1.266-1.494,2.499-0.166,3.777
		c2.503,2.398,6.641,1.627,8.04-1.47c0.56,0.183,1.125,0.357,1.685,0.54c-2.179,4.831,2.013,4.274,4.408,5.154
		c3.258,1.195,2.49-1.552,2.93-3.096c2.341-6.989,0.253-11.061-7.587-14.796c0.768-2.914,1.54-5.827,2.312-8.745
		c1.328-3.088,2.175-6.325,2.885-9.596c0.855-3.026,1.706-6.047,2.561-9.073L118.515,138.966z"/>
	<path fill-rule="evenodd" clip-rule="evenodd" fill="#6EC392" d="M34.037,34.584c2.64-10.21,8.467-15.761,17.963-17.129
		c7.936-1.141,16.129,2.908,20.358,10.009c1.349,2.26,1.93,4.788,2.735,7.238c0.009,1.472,0.225,2.976-0.012,4.404
		c-0.515,3.055,0.818,4.233,3.702,4.136c-4.694,1.091-3.598,4.81-3.648,8.017c-0.025,1.458-0.071,2.917-0.1,4.375
		c-13.655-0.685-27.31-0.284-40.965-0.212c0,0-0.282,0.147-0.282,0.146c-0.033-3.735-0.074-7.471-0.107-11.206
		c-0.025-0.365-0.05-0.732-0.075-1.1C34.577,40.409,33.979,37.483,34.037,34.584z M43.201,48.094
		c6.749,6.53,16.734,6.373,23.122-0.368c6.03-6.365,5.757-16.33-0.61-22.213c-6.143-6.443-15.929-6.588-22.354-0.332
		C36.619,31.749,36.553,41.268,43.201,48.094z"/>
	<path fill-rule="evenodd" clip-rule="evenodd" fill="#F79021" d="M70.117,141.395c1.407,5.37,2.814,10.732,4.221,16.104
		c-8.293,2.1-16.577,4.2-24.869,6.304c-1.411-5.208-2.827-10.414-4.242-15.618c2.101-0.727,4.209-1.453,6.309-2.175
		c4.15-0.598,8.147-1.785,12.115-3.088C65.805,142.415,67.963,141.909,70.117,141.395z"/>
	<path fill-rule="evenodd" clip-rule="evenodd" fill="#CDDC37" d="M110.699,166.674c7.84,3.735,9.928,7.807,7.587,14.796
		c-2.444-0.685-4.894-1.37-7.338-2.059c-0.561-0.183-1.125-0.357-1.681-0.536c-2.623-0.768-5.25-1.54-7.878-2.312
		c-0.626-0.183-1.253-0.365-1.876-0.552c-2.564-0.768-5.121-1.531-7.687-2.299c-0.805-0.158-1.61-0.315-2.415-0.477
		c-2.059-1.37-4.512-1.586-6.79-2.3c1.021-3.693,2.05-7.396,3.075-11.098c1.424,0.34,2.859,0.622,4.263,1.013
		C96.878,162.777,103.789,164.728,110.699,166.674z"/>
	<path fill-rule="evenodd" clip-rule="evenodd" fill="#CDDC37" d="M0.236,105.956c0.021-5.864,0.046-11.731,0.066-17.593
		c6.176,0.054,12.344,0.108,18.523,0.162c0.976,1.743,0.411,3.661,0.61,5.491c-0.863,3.947-0.021,7.962-0.469,11.926
		C12.721,105.946,6.479,105.95,0.236,105.956z M7.222,93.293c-1.61,2.264-3.142,4.513-4.146,7.618
		c2.947-0.404,6.425,1.135,7.849-0.791c1.021-1.384-1.946-4.065-3.051-6.213C7.773,93.706,7.529,93.576,7.222,93.293z"/>
	<path fill-rule="evenodd" clip-rule="evenodd" fill="#3A61AD" d="M78.833,174.058c1.548,4.209,4.005,8.102,4.404,12.705
		c-0.457-0.145-1.005-0.178-1.366-0.444c-9.01-6.678-21.786,0.19-20.91,11.683c-2.702-5.566-4.744-11.393-6.753-17.237
		C62.418,178.532,70.627,176.295,78.833,174.058z"/>
	<path fill-rule="evenodd" clip-rule="evenodd" fill="#CDDC37" d="M106.997,118.974c3.188,0.631,6.396,1.2,8.819,3.665
		c-7.109,5.399-14.211,10.799-21.316,16.199c0.149,0.245,0.295,0.489,0.44,0.738c7.977-3.029,15.954-6.06,23.931-9.081
		c-0.116,2.739-0.24,5.487-0.365,8.227c0,0,0.009,0.245,0.004,0.24c-0.453-0.257-0.818-0.141-1.112,0.258
		c-8.147,0.738-16.298,1.481-24.446,2.225c-0.257-0.278-0.511-0.557-0.764-0.83c0-0.183,0.013-0.365,0.037-0.548
		C97.148,133.035,102.07,126.005,106.997,118.974z"/>
	<path fill-rule="evenodd" clip-rule="evenodd" fill="#6EC392" d="M92.188,140.614c0.253,0.273,0.506,0.552,0.76,0.83
		c7.462,2.93,15.198,4.926,22.947,6.89c-0.71,3.271-1.557,6.508-2.885,9.596c-8.209-2.324-16.419-4.645-24.628-6.965
		c0.821-3.229,1.635-6.458,2.461-9.679C91.292,141.062,91.74,140.838,92.188,140.614z"/>
	<path fill-rule="evenodd" clip-rule="evenodd" fill="#6EC392" d="M60.961,198.001c-0.876-11.493,11.899-18.361,20.91-11.683
		c0.361,0.266,0.909,0.299,1.366,0.444c1.091,1.345,2.225,2.668,2.212,4.553c-2.727,1.037-5.641,1.66-8.098,3.354
		c-2.756,0.655-5.503,1.332-7.794,3.146c-2.91,0.062-5.275,1.868-7.994,2.536C61.363,199.566,61.16,198.786,60.961,198.001z"/>
	<path fill-rule="evenodd" clip-rule="evenodd" fill="#F79021" d="M88.383,150.965c8.209,2.32,16.419,4.641,24.628,6.965
		c-0.771,2.917-1.544,5.831-2.312,8.745c-6.91-1.947-13.821-3.897-20.739-5.823c-1.403-0.391-2.839-0.673-4.263-1.013
		C86.357,156.809,87.121,153.812,88.383,150.965z"/>
	<path fill-rule="evenodd" clip-rule="evenodd" fill="#F79021" d="M82.622,111.771c5.246,1.558,10.488,3.111,15.729,4.667
		c-1.843,6.18-3.693,12.356-5.545,18.536c-2.199-0.693-4.399-1.391-6.603-2.088C85.768,125.723,83.568,118.85,82.622,111.771z"/>
	<path fill-rule="evenodd" clip-rule="evenodd" fill="#6EC392" d="M70.117,141.395c-2.154,0.515-4.312,1.021-6.466,1.527
		c-1.681-3.686-4.163-5.122-7.491-4.333c-3.109,0.738-4.648,3.212-4.624,7.421c-2.1,0.722-4.208,1.448-6.309,2.175
		c-0.332-0.78-0.66-1.561-0.992-2.345c0.536-6.171,3.541-10.762,8.853-13.883c5.486-0.9,10.438,0.391,14.904,3.661
		C68.917,137.464,69.83,139.319,70.117,141.395z"/>
	<path fill-rule="evenodd" clip-rule="evenodd" fill="#6EC392" d="M94.367,55.22c0.133-4.376,0.258-8.751,0.391-13.128
		c0.133-0.027,0.257-0.077,0.373-0.145c6.168,0.048,12.327,0.095,18.49,0.141c0.021,4.459,0.054,8.913,0.075,13.373
		c-4.81-0.006-9.625-0.052-14.439,0.01c-1.029,0.015-2.723-0.703-2.557,1.5l-0.291-0.045c-0.39-0.164-0.771-0.324-1.158-0.486
		C94.957,56.033,94.662,55.626,94.367,55.22z M111.675,48.264c-0.282-2.401-1.527-3.92-4.039-3.883
		c-2.635,0.042-4.238,1.592-4.129,4.18c0.095,2.31,1.498,3.955,4.042,3.918C110.205,52.441,111.55,50.922,111.675,48.264z"/>
	<path fill-rule="evenodd" clip-rule="evenodd" fill="#3A61AD" d="M53.088,131.956c-5.312,3.121-8.317,7.712-8.853,13.883
		c-1.938-5.118-3.88-10.231-5.823-15.344c2.793-4.54,5.586-9.085,8.379-13.63l0.294,0.17l0.341-0.021
		C49.311,121.995,51.199,126.976,53.088,131.956z"/>
	<path fill-rule="evenodd" clip-rule="evenodd" fill="#CDDC37" d="M53.088,131.956c-1.889-4.98-3.777-9.961-5.661-14.941
		c5.146,0.573,9.832,2.964,14.933,3.752c1.743,4.259,3.495,8.525,5.242,12.783c0.096,0.349,0.195,0.693,0.295,1.038
		c0.029,0.34,0.062,0.688,0.095,1.029C63.526,132.347,58.574,131.056,53.088,131.956z"/>
	<path fill-rule="evenodd" clip-rule="evenodd" fill="#6ECBEE" d="M78.833,174.058c-8.206,2.237-16.415,4.475-24.625,6.707
		c-1.033-1.95-1.594-4.055-1.934-6.226c8.334-2.149,16.659-4.291,24.993-6.441C78.057,170.016,78.812,171.941,78.833,174.058z"/>
	<path fill-rule="evenodd" clip-rule="evenodd" fill="#6ECBEE" d="M67.896,134.588c-0.1-0.345-0.199-0.689-0.295-1.038
		c0.693-1.801,1.382-3.603,2.071-5.408c2.818,0.826,5.636,1.648,8.458,2.478c2.582,1.141,5.296,1.838,8.073,2.266
		c2.204,0.697,4.404,1.395,6.603,2.088c0.079,1.73-1.386,3.279-0.581,5.093c-0.024,0.183-0.037,0.365-0.037,0.548
		c-0.448,0.224-0.896,0.448-1.345,0.672C83.194,139.049,75.541,136.82,67.896,134.588z"/>
	<path fill-rule="evenodd" clip-rule="evenodd" fill="#6EC392" d="M86.204,132.886c-2.777-0.427-5.491-1.125-8.073-2.266
		c-0.406-6.707-1.851-13.248-3.088-19.82c0.021-0.372,0.042-0.743,0.066-1.114c2.44,0.51,4.885,1.021,7.33,1.531
		c0.116,0.168,0.174,0.351,0.183,0.554C83.568,118.85,85.768,125.723,86.204,132.886z"/>
	<path fill-rule="evenodd" clip-rule="evenodd" fill="#6EC392" d="M34.021,119.223c-6.383-0.726-6.379-0.726-6.383-7.352
		c0-5.9-0.017-11.797-0.021-17.697c2.021-0.046,4.039-0.091,6.06-0.137c0.519,3.385-0.328,6.834,0.486,10.204
		c-0.104,0.22-0.158,0.446-0.175,0.687c-0.22,1.594-0.548,3.192,0.262,4.723C34.17,112.84,34.096,116.031,34.021,119.223z"/>
	<path fill-rule="evenodd" clip-rule="evenodd" fill="#F79021" d="M33.676,94.036c-2.021,0.046-4.039,0.091-6.06,0.137
		c-2.727-0.05-5.45-0.104-8.18-0.158c-0.199-1.831,0.365-3.748-0.61-5.493l-0.096-0.262c0.391-0.174,0.78-0.346,1.171-0.521
		c4.623-3.111,9.255-6.222,13.879-9.33c0.1,2.55,0.19,5.103,0.29,7.653C33.938,88.722,33.809,91.38,33.676,94.036z"/>
	<path fill-rule="evenodd" clip-rule="evenodd" fill="#6EC392" d="M49.469,163.802c8.292-2.104,16.576-4.205,24.869-6.304
		c0.954,1.651,1.419,3.453,1.519,5.354c-8.292,2.108-16.585,4.221-24.877,6.334C50.216,167.463,49.593,165.703,49.469,163.802z"/>
	<path fill-rule="evenodd" clip-rule="evenodd" fill="#CDDC37" d="M33.788,55.568l0.282-0.147c0.025,0.732,0.05,1.461,0.075,2.191
		c-0.594,0.697-0.685,1.419-0.121,2.181c0.104,0.6,0.211,1.202,0.324,1.803c-0.033,0.135-0.07,0.27-0.108,0.403
		c-0.394,1.154-0.78,2.312-1.174,3.465c-4.541,2.933-8.463,6.832-13.601,8.851c-0.091-2.891-0.183-5.783-0.274-8.674
		c0.083-0.411,0.162-0.822,0.253-1.235c0.287-0.216,0.581-0.432,0.872-0.646C24.807,61.03,29.293,58.299,33.788,55.568z"/>
	<path fill-rule="evenodd" clip-rule="evenodd" fill="#F79021" d="M82.563,74.83c-0.05,6.402-0.1,12.804-0.153,19.204
		c-2.378,0.013-4.761,0.023-7.147,0.037c-0.079-2.251-0.162-4.505-0.237-6.754c-0.008-0.432-0.012-0.863-0.021-1.295
		c0.004-2.727,0.008-5.454,0.008-8.181c0.071-1.031,0.137-2.061,0.211-3.09c2.449-0.004,4.894-0.01,7.342-0.017L82.563,74.83z"/>
	<path fill-rule="evenodd" clip-rule="evenodd" fill="#F79021" d="M50.979,169.186c8.292-2.113,16.585-4.226,24.877-6.334
		c0.469,1.748,0.942,3.499,1.411,5.246c-8.334,2.15-16.659,4.292-24.993,6.441C51.843,172.755,51.411,170.97,50.979,169.186z"/>
	<path fill-rule="evenodd" clip-rule="evenodd" fill="#6ECBEE" d="M113.642,31.969c0.009,2.395,0.009,4.792,0.017,7.187
		c-6.176,0.017-12.359,0.035-18.54,0.054c-0.411-2.48-0.303-4.964-0.062-7.45l0.041,0.004c0.507,0.033,1.021,0.068,1.527,0.102
		c1.038,0.629,2.059,0.617,3.08-0.041c0.954,0.017,1.909,0.031,2.872,0.045c1.025,0.621,2.05,0.619,3.062-0.043
		c0.979,0.021,1.968,0.042,2.943,0.062c1.029,0.639,2.05,0.54,3.071-0.029C112.313,31.896,112.978,31.932,113.642,31.969z"/>
	<path fill-rule="evenodd" clip-rule="evenodd" fill="#3A61AD" d="M118.871,130.495c-7.977,3.021-15.954,6.052-23.931,9.081
		c-0.146-0.249-0.291-0.494-0.44-0.738c7.105-5.4,14.207-10.8,21.316-16.199c2.557,1.83,3.86,4.329,3.98,7.458
		C119.494,130.229,119.183,130.362,118.871,130.495z"/>
	<path fill-rule="evenodd" clip-rule="evenodd" fill="#3A61AD" d="M94.907,74.559c-4.117,0.093-8.234,0.183-12.352,0.271
		c0.008,0,0.012-0.095,0.012-0.095c-0.104-3.461-0.211-6.921-0.311-10.38l0.232-0.226c3.992,0.004,7.977,0.008,11.97,0.013
		c0.058,0.149,0.157,0.263,0.299,0.336c-0.075,2.885-0.382,5.773,0.157,8.647C94.915,73.602,94.907,74.079,94.907,74.559z"/>
	<path fill-rule="evenodd" clip-rule="evenodd" fill="#3A61AD" d="M115.896,148.334c-7.749-1.963-15.485-3.96-22.947-6.89
		c8.151-0.743,16.303-1.486,24.45-2.225c0.353,0.017,0.706,0.033,1.058,0.041C117.602,142.287,116.75,145.308,115.896,148.334z"/>
	<path fill-rule="evenodd" clip-rule="evenodd" fill="#F79021" d="M0.232,118.347c-0.299-2.137-0.336-4.267,0.046-6.396
		c6.275,0.32,12.592-0.741,18.834,0.59c-0.107,1.992-0.22,3.992-0.332,5.984c-0.548-0.024-1.1-0.05-1.651-0.07
		c-1.017,0.004-2.034,0.004-3.047,0.004c-0.979,0-1.959,0-2.938,0c-1-0.004-2-0.008-3.005-0.008
		c-0.954,0.004-1.909,0.008-2.868,0.017c-1.083,0-2.163,0-3.242,0C1.424,118.426,0.83,118.385,0.232,118.347z"/>
	<path fill-rule="evenodd" clip-rule="evenodd" fill="#CDDC37" d="M75.263,94.071c2.386-0.014,4.769-0.024,7.147-0.037
		c0.013,5.728,0.021,11.453,0.029,17.181c-2.445-0.509-4.89-1.019-7.33-1.529l-0.045,0.004c-0.017-1.583-0.038-3.165-0.058-4.75
		c0-0.421,0-0.841,0.004-1.262C75.093,100.476,75.176,97.273,75.263,94.071z"/>
	<path fill-rule="evenodd" clip-rule="evenodd" fill="#3A61AD" d="M34.021,119.223c0.075-3.191,0.149-6.383,0.232-9.573
		c3.445,0.048,6.894,0.093,10.343,0.139c0.299,0.967,0.602,1.934,0.905,2.901l-0.17,0.199c-0.751,1.12-1.482,2.253-2.262,3.357
		c-2.249,3.191-3.387,7.109-6.416,9.791C35.772,123.764,34.896,121.493,34.021,119.223z"/>
	<path fill-rule="evenodd" clip-rule="evenodd" fill="#3A61AD" d="M92.226,140.066c-0.805-1.814,0.66-3.362,0.581-5.093
		c1.852-6.18,3.702-12.355,5.545-18.536c2.881,0.847,5.765,1.693,8.646,2.536C102.07,126.005,97.148,133.035,92.226,140.066z"/>
	<path fill-rule="evenodd" clip-rule="evenodd" fill="#6EC392" d="M19.112,112.541c-6.242-1.331-12.559-0.27-18.834-0.59
		c-0.013-1.998-0.029-3.997-0.042-5.997c6.242-0.004,12.484-0.008,18.731-0.013c0.145,2.179,0.303,4.36,0.453,6.541L19.112,112.541z
		"/>
	<path fill-rule="evenodd" clip-rule="evenodd" fill="#F79021" d="M94.459,64.141c-3.993-0.004-7.978-0.008-11.97-0.013
		c0.012-2.88,0.024-5.758,0.033-8.639l0.203-0.155c3.881-0.038,7.761-0.075,11.642-0.112c0.295,0.405,0.59,0.812,0.88,1.216
		C93.521,58.854,94.898,61.591,94.459,64.141z"/>
	<path fill-rule="evenodd" clip-rule="evenodd" fill="#F79021" d="M75.035,55.633c0.029-1.457,0.074-2.916,0.1-4.375
		c0.05-3.207-1.046-6.925,3.648-8.017c1.117-0.091,2.237-0.183,3.358-0.274c1,4.084-0.025,8.264,0.585,12.366l-0.203,0.155
		c-2.478-0.002-4.952-0.01-7.43-0.017L75.035,55.633z"/>
	<path fill-rule="evenodd" clip-rule="evenodd" fill="#6ECBEE" d="M34.037,34.584c-0.058,2.899,0.54,5.825-0.432,8.676
		c-4.461-0.012-8.923-0.029-13.381-0.042c0.059-0.133,0.038-0.245-0.074-0.34c1.104-1.679,3.312-1.84,4.553-3.333
		c0.76-0.405,1.515-0.808,2.271-1.212C29.322,37.084,31.68,35.835,34.037,34.584z"/>
	<path fill-rule="evenodd" clip-rule="evenodd" fill="#3A61AD" d="M113.048,67.691c-0.012,2.468-1.17,4.178-3.424,5.157
		c-3.789-4.356-7.57-8.714-11.355-13.072c-1.195-0.577-2.191-1.28-1.859-2.851l0.291,0.045c0.788,0.021,1.635-0.098,2.149,0.735
		C103.308,61.429,108.205,64.519,113.048,67.691z"/>
	<path fill-rule="evenodd" clip-rule="evenodd" fill="#292522" d="M26.974,38.334c-0.756,0.404-1.511,0.807-2.271,1.212
		c-0.021-9.729-0.07-19.459-0.013-29.19c0.009-1.021-0.896-2.886,0.979-2.959c1.918-0.075,1.179,1.807,1.188,2.855
		C26.94,19.611,26.944,28.973,26.974,38.334z"/>
	<path fill-rule="evenodd" clip-rule="evenodd" fill="#3A61AD" d="M98.85,57.706c-0.515-0.833-1.361-0.714-2.149-0.735
		c-0.166-2.204,1.527-1.486,2.557-1.5c4.814-0.062,9.629-0.017,14.439-0.01c0.066,0.309,0.128,0.619,0.191,0.925
		c-0.345,1.619-0.345,3.242,0.004,4.862c-0.062,0.347-0.124,0.693-0.183,1.04c-1.378-0.465-2.739-0.999-4.142-1.378
		C105.968,59.931,102.801,57.504,98.85,57.706z"/>
	<path fill-rule="evenodd" clip-rule="evenodd" fill="#6ECBEE" d="M19.191,65.642c0.091,2.891,0.183,5.783,0.274,8.672
		c-0.125,3.341-0.249,6.682-0.37,10.023c-0.273,0.006-0.556,0.015-0.83,0.021c-1.312-4.435-2.627-8.874-3.942-13.308
		C15.921,69.225,16.904,66.845,19.191,65.642z"/>
	<path fill-rule="evenodd" clip-rule="evenodd" fill="#6EC392" d="M36.652,126.038c3.029-2.682,4.167-6.6,6.416-9.791
		c0.78-1.104,1.511-2.237,2.262-3.357c0.486,1.328,0.975,2.652,1.461,3.976c-2.793,4.545-5.586,9.09-8.379,13.63
		C37.822,129.01,37.241,127.523,36.652,126.038z"/>
	<path fill-rule="evenodd" clip-rule="evenodd" fill="#F79021" d="M95.119,39.209c6.18-0.019,12.364-0.037,18.54-0.054
		c-0.017,0.979-0.024,1.955-0.037,2.932c-6.163-0.046-12.322-0.093-18.49-0.139C95.131,41.036,95.123,40.121,95.119,39.209z"/>
	<path fill-rule="evenodd" clip-rule="evenodd" fill="#F2CA23" d="M96.409,56.926c-0.332,1.571,0.664,2.274,1.859,2.851
		c-0.187,0.178-0.373,0.359-0.556,0.54c-1.785-0.905-1.71-0.236-1.271,1.282c1.254,4.309,2.345,8.662,3.503,12.997
		c-1.677-0.012-3.357-0.025-5.038-0.037c0-0.479,0.008-0.957,0.008-1.43c0.241-2.885,0.507-5.775-0.157-8.652
		c-0.142-0.073-0.241-0.187-0.299-0.336c0.439-2.55-0.938-5.288,0.788-7.703C95.638,56.602,96.02,56.762,96.409,56.926z"/>
	<path fill-rule="evenodd" clip-rule="evenodd" fill="#F6CD26" d="M77.351,194.665c2.457-1.689,5.371-2.312,8.098-3.349
		c2.785,4.885,2.793,4.901-2.208,6.761c-1.349,0.502-2.752,0.884-4.138,1.315C78.521,197.814,77.94,196.242,77.351,194.665z"/>
	<path fill-rule="evenodd" clip-rule="evenodd" fill="#CDDC37" d="M98.85,57.706c3.951-0.202,7.118,2.225,10.717,3.204
		c1.402,0.379,2.764,0.913,4.142,1.378c0.033,1.832,0.407,3.704-0.66,5.403C108.205,64.519,103.308,61.429,98.85,57.706z"/>
	<path fill-rule="evenodd" clip-rule="evenodd" fill="#6ECBEE" d="M18.73,88.261l0.096,0.262c-6.18-0.052-12.348-0.106-18.523-0.16
		c0.976-1.691,2.075-3.271,3.735-4.376c4.184,1.23,8.367,2.461,12.551,3.691c0.395,0.527,0.93,0.606,1.527,0.476
		C18.332,88.12,18.54,88.155,18.73,88.261z"/>
	<path fill-rule="evenodd" clip-rule="evenodd" fill="#F6CD26" d="M61.562,200.351c2.719-0.668,5.084-2.474,8.002-2.536
		c0.594,1.523,1.188,3.038,1.781,4.562c-0.975,0.465-1.921,0.996-2.926,1.386C63.136,205.816,63.127,205.809,61.562,200.351z"/>
	<path fill-rule="evenodd" clip-rule="evenodd" fill="#F2CA23" d="M98.269,59.777c3.785,4.358,7.566,8.716,11.355,13.072
		c-1.108,1.483-2.739,1.695-4.407,1.824c-2.503-4.784-5.006-9.569-7.504-14.356C97.896,60.136,98.082,59.955,98.269,59.777z"/>
	<path fill-rule="evenodd" clip-rule="evenodd" fill="#CDDC37" d="M97.713,60.316c2.498,4.788,5.001,9.573,7.504,14.356
		c-1.76-0.025-3.516-0.052-5.271-0.077c-1.158-4.335-2.249-8.688-3.503-12.997C96.003,60.08,95.928,59.412,97.713,60.316z"/>
	<path fill-rule="evenodd" clip-rule="evenodd" fill="#292522" d="M71.345,202.376c-0.593-1.523-1.187-3.038-1.781-4.562
		c2.283-1.813,5.03-2.49,7.786-3.146c0.59,1.573,1.171,3.146,1.752,4.723C76.521,200.388,73.931,201.384,71.345,202.376z"/>
	<path fill-rule="evenodd" clip-rule="evenodd" fill="#3A61AD" d="M14.323,71.049c1.315,4.435,2.631,8.874,3.942,13.308
		c-0.07,0.668,0.225,1.571-0.971,1.515c-0.274-0.299-0.536-0.291-0.789,0.025l0.021,0.021c-0.709-4.071-3.665-6.819-5.889-9.994
		C11.293,73.861,12.767,72.425,14.323,71.049z"/>
	<path fill-rule="evenodd" clip-rule="evenodd" fill="#9BC24D" d="M105.64,31.826c-1.013,0.662-2.038,0.664-3.062,0.045
		c-0.009-4.474-0.017-8.948-0.017-13.422c1.017-0.751,2.033-0.88,3.046,0.006C105.615,22.913,105.632,27.369,105.64,31.826z"/>
	<path fill-rule="evenodd" clip-rule="evenodd" fill="#61B7D5" d="M2.029,118.468c1.079,0,2.158,0,3.242,0c0,4.208,0,8.417,0,12.625
		c-1.714-0.515-2.884-1.614-3.544-3.274C1.83,124.701,1.926,121.58,2.029,118.468z"/>
	<path fill-rule="evenodd" clip-rule="evenodd" fill="#CDDC37" d="M95.119,39.209c0.004,0.911,0.012,1.826,0.012,2.739
		c-0.116,0.066-0.24,0.116-0.373,0.143c-1.793-2.635-3.553-5.3-5.396-7.898c-1.291-1.816-0.623-2.285,1.291-2.248
		c1.465,0.027,2.934-0.118,4.404-0.187C94.815,34.246,94.708,36.729,95.119,39.209z"/>
	<path fill-rule="evenodd" clip-rule="evenodd" fill="#6ECBEE" d="M8.139,118.451c1.005,0,2.005,0.004,3.005,0.008
		c0.042,4.508,0.087,9.015,0.133,13.526c-1.046,0.71-2.066,0.647-3.055-0.12C8.197,127.391,8.168,122.921,8.139,118.451z"/>
	<path fill-rule="evenodd" clip-rule="evenodd" fill="#3A61AD" d="M8.139,118.451c0.029,4.47,0.059,8.939,0.083,13.414
		c-1.104,0.207-2.083-0.083-2.951-0.772c0-4.208,0-8.417,0-12.625C6.229,118.459,7.185,118.455,8.139,118.451z"/>
	<path fill-rule="evenodd" clip-rule="evenodd" fill="#6EC392" d="M102.561,18.449c0,4.474,0.008,8.948,0.017,13.422
		c-0.963-0.017-1.918-0.031-2.872-0.05c-0.079-4.08-0.154-8.16-0.225-12.239C100.394,18.904,101.356,18.344,102.561,18.449z"/>
	<path fill-rule="evenodd" clip-rule="evenodd" fill="#3A61AD" d="M105.64,31.826c-0.008-4.458-0.024-8.913-0.033-13.371
		c1.129-0.245,2.042,0.33,2.984,0.791c0,4.213-0.004,8.428-0.008,12.642C107.607,31.868,106.619,31.847,105.64,31.826z"/>
	<path fill-rule="evenodd" clip-rule="evenodd" fill="#3A61AD" d="M11.276,131.985c-0.045-4.512-0.091-9.019-0.133-13.526
		c0.979,0,1.959,0,2.938,0c0.096,4.088,0.191,8.181,0.287,12.273C13.477,131.5,12.497,132.035,11.276,131.985z"/>
	<path fill-rule="evenodd" clip-rule="evenodd" fill="#3A61AD" d="M16.589,87.678c-4.184-1.23-8.367-2.461-12.551-3.691
		c0.573-1.793,1.793-3.061,3.304-4.099c2.855,2.322,5.794,4.524,9.185,6.03l-0.021-0.021c0.009,0.525,0.332,0.683,0.793,0.67
		C17.062,86.937,16.83,87.309,16.589,87.678z"/>
	<path fill-rule="evenodd" clip-rule="evenodd" fill="#6ECBEE" d="M16.527,85.918c-3.391-1.506-6.33-3.708-9.185-6.03
		c0.739-1.619,1.901-2.885,3.296-3.962C12.862,79.099,15.817,81.847,16.527,85.918z"/>
	<path fill-rule="evenodd" clip-rule="evenodd" fill="#6EC392" d="M108.583,31.888c0.004-4.214,0.008-8.429,0.008-12.642
		c1.548,0.4,2.615,1.313,3.092,2.866c-0.008,3.248-0.024,6.497-0.029,9.747C110.633,32.428,109.612,32.527,108.583,31.888z"/>
	<path fill-rule="evenodd" clip-rule="evenodd" fill="#6EC392" d="M99.48,19.583c0.071,4.08,0.146,8.16,0.225,12.239
		c-1.021,0.66-2.042,0.672-3.08,0.043c-0.012-3.146-0.024-6.292-0.033-9.438C96.933,20.851,98.103,20.107,99.48,19.583z"/>
	<path fill-rule="evenodd" clip-rule="evenodd" fill="#6ECBEE" d="M101.39,176.564c2.627,0.772,5.255,1.544,7.878,2.312
		c-1.403,3.092-5.541,3.864-8.044,1.465C99.896,179.063,101.382,177.831,101.39,176.564z"/>
	<path fill-rule="evenodd" clip-rule="evenodd" fill="#3A61AD" d="M14.369,130.732c-0.095-4.092-0.191-8.185-0.287-12.273
		c1.013,0,2.03,0,3.047-0.004c0.066,3.167,0.133,6.329,0.19,9.492C16.917,129.491,15.759,130.229,14.369,130.732z"/>
	<path fill-rule="evenodd" clip-rule="evenodd" fill="#6ECBEE" d="M91.827,173.713c2.565,0.768,5.122,1.532,7.687,2.299
		c-0.548,4.536-3.382,2.776-5.96,2.308C90.13,177.702,91.246,175.677,91.827,173.713z"/>
	<path fill-rule="evenodd" clip-rule="evenodd" fill="#6ECBEE" d="M110.948,179.412c2.444,0.688,4.894,1.374,7.338,2.059
		c-0.44,1.544,0.328,4.291-2.93,3.096C112.961,183.687,108.77,184.243,110.948,179.412z"/>
	<path fill-rule="evenodd" clip-rule="evenodd" fill="#6ECBEE" d="M82.141,42.968c-1.121,0.091-2.241,0.183-3.358,0.274
		c-2.884,0.098-4.217-1.081-3.702-4.136c0.237-1.428,0.021-2.932,0.012-4.404C77.683,37.257,80.14,39.917,82.141,42.968z"/>
	<path fill-rule="evenodd" clip-rule="evenodd" fill="#6ECBEE" d="M82.622,170.937c2.278,0.714,4.731,0.93,6.79,2.3
		c-0.208,1.137,0.22,2.855-1.345,3.021c-2.2,0.228-4.475-0.552-6.185-1.789C80.75,173.647,81.982,172.074,82.622,170.937z"/>
	<path fill-rule="evenodd" clip-rule="evenodd" fill="#EA5D24" d="M20.225,43.219c4.458,0.013,8.919,0.029,13.381,0.042
		c0.025,0.368,0.05,0.735,0.075,1.1c-3.562,0.002-7.131,0.081-10.691-0.027c-2.104-0.062-2.798,0.808-2.76,2.837
		c0.104,5.528,0.066,11.061,0.087,16.591c-0.291,0.214-0.585,0.43-0.872,0.646c-0.22-7.006-0.539-14.012,0.162-21.009
		C19.843,43.451,20.051,43.391,20.225,43.219z"/>
	<path fill-rule="evenodd" clip-rule="evenodd" fill="#2B3337" d="M19.112,112.541l0.308-0.059c1.61,1.735,3.221,3.466,5.296,5.694
		c-2.3,0.125-3.91,0.212-5.521,0.299c-0.133,0.075-0.266,0.092-0.415,0.05C18.893,116.533,19.005,114.533,19.112,112.541z"/>
	<path fill-rule="evenodd" clip-rule="evenodd" fill="#3A61AD" d="M111.654,31.859c0.004-3.25,0.021-6.5,0.029-9.747
		c2.864,2.845,2.038,6.425,1.959,9.855C112.978,31.932,112.313,31.896,111.654,31.859z"/>
	<path fill-rule="evenodd" clip-rule="evenodd" fill="#3A61AD" d="M18.78,118.525c0.149,0.042,0.282,0.025,0.415-0.05
		c-0.024,3.279,0.49,6.657-1.876,9.472c-0.058-3.163-0.124-6.325-0.19-9.492C17.681,118.476,18.232,118.501,18.78,118.525z"/>
	<path fill-rule="evenodd" clip-rule="evenodd" fill="#3A61AD" d="M96.592,22.428c0.009,3.146,0.021,6.292,0.033,9.438
		c-0.506-0.033-1.021-0.068-1.527-0.102C94.948,28.547,93.911,25.191,96.592,22.428z"/>
	<path fill-rule="evenodd" clip-rule="evenodd" fill="#3A61AD" d="M2.029,118.468c-0.104,3.112-0.199,6.233-0.303,9.351
		c-2.254-2.876-1.561-6.226-1.494-9.471C0.83,118.385,1.424,118.426,2.029,118.468z"/>
	<path fill-rule="evenodd" clip-rule="evenodd" fill="#F6CD26" d="M118.871,130.495c0.312-0.133,0.623-0.266,0.926-0.398
		c0.876,3.071,0.402,5.943-1.291,8.625C118.631,135.982,118.755,133.234,118.871,130.495z"/>
	<path fill-rule="evenodd" clip-rule="evenodd" fill="#9BC84E" d="M113.891,61.248c-0.349-1.621-0.349-3.243-0.004-4.862
		C114.405,58.007,114.405,59.629,113.891,61.248z"/>
	<path fill-rule="evenodd" clip-rule="evenodd" fill="#F6CD26" d="M118.456,139.261c-0.353-0.008-0.705-0.024-1.058-0.041
		c0.294-0.398,0.66-0.515,1.112-0.258C118.515,138.966,118.456,139.261,118.456,139.261z"/>
	<path fill-rule="evenodd" clip-rule="evenodd" fill="#9BC24D" d="M20.225,43.219c-0.174,0.172-0.382,0.232-0.618,0.179
		c0.183-0.174,0.369-0.347,0.544-0.519C20.262,42.974,20.283,43.086,20.225,43.219z"/>
	<path fill-rule="evenodd" clip-rule="evenodd" fill="#F79021" d="M43.201,48.094c-6.648-6.826-6.582-16.345,0.158-22.913
		c6.425-6.256,16.211-6.111,22.354,0.336C58.209,33.042,50.705,40.567,43.201,48.094z"/>
	<path fill-rule="evenodd" clip-rule="evenodd" fill="#F2963B" d="M43.201,48.094c7.504-7.527,15.008-15.052,22.512-22.576
		c6.367,5.879,6.641,15.844,0.61,22.208C59.936,54.466,49.95,54.624,43.201,48.094z"/>
	<path fill-rule="evenodd" clip-rule="evenodd" fill="#F79021" d="M20.316,63.761c-0.021-5.53,0.017-11.063-0.087-16.591
		c-0.038-2.029,0.656-2.899,2.76-2.837c3.561,0.108,7.13,0.029,10.691,0.027c0.033,3.735,0.074,7.471,0.107,11.206
		C29.293,58.299,24.807,61.03,20.316,63.761z"/>
	<path fill-rule="evenodd" clip-rule="evenodd" fill="#242120" d="M34.146,57.612c-0.025-0.73-0.05-1.459-0.075-2.191
		c13.655-0.072,27.31-0.473,40.965,0.212l0.058-0.16c-0.074,0.743-0.145,1.484-0.216,2.227c-13.488,0.012-26.973,0.025-40.458,0.037
		L34.146,57.612z"/>
	<path fill-rule="evenodd" clip-rule="evenodd" fill="#3A61AD" d="M51.535,146.01c-0.024-4.209,1.515-6.683,4.624-7.421
		c3.328-0.789,5.811,0.647,7.491,4.333C59.683,144.225,55.686,145.412,51.535,146.01z"/>
	<path fill-rule="evenodd" clip-rule="evenodd" fill="#3A61AD" d="M7.222,93.293c0.307,0.282,0.552,0.413,0.651,0.614
		c1.104,2.148,4.072,4.829,3.051,6.213c-1.424,1.926-4.901,0.386-7.849,0.791C4.08,97.807,5.611,95.558,7.222,93.293z"/>
	<path fill-rule="evenodd" clip-rule="evenodd" fill="#3A61AD" d="M111.675,48.264c-0.125,2.658-1.47,4.177-4.126,4.215
		c-2.544,0.037-3.947-1.608-4.042-3.918c-0.108-2.588,1.494-4.138,4.129-4.18C110.147,44.344,111.393,45.863,111.675,48.264z"/>
	<path fill-rule="evenodd" clip-rule="evenodd" fill="#F79021" d="M46.792,116.865c-0.486-1.324-0.975-2.647-1.461-3.976l0.17-0.199
		c1.909-0.142,3.52,0.996,5.308,1.303c3.329,0.573,6.288,2.723,9.84,2.291c0.569,1.494,1.138,2.988,1.71,4.482
		c-5.101-0.788-9.786-3.179-14.933-3.752l-0.341,0.021L46.792,116.865z"/>
	<path fill-rule="evenodd" clip-rule="evenodd" fill="#3A61AD" d="M62.359,120.767c-0.572-1.494-1.141-2.988-1.71-4.482
		c-0.776-2.195-1.544-4.385-2.315-6.576c0.946-0.07,1.893-0.139,2.847-0.211c4.628,0.064,9.256,0.128,13.883,0.193l0.045-0.004
		c-0.024,0.371-0.045,0.743-0.066,1.116c-2.27,5.632-3.818,11.484-5.37,17.34c-0.689,1.805-1.378,3.607-2.071,5.408
		C65.854,129.292,64.103,125.025,62.359,120.767z"/>
	<path fill-rule="evenodd" clip-rule="evenodd" fill="#F79021" d="M69.673,128.142c1.552-5.856,3.1-11.708,5.37-17.34
		c1.237,6.57,2.682,13.111,3.088,19.818C75.309,129.79,72.491,128.968,69.673,128.142z"/>
	<path fill-rule="evenodd" clip-rule="evenodd" fill="#3A61AD" d="M75.263,94.071c-0.087,3.202-0.17,6.404-0.253,9.606
		c-3.648,0-7.296-0.044-10.94,0.025c-1.079,0.021-2.585-0.606-2.905,1.278l-0.074,0.189c-4.657-0.017-9.313-0.033-13.971-0.048
		l-0.174-0.23c-4.159-2.326-8.483-1.199-12.783-0.651c-0.813-3.37,0.033-6.819-0.486-10.204c0.133-2.656,0.261-5.314,0.394-7.973
		c2.44,0.017,4.881,0.033,7.326,0.05c0.125,3.382,0.245,6.765,0.37,10.147c-0.009,0.504,0.257,0.639,0.705,0.521
		c5.388,0.043,10.779,0.121,16.17,0.118c2.802,0,6.413,0.903,8.201-0.483c2.158-1.67,0.419-5.501,0.797-8.365
		c0.033-0.243,0.066-0.485,0.1-0.726c2.433-0.002,4.856-0.006,7.288-0.011C75.102,89.566,75.185,91.82,75.263,94.071z"/>
	<path fill-rule="evenodd" clip-rule="evenodd" fill="#6ECBEE" d="M44.596,109.789c-3.449-0.046-6.897-0.091-10.343-0.139
		c-0.813-1.531-0.485-3.129-0.266-4.723c4.316-0.012,8.633-0.022,12.958-0.035l0.174,0.23c-0.004,1.478-0.004,2.951-0.004,4.428
		C46.272,109.631,45.435,109.71,44.596,109.789z"/>
	<path fill-rule="evenodd" clip-rule="evenodd" fill="#242120" d="M46.945,104.892c-4.325,0.013-8.642,0.023-12.958,0.035
		c0.017-0.241,0.071-0.467,0.175-0.687C38.462,103.692,42.786,102.565,46.945,104.892z"/>
	<path fill-rule="evenodd" clip-rule="evenodd" fill="#3A61AD" d="M19.096,84.337c0.121-3.341,0.245-6.682,0.37-10.023
		c5.138-2.017,9.06-5.916,13.597-8.844c1.681,3.951,0.162,8.151,0.963,12.169c-0.079,0.257-0.162,0.515-0.245,0.772
		c-4.624,3.108-9.256,6.219-13.879,9.328c-0.299-0.264-0.598-0.525-0.896-0.787C19.287,86.088,19.494,85.223,19.096,84.337z"/>
	<path fill-rule="evenodd" clip-rule="evenodd" fill="#6ECBEE" d="M33.78,78.41c0.083-0.257,0.166-0.515,0.245-0.774
		c2.993-1.963,4.412-5.52,7.483-7.4c-0.033,5.294-0.07,10.585-0.112,15.877c-2.445-0.017-4.885-0.033-7.326-0.05
		C33.971,83.513,33.88,80.96,33.78,78.41z"/>
	<path fill-rule="evenodd" clip-rule="evenodd" fill="#242120" d="M18.73,88.261c-0.19-0.105-0.398-0.141-0.614-0.107
		c0.299-0.401,0.594-0.801,0.889-1.202c0.299,0.261,0.598,0.523,0.896,0.787C19.511,87.915,19.121,88.087,18.73,88.261z"/>
	<path fill-rule="evenodd" clip-rule="evenodd" fill="#242120" d="M34.349,61.597c-0.112-0.602-0.22-1.204-0.324-1.803l0.324,0.075
		c0.245-0.17,0.494-0.342,0.734-0.513c13.091,0.011,26.181,0.023,39.279,0.033c0.017,0.672,0.033,1.345,0.059,2.017l0.116,0.185
		c-12.904-0.075-25.815-0.154-38.719-0.23c-0.253-0.382-0.494-0.363-0.726,0.019C34.843,61.454,34.594,61.524,34.349,61.597z"/>
	<path fill-rule="evenodd" clip-rule="evenodd" fill="#F79021" d="M41.508,70.234c-3.071,1.882-4.49,5.439-7.483,7.402
		c-0.801-4.015,0.718-8.215-0.963-12.167c0.398-1.158,0.785-2.316,1.179-3.47c0.237,0.079,0.469,0.158,0.706,0.234
		c2.229,2.461,4.462,4.926,6.687,7.394C41.607,69.833,41.566,70.035,41.508,70.234z"/>
	<path fill-rule="evenodd" clip-rule="evenodd" fill="#61B7D5" d="M34.946,62.234c-0.236-0.077-0.469-0.156-0.706-0.234
		c0.038-0.133,0.075-0.268,0.108-0.403c0.245-0.072,0.494-0.143,0.743-0.218c0.24-0.004,0.481-0.013,0.726-0.019
		c12.904,0.077,25.815,0.155,38.719,0.23c-0.033,0.261-0.158,0.465-0.365,0.614C61.094,62.213,48.016,62.222,34.946,62.234z"/>
	<path fill-rule="evenodd" clip-rule="evenodd" fill="#9BC24D" d="M34.025,59.793c-0.564-0.762-0.473-1.484,0.121-2.181l0.273,0.125
		c-0.004,0.494-0.004,0.986-0.008,1.478c-0.108,0.209-0.129,0.428-0.062,0.654L34.025,59.793z"/>
	<path fill-rule="evenodd" clip-rule="evenodd" fill="#CDDC37" d="M74.172,62.205c0.207-0.149,0.332-0.353,0.365-0.614l-0.116-0.185
		c1.054-0.531,0.539-1.398,0.46-2.172c0-0.511-0.004-1.023-0.004-1.534c0.071-0.743,0.142-1.484,0.216-2.227
		c2.478,0.006,4.952,0.015,7.43,0.017c-0.009,2.881-0.021,5.759-0.033,8.639c0,0-0.232,0.226-0.232,0.224
		c-7.131-0.075-7.131-0.075-7.114,7.105c0.009,1.098,0.054,2.193,0.083,3.293c-0.074,1.029-0.141,2.059-0.211,3.09
		c-2.668-2.034-4.192-5.269-7.243-7.271c0,5.4,0,10.438,0,15.477l-0.174-0.079c-1.872-0.566-1.337-2.137-1.354-3.403
		c-0.045-4.32-0.017-8.645-0.017-12.968C69.855,68.192,71.706,64.872,74.172,62.205z"/>
	<path fill-rule="evenodd" clip-rule="evenodd" fill="#6ECBEE" d="M67.771,86.047c0-5.039,0-10.077,0-15.477
		c3.051,2.002,4.574,5.238,7.243,7.271c0,2.727-0.004,5.454-0.008,8.178C72.595,86.03,70.188,86.039,67.771,86.047z"/>
	<path fill-rule="evenodd" clip-rule="evenodd" fill="#99C64D" d="M75.226,74.751c-0.029-1.1-0.074-2.196-0.083-3.293
		c-0.017-7.18-0.017-7.18,7.114-7.105c0.1,3.461,0.207,6.921,0.311,10.382C80.119,74.741,77.675,74.747,75.226,74.751z"/>
	<path fill-rule="evenodd" clip-rule="evenodd" fill="#2B3337" d="M67.771,86.047c2.416-0.008,4.823-0.017,7.234-0.027
		c0.008,0.434,0.013,0.866,0.021,1.297c-2.432,0.002-4.855,0.006-7.288,0.008c-0.045-0.45-0.091-0.905-0.141-1.357L67.771,86.047z"
		/>
	<path fill-rule="evenodd" clip-rule="evenodd" fill="#CDDC37" d="M94.758,64.477c0.664,2.876,0.398,5.767,0.157,8.652
		C94.376,70.25,94.683,67.362,94.758,64.477z"/>
	<path fill-rule="evenodd" clip-rule="evenodd" fill="#6ECBEE" d="M75.064,109.689c-4.627-0.064-9.255-0.129-13.883-0.193
		c-0.033-1.44-0.062-2.885-0.091-4.327c0,0,0.074-0.189,0.074-0.187c4.615-0.012,9.23-0.029,13.842-0.043
		C75.026,106.525,75.047,108.106,75.064,109.689z"/>
	<path fill-rule="evenodd" clip-rule="evenodd" fill="#242120" d="M75.006,104.939c-4.611,0.015-9.227,0.031-13.842,0.043
		c0.32-1.886,1.826-1.26,2.905-1.28c3.645-0.069,7.292-0.025,10.94-0.025C75.006,104.099,75.006,104.518,75.006,104.939z"/>
	<path fill-rule="evenodd" clip-rule="evenodd" fill="#CDDC37" d="M44.596,109.789c0.839-0.079,1.677-0.158,2.52-0.236
		c3.739,0.052,7.475,0.104,11.219,0.155c0.771,2.191,1.54,4.381,2.315,6.576c-3.553,0.432-6.512-1.718-9.84-2.291
		c-1.789-0.307-3.399-1.444-5.308-1.303C45.198,111.723,44.895,110.756,44.596,109.789z"/>
	<path fill-rule="evenodd" clip-rule="evenodd" fill="#61B7D5" d="M19.005,86.952c-0.295,0.4-0.59,0.801-0.889,1.202
		c-0.598,0.13-1.133,0.052-1.527-0.476c0.241-0.369,0.474-0.741,0.71-1.11c-0.033-0.234-0.037-0.465-0.004-0.695
		c1.195,0.056,0.9-0.847,0.971-1.515c0.274-0.006,0.557-0.015,0.83-0.021C19.494,85.223,19.287,86.088,19.005,86.952z"/>
	<path fill-rule="evenodd" clip-rule="evenodd" fill="#6ECBEE" d="M17.295,85.873c-0.033,0.23-0.029,0.46,0.004,0.695
		c-0.461,0.013-0.784-0.145-0.793-0.67C16.759,85.582,17.021,85.574,17.295,85.873z"/>
	<path fill-rule="evenodd" clip-rule="evenodd" fill="#61B7D5" d="M74.877,57.7c0,0.51,0.004,1.023,0.004,1.534
		c-0.191-0.004-0.37,0.05-0.519,0.155c-13.099-0.01-26.188-0.022-39.279-0.033c-0.207-0.112-0.432-0.16-0.672-0.141
		c0.004-0.492,0.004-0.983,0.008-1.478C47.904,57.725,61.389,57.712,74.877,57.7z"/>
	<path fill-rule="evenodd" clip-rule="evenodd" fill="#F79021" d="M58.334,109.708c-3.744-0.052-7.479-0.104-11.219-0.155
		c0-1.48,0-2.953,0.004-4.431c4.657,0.015,9.313,0.031,13.971,0.048c0.029,1.442,0.058,2.886,0.091,4.327
		C60.227,109.569,59.28,109.638,58.334,109.708z"/>
	<path fill-rule="evenodd" clip-rule="evenodd" fill="#CDDC37" d="M67.598,85.968c0.05,0.453,0.095,0.907,0.141,1.357
		c-0.033,0.241-0.066,0.483-0.1,0.726c-0.377,2.864,1.361,6.695-0.797,8.365c-1.789,1.386-5.399,0.483-8.201,0.483
		c-5.391,0.002-10.782-0.075-16.17-0.118c-0.232-0.172-0.469-0.347-0.705-0.521c-0.125-3.382-0.245-6.765-0.37-10.147
		c0.042-5.292,0.079-10.583,0.112-15.877c0.059-0.201,0.1-0.403,0.125-0.608c8.201-0.013,16.398-0.019,24.595-0.031
		c0,4.323-0.029,8.647,0.017,12.968C66.261,83.831,65.726,85.401,67.598,85.968z M65.298,89.985
		c0.083-2.534-1.917-4.698-4.499-4.854c-2.806-0.17-5.03,1.817-5.042,4.611c-0.012,2.93,1.635,4.551,4.428,4.885
		C62.8,94.941,65.211,92.638,65.298,89.985z M47.809,72.394c-1.935,0.255-3.304,1.326-3.346,3.526
		c-0.041,2.179,1.212,3.557,3.354,3.631c2.324,0.081,3.728-1.276,3.698-3.644C51.49,73.714,50.133,72.612,47.809,72.394z
		 M56.371,77.731c1.241,0.056,1.672-0.66,1.681-1.818c0.008-1.2-0.523-1.778-1.752-1.803c-1.428-0.031-1.946,0.651-1.88,2.019
		C54.482,77.418,55.196,77.798,56.371,77.731z M63.215,75.951c0.1-1.062-0.291-1.779-1.569-1.841
		c-1.361-0.064-2.042,0.46-2.013,1.884c0.025,1.22,0.602,1.75,1.789,1.75C62.584,77.744,63.289,77.302,63.215,75.951z"/>
	<path fill-rule="evenodd" clip-rule="evenodd" fill="#F2CA23" d="M41.766,96.261c0.236,0.174,0.473,0.349,0.705,0.521
		C42.022,96.9,41.757,96.765,41.766,96.261z"/>
	<path fill-rule="evenodd" clip-rule="evenodd" fill="#2B3337" d="M74.362,59.389c0.149-0.105,0.328-0.16,0.519-0.155
		c0.079,0.774,0.593,1.641-0.46,2.172C74.396,60.733,74.379,60.061,74.362,59.389z"/>
	<path fill-rule="evenodd" clip-rule="evenodd" fill="#2B3337" d="M34.411,59.214c0.24-0.019,0.465,0.029,0.672,0.141
		c-0.24,0.17-0.489,0.343-0.734,0.513C34.282,59.642,34.303,59.424,34.411,59.214z"/>
	<path fill-rule="evenodd" clip-rule="evenodd" fill="#262221" d="M35.818,61.36c-0.245,0.006-0.486,0.015-0.726,0.019
		C35.324,60.997,35.564,60.979,35.818,61.36z"/>
	<path fill-rule="evenodd" clip-rule="evenodd" fill="#6ECBEE" d="M66.228,69.597c-8.197,0.013-16.394,0.019-24.595,0.031
		c-2.225-2.468-4.458-4.933-6.687-7.394c13.069-0.012,26.147-0.021,39.226-0.029C71.706,64.872,69.855,68.192,66.228,69.597z"/>
	<path fill-rule="evenodd" clip-rule="evenodd" fill="#292522" d="M65.298,89.985c-0.087,2.652-2.498,4.956-5.113,4.643
		c-2.793-0.334-4.44-1.955-4.428-4.885c0.012-2.793,2.237-4.781,5.042-4.611C63.381,85.287,65.381,87.452,65.298,89.985z
		 M62.654,89.857c-0.054-1.328-0.817-2.133-2.021-2.2c-1.398-0.079-2.378,0.759-2.378,2.191c0,1.44,0.979,2.25,2.387,2.158
		C61.866,91.928,62.608,91.139,62.654,89.857z"/>
	<path fill-rule="evenodd" clip-rule="evenodd" fill="#262221" d="M47.809,72.394c2.324,0.218,3.681,1.32,3.706,3.513
		c0.029,2.368-1.374,3.725-3.698,3.644c-2.142-0.075-3.395-1.453-3.354-3.631C44.505,73.72,45.874,72.649,47.809,72.394z"/>
	<path fill-rule="evenodd" clip-rule="evenodd" fill="#EF5F24" d="M56.371,77.731c-1.174,0.066-1.888-0.313-1.951-1.602
		c-0.066-1.368,0.452-2.05,1.88-2.019c1.229,0.025,1.76,0.604,1.752,1.803C58.043,77.071,57.611,77.788,56.371,77.731z"/>
	<path fill-rule="evenodd" clip-rule="evenodd" fill="#9BC84E" d="M63.215,75.951c0.074,1.351-0.631,1.793-1.793,1.793
		c-1.188,0-1.764-0.529-1.789-1.75c-0.029-1.424,0.651-1.949,2.013-1.884C62.924,74.172,63.314,74.889,63.215,75.951z"/>
	<path fill-rule="evenodd" clip-rule="evenodd" fill="#F2CA23" d="M62.654,89.857c-0.046,1.282-0.789,2.071-2.013,2.15
		c-1.407,0.091-2.387-0.718-2.387-2.158c0-1.432,0.979-2.271,2.378-2.191C61.837,87.724,62.601,88.529,62.654,89.857z"/>
</g>
<g>
	<path fill-rule="evenodd" clip-rule="evenodd" fill="#FFFFFF" d="M-353.354,701.937c-0.878,0.854-1.5,1.449-2.111,2.053
		c-3.703,3.652-8.117,5.808-13.339,5.97c-4.487,0.14-6.711-1.625-7.931-5.883c-0.122-0.425-0.284-0.837-0.591-1.731
		c-1.188,0.84-2.203,1.516-3.173,2.25c-3.23,2.443-6.686,4.434-10.709,5.23c-4.466,0.885-8.367-1.077-9.158-4.576
		c-0.211-0.932-0.311-1.889-0.55-3.385c-0.911,0.832-1.482,1.334-2.032,1.859c-4.397,4.21-9.435,6.875-15.715,6.015
		c-3.646-0.499-5.649-2.989-5.896-6.668c-0.425-6.307,1.336-11.987,5.017-17.056c4.057-5.586,9.25-9.75,15.852-11.984
		c3.677-1.245,7.374-1.611,11.012,0.207c1.74,0.871,1.905-0.699,2.291-1.615c2.734-6.48,5.405-12.986,8.089-19.488
		c0.807-1.955,1.463-3.985,2.418-5.865c1.26-2.482,3.302-3.862,6.235-3.674c2.727,0.174,4.245,1.906,3.515,4.582
		c-0.751,2.756-1.742,5.474-2.911,8.081c-5.998,13.38-12.088,26.719-18.139,40.075c-0.311,0.688-0.792,1.414-0.771,2.109
		c0.031,1.059,0.161,2.328,0.774,3.077c0.386,0.472,1.839,0.444,2.629,0.149c4.824-1.803,8.862-4.855,12.535-8.393
		c0.674-0.648,1.029-1.65,1.463-2.522c4.183-8.417,10.685-14.209,19.659-17.034c3.29-1.036,6.718-1.207,9.932,0.508
		c1.539,0.82,1.811-0.299,2.216-1.29c3.267-7.978,6.561-15.944,9.78-23.941c1.444-3.585,3.495-5.379,6.505-5.401
		c3.257-0.023,4.852,1.744,4.023,4.936c-0.679,2.613-1.706,5.162-2.812,7.635c-6.112,13.663-12.296,27.294-18.453,40.938
		c-0.217,0.481-0.603,1-0.557,1.466c0.099,0.997,0.154,2.227,0.753,2.874c0.458,0.496,1.87,0.587,2.607,0.272
		c7.663-3.271,14.076-7.848,16.983-16.198c0.938-2.697,2.374-5.231,3.688-7.785c0.914-1.775,2.292-2.956,4.489-2.892
		c3.317,0.097,5.121,2.744,3.733,5.753c-1.773,3.844-3.755,7.592-5.502,11.447c-0.866,1.91-1.607,3.926-2.044,5.971
		c-0.559,2.615,0.61,3.902,3.235,3.34c5.234-1.123,9.573-3.889,12.12-8.686c4.184-7.881,9.424-14.694,17.857-18.266
		c2.269-0.961,4.971-1.074,7.493-1.203c2.068-0.106,3.525,1.307,3.653,3.329c0.224,3.53-0.339,6.985-2.904,9.696
		c-0.68,0.719-1.727,1.221-2.698,1.502c-1.324,0.381-2.03-0.203-2.229-1.723c-0.184-1.4-0.848-2.738-1.3-4.104
		c-1.542,0.614-3.349,0.903-4.574,1.904c-3.689,3.015-6.384,6.862-7.972,11.38c-1.5,4.268,0.885,7.125,5.383,6.434
		c7.14-1.098,13.196-4.688,19-8.707c0.876-0.606,1.282-1.987,1.747-3.077c2.849-6.683,6.92-12.306,13.826-15.22
		c5.257-2.219,10.529-2.523,15.603,0.818c0.66,0.435,1.786,0.324,2.666,0.219c1.104-0.132,2.171-0.717,3.267-0.758
		c3.095-0.116,4.444,1.73,3.492,4.663c-1.54,4.742-3.225,9.439-4.635,14.219c-0.474,1.606-0.56,3.438-0.351,5.106
		c0.252,2.012,1.713,2.793,3.479,1.818c4.437-2.452,8.771-5.111,11.096-9.948c1.965-4.089,3.877-8.205,5.879-12.276
		c0.458-0.932,1.064-1.857,1.812-2.564c1.488-1.408,4.39-1.47,5.881-0.201c1.715,1.459,1.694,3.283,0.804,5.151
		c-1.853,3.89-3.789,7.741-5.626,11.64c-0.642,1.361-1.313,2.776-1.56,4.236c-0.221,1.308-0.374,3.227,0.356,3.931
		c0.776,0.749,2.82,0.882,3.971,0.426c5.06-2.007,9.464-4.806,11.895-10.121c3.99-8.728,10.763-14.493,19.917-17.306
		c3.216-0.988,6.578-1.121,9.711,0.569c1.595,0.86,1.806-0.437,2.183-1.349c3.266-7.896,6.542-15.788,9.728-23.717
		c1.501-3.735,3.533-5.562,6.618-5.572c3.217-0.012,4.8,1.828,3.994,4.982c-0.577,2.258-1.377,4.49-2.343,6.613
		c-5.102,11.217-10.121,22.477-15.517,33.552c-2.631,5.398-5.237,10.916-9.671,15.238c-6.389,6.229-14.095,7.227-22.323,5.38
		c-1.53-0.344-2.751-2.33-3.963-3.693c-0.5-0.562-0.599-1.48-0.99-2.531c-0.988,0.592-1.77,0.987-2.47,1.494
		c-3.405,2.461-7.004,4.473-11.218,5.197c-5.199,0.895-8.401-0.821-10.071-5.555c-0.608-1.726-1.434-1.019-2.388-0.408
		c-2.542,1.627-5.092,3.238-7.671,4.805c-0.636,0.386-1.377,0.63-2.098,0.844c-5.04,1.49-8.541-0.861-9.055-6.117
		c-0.116-1.181-0.017-2.384-0.017-3.576c-0.195-0.109-0.39-0.218-0.584-0.326c-0.72,0.65-1.488,1.255-2.15,1.959
		c-3.341,3.551-6.79,6.938-11.738,8.172c-5.263,1.311-10.231-1.324-11.829-6.46c-0.69-2.218-1.703-1.571-2.968-0.72
		c-5.323,3.584-10.977,6.43-17.415,7.31c-5.016,0.685-9.566,0.032-12.231-5.078c-0.853-1.635-1.789-0.596-2.79-0.091
		c-3.412,1.725-6.711,3.891-10.328,4.939c-5.598,1.624-8.527-0.051-11.032-5.264c-0.607-1.264-1.262-0.999-2.128-0.414
		c-1.878,1.27-3.7,2.646-5.675,3.744c-2.939,1.633-6.069,2.784-9.537,2.275c-3.747-0.549-5.389-2.27-5.919-6.043
		C-352.923,703.333-353.105,702.858-353.354,701.937z M-263.651,694.687c-0.019,3.299,0.941,5.615,2.535,6.289
		c2.264,0.957,4.273,0.096,5.715-1.557c3.152-3.611,6.243-7.298,9.059-11.172c1.473-2.026,0.809-3.801-1.371-5.155
		c-2.393-1.486-4.988-1.792-7.558-0.558C-260.588,685.09-263.109,689.552-263.651,694.687z M-363.981,701.282
		c0.111,0.198,0.222,0.396,0.333,0.595c2.217-1.313,4.692-2.331,6.602-3.995c5.074-4.425,7.903-10.394,10.446-16.48
		c0.745-1.781-0.467-1.896-1.751-1.766c-9.042,0.915-17.809,9.984-18.3,18.933C-366.754,700.421-365.981,701.463-363.981,701.282z
		 M-187.832,701.296c2.282-0.176,4.579-1.562,6.603-3.446c4.87-4.535,7.741-10.343,10.286-16.347c0.714-1.686-0.22-2.093-1.616-1.87
		c-9.348,1.491-17.358,8.944-18.394,18.832C-191.158,700.433-190.351,701.282-187.832,701.296z M-411.901,701.291
		c2.25,0.012,5.148-1.373,7.549-3.718c4.583-4.475,7.383-10.073,9.874-15.855c0.734-1.705-0.136-2.343-1.678-2.058
		c-1.622,0.3-3.266,0.718-4.771,1.38c-7.437,3.267-12.164,8.752-13.415,16.933C-414.705,700.337-413.951,701.28-411.901,701.291z"/>
	<path fill-rule="evenodd" clip-rule="evenodd" fill="#FFFFFF" d="M-423.227,662.896c2.261-1.824,4.535-3.632,6.777-5.479
		c1.342-1.105,2.585-2.334,3.958-3.396c1.756-1.359,3.838-1.159,5.06,0.36c1.175,1.464,1.062,3.402-0.671,4.809
		c-5.161,4.184-10.374,8.311-15.695,12.285c-1.335,0.998-2.121,2.027-2.35,3.605c-1.525,10.529-3.067,21.056-4.584,31.586
		c-0.287,1.991-1.915,3.406-3.91,3.295c-1.841-0.104-3.25-1.424-3.08-3.48c0.391-4.736,1.01-9.455,1.594-14.174
		c0.307-2.475,0.874-4.922,1.06-7.402c0.128-1.703-0.098-3.455-0.349-5.158c-0.231-1.572-1.268-1.867-2.691-1.322
		c-7.529,2.883-15.225,4.843-23.374,5.057c-1.498,0.039-3.107,1.855-4.388,3.13c-5.839,5.81-11.441,11.864-17.404,17.542
		c-3.979,3.789-8.814,6.121-14.548,5.855c-0.746-0.034-1.678,0.014-2.184-0.396c-0.979-0.791-2.189-1.773-2.439-2.874
		c-0.373-1.636,1.029-2.681,2.559-2.888c9.036-1.222,14.619-7.737,20.712-13.438c2.149-2.011,4.026-4.31,6.063-6.442
		c1.287-1.347,1.122-2.184-0.603-3.041c-3.239-1.61-6.083-3.795-7.525-7.239c-2.104-5.025-0.159-10.922,4.695-14.374
		c7.278-5.176,15.308-5.659,23.579-3.203c2.311,0.686,3.55,0.299,4.932-1.543c7.577-10.102,15.252-20.129,22.891-30.184
		c0.274-0.36,0.504-0.756,0.785-1.111c1.231-1.564,2.731-2.439,4.735-1.558c1.933,0.852,2.25,2.532,1.942,4.381
		c-0.608,3.647-1.293,7.282-1.931,10.925c-1.419,8.104-2.831,16.209-4.231,24.316c-0.06,0.349,0.023,0.722,0.039,1.084
		C-423.611,662.581-423.419,662.738-423.227,662.896z M-427.942,641.609c-0.769,0.344-1.039,0.378-1.16,0.53
		c-4.518,5.682-9.022,11.373-13.527,17.064c-0.822,1.039-0.144,1.527,0.655,2.164c2.243,1.788,4.386,3.7,6.604,5.521
		c0.713,0.586,1.533,1.041,2.305,1.555c0.384-0.866,0.96-1.699,1.121-2.604c1.164-6.55,2.25-13.113,3.347-19.675
		C-428.367,644.782-428.196,643.39-427.942,641.609z M-461.506,661.583c-4.421,0.283-8.426,0.928-11.584,3.913
		c-1.881,1.778-2.343,3.873-1.198,5.69c1.671,2.65,4.349,3.871,7.271,4.539c0.501,0.115,1.336-0.33,1.728-0.771
		c3.047-3.44,6.036-6.932,9.012-10.434c0.996-1.171,0.538-1.955-0.844-2.229C-458.671,661.983-460.24,661.783-461.506,661.583z
		 M-455.942,675.253c0.453,0.353,0.591,0.537,0.677,0.516c4.35-1.078,8.702-2.151,13.02-3.348c0.179-0.049,0.323-1.572-0.01-1.885
		c-1.417-1.331-2.975-2.529-4.581-3.629c-0.439-0.3-1.536-0.369-1.809-0.068C-451.14,669.579-453.52,672.427-455.942,675.253z"/>
	<path fill-rule="evenodd" clip-rule="evenodd" fill="#FFFFFF" d="M-309.788,669.274c-3.426-0.02-4.618-0.717-4.845-2.834
		c-0.312-2.915,2.201-6.387,5.124-6.856c1.25-0.201,2.578-0.169,3.838,0.001c1.901,0.257,3.083,2.064,2.808,3.996
		C-303.383,667.239-305.886,669.298-309.788,669.274z"/>
	<path fill-rule="evenodd" clip-rule="evenodd" fill="#FFFFFF" d="M-205.999,669.271c-1.63-0.138-3.834,0.135-4.274-2.585
		c-0.476-2.935,1.656-6.323,4.553-6.978c1.365-0.308,2.874-0.303,4.265-0.092c1.658,0.251,2.584,1.412,2.689,3.168
		C-198.532,666.673-201.345,669.322-205.999,669.271z"/>
</g>
<g>
	<path fill="#484848" d="M546.798-67.457l-22.801-51.774l77.832-34.267l22.797,51.77L587.13-84.381l1.482,5.674l44.399-19.335
		c4.554-2.004,6.624-7.325,4.624-11.87l-20.98-47.648c-2.008-4.561-7.324-6.62-11.881-4.613l-96.746,42.597
		c-4.551,2.004-6.619,7.315-4.613,11.877l20.979,47.648c2.001,4.543,7.32,6.613,11.874,4.606l36.328-15.997l-2.719-6.178
		L546.798-67.457z M630.081-113.078c0.512,1.167-0.018,2.518-1.187,3.029c-1.163,0.515-2.521-0.004-3.032-1.172
		c-0.514-1.167,0.016-2.523,1.18-3.036C628.21-114.771,629.565-114.243,630.081-113.078z M616.323-142.165l9.727,22.094
		l-2.416,1.063l-9.729-22.093L616.323-142.165z M527.126-77.691l-8.861-20.124l6.186-2.724l8.863,20.125L527.126-77.691z"/>
	
		<rect x="532.37" y="-138.481" transform="matrix(0.9098 -0.415 0.415 0.9098 97.5049 228.5113)" fill="#F9FAFC" width="84.268" height="56.802"/>
	<path fill="#E9515A" d="M606.192-125.911L574.06-111.76l2.447,5.557l-15.654,0.256l20.346,10.4l13.867,31.498l32.134-14.149
		L606.192-125.911z M597.347-69.902l-12.08-27.438l-0.637-1.45l-1.406-0.715l-4.463-2.276l4.52-0.073l-2.706-6.146l-0.658-1.494
		l23.989-10.559l17.432,39.588L597.347-69.902z"/>
	<g>
		<g>
			
				<rect x="439.869" y="10.175" transform="matrix(-0.9087 -0.4175 0.4175 -0.9087 884.1102 293.1421)" fill="#FAA41A" width="68.487" height="79.424"/>
		</g>
		
			<rect x="403.636" y="-173.515" transform="matrix(0.9921 0.1251 -0.1251 0.9921 -17.056 -55.2583)" fill="#D76764" width="55.806" height="20.11"/>
		<path fill="#47A2D8" d="M540.953-74.77c4.759,0,13.604-45.395,24.673-32.275c7.019,8.318-9.793,28.337-6.934,28.337
			c5.76,0,28.438-5.674,28.438-5.674c4.371,6.883,6.896,15.028,6.896,23.755c0,24.717-28.055,44.755-53.073,44.755V-74.77z"/>
		<path fill="#D1DE47" d="M459.74,29.53c-3.369,27.135-30.717,46.075-61.083,42.304l-1.719-0.211
			c-30.366-3.772-52.251-28.826-48.881-55.961l16.907-136.139c3.371-27.135,30.716-46.076,61.082-42.304l1.72,0.213
			c30.366,3.771,52.25,28.824,48.882,55.959L459.74,29.53z"/>
		<g>
			<g>
				
					<rect x="340.787" y="50.193" transform="matrix(0.1115 0.9938 -0.9938 0.1115 444.6449 -317.501)" fill="#FAA41A" width="118.176" height="79.421"/>
			</g>
			<path fill="#FAA41A" d="M433.181,30.6c2.426,21.621-13.329,41.135-35.19,43.588c-21.858,2.451-41.544-13.084-43.967-34.708
				C351.6,17.862,367.354-1.65,389.208-4.104C411.071-6.552,430.758,8.984,433.181,30.6z"/>
		</g>
		<g>
			
				<rect x="455.444" y="93.548" transform="matrix(0.133 0.9911 -0.9911 0.133 582.5768 -399.4482)" fill="#FAA41A" width="128.315" height="79.424"/>
		</g>
		<g>
			<polygon fill="#FAA41A" points="278.314,144.211 388.608,101.772 417.127,175.899 306.831,218.331 			"/>
		</g>
		<path fill="#47A2D6" d="M290.983,138.78l28.076,75.912l-47.834,17.677c9.359,22.876-23.917,57.193-23.917,57.193l-40.554-115.426
			L290.983,138.78z"/>
		<path fill="#47A2D6" d="M485.021,178.273l80.32-9.965l6.265,50.607c24.413-3.876,50.207,36.367,50.207,36.367l-121.644,13.074
			L485.021,178.273z"/>
		<g>
			<g>
				<defs>
					<circle id="SVGID_1_" cx="437.493" cy="-217.688" r="59.217"/>
				</defs>
				<clipPath id="SVGID_2_">
					<use xlink:href="#SVGID_1_"  overflow="visible"/>
				</clipPath>
				<circle clip-path="url(#SVGID_2_)" fill="#FAA41A" cx="437.493" cy="-217.688" r="59.217"/>
				<circle clip-path="url(#SVGID_2_)" fill="#47A2D8" cx="479.087" cy="-213.529" r="41.594"/>
			</g>
		</g>
		
			<rect x="305.541" y="-182.174" transform="matrix(0.9925 0.1223 -0.1223 0.9925 -10.1023 -41.7027)" fill="#FAA41A" width="58.231" height="158.059"/>
		
			<rect x="305.742" y="-25.166" transform="matrix(0.9925 0.1223 -0.1223 0.9925 0.494 -39.793)" fill="#DBDCDA" width="37.471" height="18.588"/>
		<path fill="#DBDCDA" d="M362.377,111.866l83.545,27.231c0,0,8.361,18.844-30.845,40.1L362.377,111.866z"/>
		<path fill="#DBDCDA" d="M474.114,94.338l46.528-67.772c0,0,21.449-3.174,31.505,39.288L474.114,94.338z"/>
		<rect x="422.971" y="-74.77" fill="#FAA41A" width="115.784" height="58.898"/>
		<g>
			<g>
				<rect x="398.308" y="-127.061" fill="#FAA41A" width="58.898" height="87.64"/>
			</g>
			<path fill="#FAA41A" d="M457.206-124.195c0,16.136-13.224,29.214-29.535,29.214c-16.313,0-29.538-13.079-29.538-29.214
				c0-16.132,13.224-29.21,29.538-29.21C443.982-153.406,457.206-140.327,457.206-124.195z"/>
		</g>
		<path fill="#DBDCDA" d="M457.206-78.708l-24.814,62.546c0,0-17.561,6.939-33.97-25.005L457.206-78.708z"/>
		<path fill="#47A2D8" d="M541.071-15.526"/>
	</g>
</g>
<g>
	<path fill="#484848" d="M539.909,688.833l-5.48-12.447l18.712-8.239l5.48,12.446l-9.015,4.171l0.356,1.364l10.675-4.648
		c1.095-0.482,1.592-1.762,1.111-2.854l-5.044-11.456c-0.483-1.097-1.761-1.591-2.856-1.108l-23.26,10.24
		c-1.094,0.482-1.592,1.759-1.108,2.855l5.044,11.455c0.48,1.093,1.76,1.59,2.854,1.107l8.734-3.846l-0.654-1.484L539.909,688.833z
		 M559.933,677.864c0.123,0.28-0.004,0.605-0.285,0.729c-0.279,0.123-0.605-0.002-0.729-0.281c-0.124-0.281,0.003-0.607,0.283-0.73
		C559.483,677.458,559.809,677.585,559.933,677.864z M556.625,670.872l2.339,5.311l-0.581,0.256l-2.339-5.311L556.625,670.872z
		 M535.181,686.372l-2.131-4.838l1.488-0.655l2.13,4.839L535.181,686.372z"/>
	
		<rect x="536.441" y="671.757" transform="matrix(0.9098 -0.415 0.415 0.9098 -232.332 288.0371)" fill="#F9FAFC" width="20.26" height="13.656"/>
	<path fill="#E9515A" d="M554.189,674.779l-7.726,3.401l0.589,1.336l-3.764,0.062l4.892,2.5l3.334,7.572l7.725-3.401
		L554.189,674.779z M552.063,688.244l-2.904-6.597l-0.154-0.348l-0.338-0.172l-1.072-0.548l1.086-0.018l-0.65-1.478l-0.158-0.359
		l5.768-2.539l4.191,9.518L552.063,688.244z"/>
	<g>
		<g>
			
				<rect x="514.202" y="707.497" transform="matrix(-0.9087 -0.4175 0.4175 -0.9087 697.834 1586.7141)" fill="#F9FAFC" width="16.466" height="19.095"/>
		</g>
		
			<rect x="505.492" y="663.335" transform="matrix(0.9922 0.125 -0.125 0.9922 87.2706 -58.8235)" fill="#D76764" width="13.417" height="4.835"/>
		<path fill="#47A2D8" d="M538.505,687.074c1.145,0,3.271-10.913,5.932-7.759c1.688,2-2.354,6.812-1.666,6.812
			c1.385,0,6.836-1.364,6.836-1.364c1.051,1.655,1.658,3.612,1.658,5.711c0,5.942-6.745,10.76-12.76,10.76V687.074z"/>
		<path fill="#D1DE47" d="M518.979,712.149c-0.81,6.523-7.385,11.078-14.685,10.171l-0.413-0.052
			c-7.301-0.906-12.562-6.93-11.752-13.453l4.064-32.73c0.811-6.523,7.385-11.077,14.686-10.17l0.413,0.051
			c7.3,0.906,12.562,6.93,11.752,13.453L518.979,712.149z"/>
		<g>
			<g>
				
					<rect x="490.382" y="717.118" transform="matrix(0.1115 0.9938 -0.9938 0.1115 1170.4775 144.2213)" fill="#F9FAFC" width="28.411" height="19.094"/>
			</g>
			
				<ellipse transform="matrix(0.9938 -0.1115 0.1115 0.9938 -76.3973 60.5262)" fill="#F9FAFC" cx="503.079" cy="713.475" rx="9.575" ry="9.47"/>
		</g>
		<g>
			
				<rect x="517.947" y="727.541" transform="matrix(0.133 0.9911 -0.9911 0.133 1193.0034 110.4543)" fill="#F9FAFC" width="30.85" height="19.094"/>
		</g>
		<g>
			
				<rect x="477.843" y="733.982" transform="matrix(-0.9333 0.3591 -0.3591 -0.9333 1218.254 1260.8047)" fill="#F9FAFC" width="28.411" height="19.094"/>
		</g>
		<path fill="#47A2D6" d="M478.408,738.415l6.75,18.25l-11.5,4.25c2.25,5.5-5.75,13.75-5.75,13.75l-9.75-27.75L478.408,738.415z"/>
		<path fill="#47A2D6" d="M525.058,747.909l19.311-2.395l1.506,12.166c5.869-0.932,12.07,8.744,12.07,8.744l-29.244,3.143
			L525.058,747.909z"/>
		<g>
			<g>
				<defs>
					<circle id="SVGID_3_" cx="513.632" cy="652.714" r="14.236"/>
				</defs>
				<clipPath id="SVGID_4_">
					<use xlink:href="#SVGID_3_"  overflow="visible"/>
				</clipPath>
				<circle clip-path="url(#SVGID_4_)" fill="#FBFDFF" cx="513.632" cy="652.714" r="14.236"/>
				<circle clip-path="url(#SVGID_4_)" fill="#47A2D8" cx="523.632" cy="653.715" r="10"/>
			</g>
		</g>
		
			<rect x="481.908" y="661.252" transform="matrix(0.9925 0.1223 -0.1223 0.9925 86.8525 -54.6801)" fill="#FFFFFF" width="14" height="38"/>
		
			<rect x="481.957" y="699" transform="matrix(0.9925 0.1223 -0.1223 0.9925 89.4026 -54.2248)" fill="#DBDCDA" width="9.008" height="4.469"/>
		<path fill="#DBDCDA" d="M495.573,731.944l20.085,6.547c0,0,2.011,4.531-7.415,9.641L495.573,731.944z"/>
		<path fill="#DBDCDA" d="M522.437,727.73l11.186-16.294c0,0,5.156-0.763,7.574,9.445L522.437,727.73z"/>
		<rect x="510.14" y="687.074" fill="#F9FAFC" width="27.837" height="14.16"/>
		<g>
			<g>
				<rect x="504.211" y="674.503" fill="#F9FAFC" width="14.16" height="21.07"/>
			</g>
			<ellipse fill="#F9FAFC" cx="511.27" cy="675.192" rx="7.101" ry="7.023"/>
		</g>
		<path fill="#B0AFB4" d="M518.371,686.128l-5.966,15.037c0,0-4.223,1.668-8.167-6.012L518.371,686.128z"/>
		<path fill="#47A2D8" d="M538.533,701.317"/>
	</g>
</g>
<g>
	<g>
		<g>
			<g>
				<path fill="#F8BA47" d="M1023.779-164.381c0-35.601-29.056-64.453-64.902-64.453c-35.845,0-64.902,28.853-64.902,64.453
					c0,35.595,29.058,64.453,64.902,64.453C994.724-99.928,1023.779-128.787,1023.779-164.381z"/>
				<g>
					<g>
						<path fill="#FDC99B" d="M904.682-159.882c0-33.132,26.858-59.991,59.992-59.991c27.751,0,51.088,18.847,57.944,44.44
							l-8.178,1.385c-2.093,0.36-3.497,2.342-3.14,4.433c0.354,2.085,2.336,3.491,4.429,3.138l8.387-1.422
							c0.352,2.622,0.553,5.296,0.553,8.018c0,0.012-0.005,0.024-0.005,0.037c-1.095-0.734-2.42-1.16-3.843-1.107
							c-3.585,0.129-6.388,3.141-6.259,6.732c0.131,3.587,3.145,6.389,6.73,6.257c0.799-0.03,1.555-0.219,2.256-0.512
							c-4.447,23.053-22.053,41.408-44.721,46.893v11.787c0.025,0.351,0.055,0.703,0.055,1.065c0,7.847-6.36,14.203-14.209,14.203
							c-7.846,0-14.203-6.356-14.203-14.203c0-0.362,0.025-0.715,0.057-1.065v-11.787
							C924.22-107.947,904.682-131.625,904.682-159.882z"/>
						<path fill="#6EC5A6" d="M886.685-88.889h155.979c13.809,0,24.997,11.192,24.997,24.998c0,13.803-11.188,24.999-24.997,24.999
							h-10.703v66.648H897.387v-66.648h-10.702c-13.802,0-24.999-11.196-24.999-24.999
							C861.686-77.697,872.883-88.889,886.685-88.889z"/>
						<rect x="897.387" y="46.588" fill="#6D868A" width="134.574" height="90.988"/>
						<g>
							<g>
								<path fill="#4F82C3" d="M971.73,257.711V123.565c0-16.48,13.36-29.838,29.84-29.838c16.481,0,29.838,13.358,29.838,29.838
									v134.146H971.73z"/>
								<path fill="#4F82C3" d="M896.838,257.711V123.565c0-16.48,13.361-29.838,29.84-29.838c16.479,0,29.841,13.358,29.841,29.838
									v134.146H896.838z"/>
							</g>
							<path fill="#AECB39" d="M889.232,276.042c0-20.982,17.012-37.996,37.997-37.996c20.989,0,37.997,17.014,37.997,37.996
								H889.232z"/>
							<path fill="#AECB39" d="M964.125,276.042c0-20.982,17.012-37.996,37.996-37.996s37.994,17.014,37.994,37.996H964.125z"/>
						</g>
						<rect x="897.387" y="27.756" fill="#6EC5A6" width="134.574" height="109.819"/>
						<path fill="#6EC5A6" d="M1074.455,3.825c7.234,9.418,20.729,11.184,30.142,3.947l0,0c9.415-7.23,11.185-20.729,3.95-30.145
							l-42.444-55.231c-7.233-9.415-20.726-11.186-30.143-3.95l0,0c-9.415,7.231-11.181,20.729-3.945,30.145L1074.455,3.825z"/>
						<path fill="#6EC5A6" d="M903.857-58.421c4.951-10.794,0.221-23.552-10.573-28.503l0,0
							c-10.791-4.949-23.556-0.216-28.504,10.581l-29.033,63.316c-4.955,10.789-0.22,23.549,10.575,28.498l0,0
							c10.794,4.95,23.551,0.213,28.506-10.578L903.857-58.421z"/>
						<path fill="#6EC5A6" d="M1093.189-29.129c-11.871-0.243-21.689,9.185-21.934,21.057l0,0
							c-0.241,11.868,9.186,21.687,21.059,21.928l69.643,1.42c11.869,0.241,21.688-9.182,21.93-21.062l0,0
							c0.242-11.863-9.186-21.682-21.055-21.925L1093.189-29.129z"/>
						<path fill="#FDC99B" d="M1154.197-5.529c0-12.682,10.283-22.961,22.965-22.961c12.679,0,22.96,10.279,22.96,22.961
							c0,12.681-10.281,22.958-22.96,22.958C1164.48,17.429,1154.197,7.152,1154.197-5.529z"/>
						<path fill="#F8BA47" d="M958.933-167.575c0.356,2.088,2.334,3.494,4.43,3.139l19.164-3.255
							c2.089-0.357,3.494-2.339,3.142-4.428l0,0c-0.355-2.09-2.342-3.495-4.428-3.14l-19.162,3.255
							C959.98-171.645,958.577-169.666,958.933-167.575L958.933-167.575z"/>
						<path fill="#3C5FAB" d="M972.303-154.221c-0.128-3.591,2.676-6.603,6.262-6.732c3.588-0.129,6.602,2.672,6.73,6.26
							c0.124,3.591-2.676,6.603-6.262,6.729C975.444-147.832,972.434-150.633,972.303-154.221z"/>
						<path fill="#F8BA47" d="M1011.301-169.616c-0.357-2.091,1.047-4.072,3.14-4.433l8.178-1.385
							c0.655,2.451,1.155,4.963,1.498,7.534l-8.387,1.422C1013.637-166.125,1011.655-167.53,1011.301-169.616z"/>
						<path fill="#3C5FAB" d="M1014.562-154.221c-0.129-3.591,2.674-6.603,6.259-6.732c1.423-0.052,2.748,0.373,3.843,1.107
							c0,3.891-0.406,7.683-1.115,11.37c-0.701,0.293-1.457,0.482-2.256,0.512C1017.707-147.832,1014.693-150.633,1014.562-154.221z
							"/>
						<path fill="#F4A78E" d="M999.16-133.88c0.077,2.119,1.853,3.77,3.968,3.695l0,0c2.118-0.078,3.767-1.855,3.688-3.971
							l-0.604-16.815c-0.078-2.121-1.854-3.771-3.97-3.695l0,0c-2.114,0.077-3.768,1.854-3.69,3.968L999.16-133.88z"/>
						<g>
							<path fill="#3D2E1F" d="M887.078-223.297l9.032,8.05c1.058,0.941,2.679,0.847,3.618-0.211c0.94-1.056,0.849-2.677-0.209-3.62
								l-9.031-8.048c-1.058-0.941-2.68-0.846-3.623,0.209C885.928-225.861,886.018-224.236,887.078-223.297z"/>
						</g>
						<g>
							<path fill="#3D2E1F" d="M900.604-232.251l4.931,11.042c0.58,1.296,2.095,1.875,3.389,1.299
								c1.291-0.576,1.871-2.091,1.295-3.387l-4.935-11.048c-0.58-1.293-2.095-1.872-3.387-1.293
								C900.604-235.06,900.023-233.545,900.604-232.251z"/>
						</g>
						<path fill="#6EC5A6" d="M924.838,19.818c11.876,0.055,21.544-9.528,21.594-21.396l0,0c0.053-11.875-9.527-21.541-21.4-21.596
							l-69.656-0.306c-11.873-0.054-21.541,9.525-21.595,21.396l0,0c-0.051,11.877,9.53,21.539,21.401,21.596L924.838,19.818z"/>
					</g>
					<g>
						<defs>
							<path id="SVGID_5_" d="M904.682-159.103c0-33.132,26.858-59.994,59.992-59.994c27.751,0,51.088,18.849,57.944,44.439
								l-8.178,1.391c-2.093,0.357-3.497,2.339-3.14,4.427c0.354,2.085,2.336,3.494,4.429,3.138l8.387-1.425
								c0.352,2.625,0.553,5.302,0.553,8.023c0,0.015-0.005,0.022-0.005,0.038c-1.095-0.738-2.42-1.163-3.843-1.11
								c-3.585,0.129-6.388,3.141-6.259,6.731c0.131,3.585,3.145,6.389,6.73,6.257c0.799-0.027,1.555-0.218,2.256-0.511
								c-4.447,23.053-22.053,41.407-44.721,46.893v11.787c0.025,0.353,0.055,0.703,0.055,1.065c0,7.844-6.36,14.206-14.209,14.206
								c-7.846,0-14.203-6.362-14.203-14.206c0-0.362,0.025-0.713,0.057-1.065v-11.787
								C924.22-107.167,904.682-130.848,904.682-159.103z"/>
						</defs>
						<clipPath id="SVGID_6_">
							<use xlink:href="#SVGID_5_"  overflow="visible"/>
						</clipPath>
						<path clip-path="url(#SVGID_6_)" fill="#ED1A3B" d="M1001.154-112.284c-4.75,0.503-10.747-4.006-11.254-8.753
							c-0.113-1.098-1.1-1.893-2.201-1.776c-1.097,0.117-1.893,1.095-1.773,2.195c0.739,6.945,6.987,11.994,13.933,11.258"/>
					</g>
				</g>
				<path fill="#F8BA47" d="M902.174-169.343c0-5.721-4.636-10.357-10.352-10.357c-5.721,0-10.354,4.636-10.354,10.357
					c0,5.718,4.634,10.352,10.354,10.352C897.538-158.991,902.174-163.625,902.174-169.343z"/>
				<circle fill="#F8BA47" cx="874.497" cy="-158.269" r="10.353"/>
				<circle fill="#F8BA47" cx="867.307" cy="-139.489" r="10.354"/>
				<circle fill="#F8BA47" cx="861.287" cy="-119.726" r="10.353"/>
				<polygon fill="#F8BA47" points="861.288,-112.883 867.147,-102.737 873.004,-92.591 861.288,-92.591 849.574,-92.591 
					855.432,-102.737 				"/>
				<path fill="#F8BA47" d="M961.076-211.845c0-5.076,2.251-9.62,5.797-12.719c-0.037,0-0.075-0.002-0.111-0.002
					c-9.332,0-16.896,7.561-16.896,16.895c0,9.331,7.564,16.895,16.896,16.895c4.25,0,8.127-1.582,11.097-4.176
					C968.579-195.018,961.076-202.552,961.076-211.845z"/>
			</g>
			<path fill="#484848" d="M1006.973-69.702l-0.682-0.004v-0.335c0.001-0.157-0.15-0.284-0.34-0.284l-7.682-0.047
				c-0.189,0-0.344,0.126-0.344,0.283l-0.002,0.333l-26.318-0.151c-4.121-0.025-7.48,2.731-7.499,6.155l-0.036,5.726h-0.381
				c-0.189,0-0.342,0.127-0.346,0.283l-0.021,3.57c-0.002,0.157,0.154,0.286,0.342,0.286l0.383,0.002l-0.022,3.35l-0.377-0.002
				c-0.19-0.002-0.345,0.124-0.349,0.283l-0.021,3.566c0,0.159,0.155,0.286,0.343,0.291h0.385l-0.021,3.263l-0.382-0.003
				c-0.191,0-0.344,0.127-0.344,0.283l-0.022,3.568c-0.004,0.159,0.152,0.285,0.342,0.285l0.383,0.005l-0.301,51.495
				c-0.024,3.426,3.305,6.22,7.428,6.245l35.365,0.206c4.127,0.025,7.481-2.731,7.503-6.155l0.446-76.253
				C1014.424-66.884,1011.097-69.68,1006.973-69.702z"/>
		</g>
		<path fill="#FDC99B" d="M932.853-0.697c0-12.684,10.282-22.964,22.964-22.964c12.681,0,22.961,10.28,22.961,22.964
			c0,12.678-10.28,22.958-22.961,22.958C943.135,22.261,932.853,11.981,932.853-0.697z"/>
	</g>
	<g>
		<g>
			<g>
				<path fill="#E7866B" d="M1464.494-160.367c0-33.132-26.859-59.994-59.994-59.994c-27.75,0-51.089,18.846-57.944,44.44
					l8.179,1.388c2.092,0.358,3.496,2.342,3.139,4.433c-0.354,2.083-2.334,3.491-4.428,3.139l-8.387-1.425
					c-0.354,2.623-0.555,5.298-0.555,8.02c0,0.012,0.005,0.025,0.005,0.035c1.097-0.732,2.421-1.158,3.845-1.105
					c3.582,0.127,6.387,3.139,6.258,6.732c-0.13,3.585-3.145,6.389-6.73,6.257c-0.797-0.03-1.555-0.221-2.255-0.514
					c4.444,23.052,22.053,41.41,44.721,46.893v11.787c-0.024,0.353-0.056,0.705-0.056,1.065c0,7.847,6.36,14.206,14.209,14.206
					c7.847,0,14.203-6.359,14.203-14.206c0-0.36-0.023-0.713-0.057-1.065v-11.787
					C1444.955-108.433,1464.494-132.109,1464.494-160.367z"/>
				<path fill="#6D868A" d="M1482.488-89.373H1326.51c-13.809,0-24.997,11.188-24.997,24.997c0,13.804,11.188,24.997,24.997,24.997
					h10.704v66.65h134.574v-66.65h10.7c13.805,0,25-11.193,25-24.997C1507.488-78.184,1496.293-89.373,1482.488-89.373z"/>
				<rect x="1337.214" y="46.101" fill="#6D868A" width="134.574" height="90.99"/>
				<g>
					<g>
						<path fill="#6A72AC" d="M1397.443,257.225V123.08c0-16.479-13.361-29.84-29.84-29.84c-16.482,0-29.836,13.361-29.836,29.84
							v134.146H1397.443z"/>
						<path fill="#6A72AC" d="M1472.338,257.225V123.08c0-16.479-13.364-29.84-29.842-29.84c-16.48,0-29.84,13.361-29.84,29.84
							v134.146H1472.338z"/>
					</g>
					<path fill="#3D2E1F" d="M1479.941,275.555c0-20.98-17.009-37.996-37.996-37.996s-37.998,17.016-37.998,37.996H1479.941z"/>
					<path fill="#3D2E1F" d="M1405.049,275.555c0-20.98-17.01-37.996-37.996-37.996c-20.982,0-37.993,17.016-37.993,37.996H1405.049
						z"/>
				</g>
				<rect x="1337.214" y="27.272" fill="#6D868A" width="134.574" height="109.819"/>
				<path fill="#6D868A" d="M1294.721,3.337c-7.235,9.419-20.729,11.184-30.145,3.948l0,0c-9.414-7.229-11.184-20.727-3.949-30.143
					l42.445-55.232c7.232-9.416,20.726-11.185,30.143-3.951l0,0c9.415,7.23,11.182,20.729,3.947,30.147L1294.721,3.337z"/>
				<path fill="#6D868A" d="M1465.316-58.906c-4.952-10.796-0.219-23.554,10.575-28.505l0,0
					c10.788-4.949,23.556-0.214,28.503,10.581l29.034,63.315c4.954,10.789,0.217,23.55-10.577,28.501l0,0
					c-10.791,4.946-23.551,0.211-28.505-10.578L1465.316-58.906z"/>
				<path fill="#6D868A" d="M1275.986-29.615c11.869-0.241,21.688,9.185,21.93,21.056l0,0c0.244,11.87-9.184,21.69-21.055,21.931
					l-69.645,1.42c-11.869,0.241-21.689-9.185-21.93-21.061l0,0c-0.24-11.867,9.186-21.683,21.053-21.929L1275.986-29.615z"/>
				<circle fill="#E7866B" cx="1192.015" cy="-6.016" r="22.962"/>
				<path fill="#010101" d="M1410.244-168.062c-0.357,2.088-2.338,3.494-4.432,3.139l-19.166-3.255
					c-2.088-0.358-3.493-2.336-3.141-4.425l0,0c0.355-2.093,2.342-3.496,4.43-3.144l19.162,3.258
					C1409.193-172.131,1410.598-170.15,1410.244-168.062L1410.244-168.062z"/>
				<path d="M1396.872-154.705c0.128-3.593-2.675-6.605-6.263-6.732c-3.588-0.132-6.602,2.669-6.73,6.26
					c-0.123,3.588,2.676,6.601,6.263,6.729C1393.729-148.316,1396.74-151.12,1396.872-154.705z"/>
				<path fill="#010101" d="M1357.873-170.1c0.357-2.091-1.047-4.075-3.139-4.433l-8.179-1.388c-0.656,2.45-1.155,4.966-1.497,7.534
					l8.387,1.425C1355.539-166.609,1357.52-168.017,1357.873-170.1z"/>
				<path d="M1354.611-154.705c0.129-3.593-2.676-6.605-6.258-6.732c-1.424-0.052-2.748,0.373-3.845,1.105
					c0.003,3.893,0.407,7.685,1.117,11.37c0.7,0.292,1.458,0.484,2.255,0.514C1351.467-148.316,1354.481-151.12,1354.611-154.705z"
					/>
				<path fill="#E26460" d="M1370.014-134.364c-0.077,2.115-1.853,3.77-3.967,3.692l0,0c-2.12-0.077-3.767-1.853-3.689-3.968
					l0.604-16.818c0.079-2.118,1.854-3.769,3.97-3.694l0,0c2.115,0.077,3.768,1.857,3.689,3.97L1370.014-134.364z"/>
				<path fill="#6D868A" d="M1444.336,19.332c-11.876,0.057-21.541-9.528-21.594-21.395l0,0c-0.052-11.876,9.527-21.541,21.4-21.595
					l69.656-0.309c11.875-0.055,21.543,9.525,21.596,21.397l0,0c0.051,11.876-9.531,21.541-21.402,21.598L1444.336,19.332z"/>
				<circle fill="#FDC99B" cx="1438.316" cy="-1.184" r="22.963"/>
			</g>
			<g>
				<defs>
					<path id="SVGID_7_" d="M1464.494-159.586c0-33.133-26.859-59.997-59.994-59.997c-27.75,0-51.089,18.852-57.944,44.44
						l8.179,1.39c2.092,0.358,3.496,2.339,3.139,4.427c-0.354,2.088-2.334,3.494-4.428,3.141l-8.387-1.425
						c-0.354,2.625-0.555,5.299-0.555,8.023c0,0.012,0.005,0.021,0.005,0.034c1.097-0.737,2.421-1.159,3.845-1.11
						c3.582,0.132,6.387,3.144,6.258,6.734c-0.13,3.583-3.145,6.39-6.73,6.258c-0.797-0.027-1.555-0.219-2.255-0.512
						c4.444,23.051,22.053,41.408,44.721,46.89v11.79c-0.024,0.352-0.056,0.703-0.056,1.065c0,7.844,6.36,14.203,14.209,14.203
						c7.847,0,14.203-6.359,14.203-14.203c0-0.362-0.023-0.713-0.057-1.065v-11.79
						C1444.955-107.654,1464.494-131.334,1464.494-159.586z"/>
				</defs>
				<clipPath id="SVGID_8_">
					<use xlink:href="#SVGID_7_"  overflow="visible"/>
				</clipPath>
				<path clip-path="url(#SVGID_8_)" fill="#ED1A3B" d="M1369.315-109.843c-6.943-0.742-11.996-6.99-11.257-13.938
					c0.119-1.098,1.105-1.895,2.201-1.775c1.105,0.114,1.896,1.1,1.776,2.2c-0.5,4.75,2.952,9.028,7.704,9.535
					c4.75,0.506,9.028-2.955,9.533-7.703c0.113-1.098,1.099-1.892,2.201-1.775c1.098,0.117,1.893,1.098,1.773,2.197
					C1382.509-114.156,1376.262-109.108,1369.315-109.843z"/>
			</g>
		</g>
		<path fill="#FFFFFF" d="M1440.893-69.461l-0.678-0.002v-0.333c0.001-0.156-0.153-0.285-0.342-0.285l-7.682-0.045
			c-0.189,0-0.343,0.124-0.343,0.28l-0.003,0.333l-26.316-0.151c-4.125-0.024-7.48,2.731-7.501,6.155l-0.036,5.729h-0.381
			c-0.188-0.003-0.343,0.124-0.347,0.281l-0.02,3.571c0,0.156,0.153,0.285,0.343,0.288h0.381l-0.021,3.35l-0.377-0.002
			c-0.191-0.003-0.347,0.124-0.351,0.283l-0.021,3.568c0,0.156,0.154,0.285,0.344,0.285h0.385l-0.022,3.265l-0.38-0.002
			c-0.191,0-0.346,0.127-0.346,0.283l-0.021,3.568c-0.002,0.159,0.15,0.285,0.342,0.285l0.383,0.005l-0.302,51.497
			c-0.023,3.421,3.307,6.218,7.429,6.242l35.365,0.206c4.125,0.025,7.484-2.73,7.502-6.155l0.447-76.25
			C1448.344-66.638,1445.019-69.434,1440.893-69.461z"/>
		<path fill="#E7866B" d="M1461.279-0.697c0-12.684-10.283-22.964-22.963-22.964c-12.683,0-22.963,10.28-22.963,22.964
			c0,12.678,10.28,22.958,22.963,22.958C1450.996,22.261,1461.279,11.981,1461.279-0.697z"/>
		<g>
			<g>
				<path fill="#3D2E1F" d="M1489.781-236.805c-0.938-1.059-0.847-2.677,0.211-3.62l9.029-8.048c1.06-0.944,2.682-0.85,3.625,0.211
					c0.938,1.056,0.848,2.676-0.211,3.618"/>
			</g>
			<g>
				<path fill="#3D2E1F" d="M1487.615-256.986c1.293,0.579,1.873,2.094,1.293,3.387l-4.93,11.043
					c-0.58,1.296-2.096,1.875-3.389,1.299c-1.291-0.579-1.873-2.094-1.297-3.39"/>
			</g>
			<path fill="#010101" d="M1466.767-148.659c3.044,2.443,5.628,3.161,9.246,2.587c2.695-0.437,7.937-1.833,6.896-4.76
				c6.6,1.592,12.893-3.305,15.999-7.233c2.47-3.116,7.573-12.904,2.263-16.619c3.994-5.165,4.286-19.895-5.401-23.008
				c8.938-4.75-10.88-25.906-13.565-23.45c5.391,0.191,4.973-9.334-4.412-16.305c-7.541-5.602-11.912-5.455-15.969-4.02
				c2.836-6.216-25.49-15.333-24.319-9.877c-1.904-8.781-24.71-6.178-26.995,0.094c-1.688-0.472-4.115-1.996-5.744-2.351
				c-3.57-0.768-6.91-0.762-9.637,0.514c-4.52,2.125-8.012,6.225-6.088,11.779c-6.83-3.188-22.639,4.403-18.662,10.643
				c-10.065-5.851-19.305,6.262-14.973,13.841c-2.246,2.262-6.485,3.389-6.118,6.773c0.266,2.421,2.021,5.411,3.45,7.561
				c-2.89-0.816-2.998,3.911-1.777,5.53c1.739,2.309,4.293,3.198,6.5,3.396c5.864,0.526,11.734-4.934,13.27-9.743
				c8.018,3.992,12.047-5.178,14.051-9.324c7.309,2.938,15.331,5.83,20.791,0.106c3.491,2.503,16.141,9.682,17.576,3.472
				c1.102,5.363,13.26,15.167,19.129,15.276c-3.587-1.58,3.096,7.283,4.225,8.385c3.625,3.549,7.561,7.238,12.171,9.703
				c-6.363,1.105,4.632,12.173,7.114,14.557c-8.336-4.686-9.322,13.474-2.279,12.341L1466.767-148.659z"/>
			<path fill="#010101" d="M1462.982-137.999c3.043,2.443,5.63,3.16,9.246,2.584c2.697-0.437,7.937-1.83,6.897-4.757
				c6.597,1.589,12.891-3.308,15.997-7.233c2.471-3.118,7.572-12.905,2.262-16.619c3.995-5.165,4.288-19.895-5.4-23.011
				c8.939-4.75-10.881-25.903-13.565-23.448c5.391,0.189,4.974-9.333-4.413-16.303c-7.539-5.605-11.911-5.456-15.968-4.023
				c2.837-6.213-25.489-15.333-24.319-9.878c-1.904-8.78-24.707-6.175-26.994,0.095c-1.688-0.47-4.114-1.997-5.744-2.349
				c-3.572-0.771-6.912-0.763-9.641,0.514c-4.517,2.123-8.008,6.225-6.083,11.777c-6.831-3.188-22.64,4.403-18.663,10.643
				c-10.066-5.851-19.305,6.265-14.973,13.843c-2.248,2.262-6.486,3.39-6.115,6.774c0.264,2.418,2.018,5.407,3.445,7.561
				c-2.889-0.817-2.997,3.911-1.775,5.53c1.738,2.309,4.293,3.195,6.498,3.394c5.865,0.529,11.735-4.934,13.272-9.741
				c8.017,3.993,12.044-5.179,14.049-9.326c7.308,2.939,15.331,5.83,20.792,0.109c3.49,2.503,16.139,9.679,17.574,3.469
				c1.103,5.364,13.262,15.167,19.129,15.278c-3.584-1.579,3.098,7.28,4.225,8.384c3.625,3.548,7.561,7.24,12.172,9.706
				c-6.365,1.104,4.631,12.172,7.113,14.553c-8.335-4.686-9.321,13.475-2.279,12.343L1462.982-137.999z"/>
		</g>
	</g>
</g>
</svg>
