<?xml version="1.0" encoding="utf-8"?>
<!-- Generator: Adobe Illustrator 16.0.0, SVG Export Plug-In . SVG Version: 6.00 Build 0)  -->
<!DOCTYPE svg PUBLIC "-//W3C//DTD SVG 1.1//EN" "http://www.w3.org/Graphics/SVG/1.1/DTD/svg11.dtd">
<svg version="1.1" id="Layer_1" xmlns="http://www.w3.org/2000/svg" xmlns:xlink="http://www.w3.org/1999/xlink" x="0px" y="0px"
	 width="173.255px" height="198.531px" viewBox="199.588 0 173.255 198.531" enable-background="new 199.588 0 173.255 198.531"
	 xml:space="preserve">
<rect x="-196.398" y="275.044" fill="none" width="81" height="20"/>
<text transform="matrix(1 0 0 1 -196.3984 287.1399)" fill="#FFFFFF" font-family="'Avenir-Book'" font-size="16">#CDDC39</text>
<rect x="-196.398" y="381.044" fill="none" width="81" height="20"/>
<text transform="matrix(1 0 0 1 -196.3984 393.1399)" fill="#FFFFFF" font-family="'Avenir-Book'" font-size="16">#4972B8</text>
<rect x="-197.398" y="487.044" fill="none" width="81" height="20"/>
<text transform="matrix(1 0 0 1 -197.3984 499.1399)" fill="#FFFFFF" font-family="'Avenir-Book'" font-size="16">#00BCD4</text>
<path fill="#16200B" d="M-406.459,399.125c-0.103-0.802-0.489-1.361-1.359-1.377c-0.801-0.013-1.446,0.327-1.532,1.197
	c-0.086,0.847,0.464,1.455,1.206,1.572C-407.224,400.662-406.713,399.99-406.459,399.125z"/>
<path fill="#16200B" d="M-376.41,378.538c0.027-0.678-0.372-1.159-1.102-1.179c-0.686-0.021-1.309,0.383-1.344,1.095
	c-0.031,0.652,0.344,1.249,1.131,1.287C-376.975,379.777-376.536,379.377-376.41,378.538z"/>
<path fill="#16200B" d="M-456.661,398.069c-0.013-0.736-0.503-1.129-1.216-1.066c-0.638,0.058-1.299,0.371-1.237,1.173
	c0.054,0.688,0.481,1.197,1.246,1.173C-457.127,399.323-456.708,398.895-456.661,398.069z"/>
<path fill="#16200B" d="M-378.569,256.871c-0.716,0.02-1.299,0.306-1.329,1.07c-0.028,0.72,0.492,1.249,1.161,1.299
	c0.681,0.052,1.216-0.386,1.273-1.151C-377.405,257.323-377.745,256.867-378.569,256.871z"/>
<path fill="#16200B" d="M-440.261,448.179c-0.069-0.709-0.414-1.187-1.192-1.179c-0.704,0.006-1.268,0.263-1.274,1.089
	c-0.006,0.75,0.418,1.237,1.14,1.269C-440.867,449.387-440.475,448.858-440.261,448.179z"/>
<path fill="#16200B" d="M-244.167,277.656c1.319-0.11,1.678-0.604,1.664-1.322c-0.016-0.782-0.566-1.175-1.273-1.065
	c-0.62,0.095-1.29,0.434-1.157,1.242C-244.825,277.167-244.421,277.67-244.167,277.656z"/>
<path fill="#16200B" d="M-238.229,291.573c-0.754,0.021-1.294,0.379-1.267,1.149c0.025,0.693,0.488,1.262,1.22,1.257
	c0.711-0.005,1.21-0.506,1.246-1.238C-236.991,291.975-237.421,291.544-238.229,291.573z"/>
<path fill="#16200B" d="M-402.486,526.163c-0.128-0.774-0.645-1.083-1.354-1.001c-0.689,0.079-1.227,0.427-1.107,1.245
	c0.107,0.733,0.6,1.146,1.321,1.056C-402.934,527.377-402.515,526.906-402.486,526.163z"/>
<path fill="#16200B" d="M-498.406,340.245c-0.223-0.667-0.596-1.201-1.376-1.07c-0.68,0.112-1.229,0.497-1.113,1.307
	c0.104,0.729,0.55,1.188,1.326,1.102C-498.819,341.498-498.509,340.948-498.406,340.245z"/>
<path fill="#16200B" d="M-480.773,312.264c-0.188-0.557-0.431-1.113-1.249-1.088c-0.744,0.022-1.246,0.346-1.242,1.135
	c0.004,0.732,0.43,1.254,1.16,1.258C-481.386,313.573-481.012,313.011-480.773,312.264z"/>
<path fill="#16200B" d="M-467.851,430.638c-0.073-0.771-0.474-1.196-1.271-1.122c-0.731,0.067-1.287,0.476-1.198,1.229
	c0.076,0.649,0.496,1.256,1.288,1.197C-468.288,431.887-467.907,431.379-467.851,430.638z"/>
<path fill="#16200B" d="M-417.585,279.468c0.013-0.823-0.464-1.148-1.208-1.104c-0.698,0.042-1.282,0.356-1.229,1.149
	c0.046,0.709,0.562,1.219,1.25,1.191C-418.113,280.681-417.592,280.252-417.585,279.468z"/>
<path fill="#16200B" d="M-399.147,273.097c-0.166-0.691-0.573-1.089-1.345-1.019c-0.76,0.071-1.189,0.466-1.104,1.25
	c0.079,0.736,0.556,1.226,1.274,1.124C-399.667,274.361-399.225,273.849-399.147,273.097z"/>
<path fill="#16200B" d="M-226.206,265.444c-0.606,0.186-1.295,0.3-1.291,1.145c0.006,0.749,0.44,1.223,1.168,1.248
	c0.717,0.025,1.207-0.403,1.281-1.143C-224.966,265.879-225.53,265.598-226.206,265.444z"/>
<path fill="#16200B" d="M-421.208,263.52c0.749-0.098,1.216-0.446,1.242-1.22c0.027-0.813-0.449-1.174-1.188-1.133
	c-0.68,0.039-1.295,0.361-1.25,1.142C-422.364,262.988-421.928,263.461-421.208,263.52z"/>
<path fill="#16200B" d="M-280.3,272.834c-0.211-0.69-0.644-1.167-1.392-1.052c-0.673,0.104-1.231,0.463-1.11,1.3
	c0.107,0.754,0.559,1.162,1.329,1.079C-280.714,274.078-280.396,273.545-280.3,272.834z"/>
<path fill="#16200B" d="M-421.932,345.735c-0.066-0.739-0.46-1.233-1.209-1.167c-0.66,0.058-1.29,0.438-1.247,1.195
	c0.037,0.67,0.466,1.205,1.237,1.192C-422.384,346.945-422.035,346.448-421.932,345.735z"/>
<path fill="#16200B" d="M-326.225,519.775c-0.085-0.777-0.57-1.2-1.276-1.138c-0.645,0.056-1.257,0.391-1.19,1.214
	c0.06,0.742,0.51,1.188,1.255,1.152C-326.706,520.971-326.314,520.487-326.225,519.775z"/>
<path fill="#16200B" d="M-421.352,394.678c0.589-0.205,0.979-0.542,0.919-1.213c-0.052-0.604-0.482-0.827-0.983-0.794
	c-0.58,0.038-1.146,0.294-1.051,1.009C-422.39,394.262-421.987,394.652-421.352,394.678z"/>
<path fill="#9FA398" d="M-337.943,436.232c-11.115,2.095-21.941,5.269-32.664,8.812c-9.72,3.211-19.485,6.323-28.278,11.769
	c-3.406,2.107-6.613,4.457-9.16,7.592c-5.891,7.249-5.021,16.32,2.198,22.279c4.958,4.093,10.902,6.054,17.046,7.438
	c7.765,1.748,15.587,3.17,23.578,3.363c1.234,0.512,2.465,0.909,3.678-0.05c0.684,1.162,1.887,0.764,2.838,0.813
	c12.875,0.692,25.728,0.399,38.552-1.006c33.877-3.711,66.201-13.652,98.32-24.438c25.517-8.567,50.828-17.767,76.809-24.894
	c3.119-0.854,6.171-2.043,9.447-2.251c0,0.652,0,1.305,0,1.956c-7.575,1.547-14.93,3.908-22.312,6.146
	c-26.229,7.95-51.932,17.493-78.007,25.912c-21.763,7.026-43.731,13.267-66.321,17.089c-24.641,4.168-49.356,5.276-74.161,1.637
	c-6.676-0.98-13.342-2.115-19.741-4.389c-4.017-1.428-7.762-3.363-11.063-6.09c-7.566-6.247-8.833-15.454-3.212-23.524
	c2.655-3.813,6.229-6.641,10.146-9.032c8.96-5.472,18.877-8.714,28.712-12.108c9.77-3.369,19.77-5.959,29.821-8.34
	c0.841-0.199,1.814-0.108,2.372-0.995C-338.879,434.692-338.412,435.461-337.943,436.232z"/>
<path fill="#9FA398" d="M-135.579,485.257c-3.852-0.029-7.48,1.245-11.189,1.993c-24.706,4.98-49.518,9.468-73.979,15.602
	c-18.873,4.729-37.373,10.6-55.348,18.078c-3.852,1.603-7.602,3.43-10.609,6.369c-2.701,2.642-5.147,5.521-4.327,9.776
	c-0.813,0-1.63,0-2.444,0c-0.143-4.111,1.66-7.354,4.479-10.17c4.182-4.174,9.356-6.741,14.714-8.922
	c21.276-8.662,43.288-14.94,65.661-20.035c23.617-5.378,47.461-9.646,71.152-14.659c0.635-0.135,1.262-0.315,1.891-0.476
	C-135.579,483.628-135.579,484.443-135.579,485.257z"/>
<path fill="#9FA398" d="M-135.579,367.936c-26.338-2.063-52.129,0.647-77.379,8.565c-14.545,4.562-28.342,10.952-42.396,16.731
	c-12.405,5.103-25.126,8.963-38.733,8.887c-1.619-0.009-3.238,0.014-4.856,0.021c-0.624-0.584-0.86-1.346-0.985-2.157
	c20.18,1.573,38.156-5.866,56-13.758c17.537-7.758,35.563-13.915,54.448-17.501c17.149-3.257,34.425-3.9,51.802-3.037
	c0.703,0.035,1.451,0.399,2.1-0.195C-135.579,366.306-135.579,367.12-135.579,367.936z"/>
<path fill="#9FA398" d="M-281.739,425.221c5.251-1.183,10.623-1.429,15.945-2.014c28.709-3.16,57.512-5.551,86.014-10.392
	c14.717-2.5,29.105-6.188,42.621-12.749c0.49-0.238,0.957-0.668,1.58-0.357c0,0.815,0,1.629,0,2.444
	c-0.621-0.869-1.201-0.071-1.66,0.144c-15.542,7.28-32.092,10.931-48.916,13.547c-23.707,3.687-47.59,5.903-71.439,8.384
	c-7.195,0.748-14.383,1.591-21.572,2.391c-0.478,0.053-0.992,0.015-1.287,0.52C-281.128,426.662-281.593,426.048-281.739,425.221z"
	/>
<path fill="#EBEFE4" d="M-135.579,343.003c-0.045-0.146-0.104-0.426-0.131-0.422c-1.051,0.121-2.521,0.78-2.438-1.091
	c0.082-1.819,1.737-0.496,2.567-0.931C-135.579,341.374-135.579,342.189-135.579,343.003z"/>
<path fill="#EBEFE5" d="M-407.526,334.796c-3.088-3.788-5.651-7.907-7.775-12.306c0.53-0.021,0.861-0.338,1.199-0.718
	c4.238-4.763,9.714-6.764,15.929-7.102c3.432,6.298,7.503,12.08,13.339,16.418c1.814,1.35,3.695,2.605,5.871,3.331
	c2.749,1.355,5.645,2.119,8.721,2.148c0.156,0.072,0.312,0.143,0.47,0.214c0.025,0.58,0.142,1.124,0.55,1.577
	c5.572,6.185,12.253,9.42,20.781,8.016c9.974-1.641,16.539-11.56,16.636-18.256c-1.085,1.675-1.905,3.269-3.024,4.611
	c-5.777,6.938-13.207,10.148-22.214,9.245c-4.317-0.435-8.45-1.65-11.71-4.816c1.645-0.021,3.288-0.045,4.933-0.066
	c3.455,0.277,6.825-0.347,10.197-0.956c1.898-0.125,3.757-0.4,5.403-1.457c0.392-0.093,0.788-0.165,1.175-0.276
	c5.818-1.68,10.941-4.727,15.895-8.105c3.961,0.12,7.944-0.122,11.853,0.795c2.049,0.747,4.098,1.494,6.146,2.24
	c8.999,4.558,15.896,11.457,21.755,19.518c-3.106,1.35-4.858,3.831-5.774,6.983c-0.387,1.328-0.306,2.713,0.898,3.502
	c1.227,0.803,2.275-0.146,3.24-0.902c1.828-1.438,3.529-3.079,5.878-3.688c2.333,3.293,4.458,6.715,6.389,10.259
	c-1.163,1.771-2.722,3.215-4.331,4.509c-3.367,2.708-6.744,5.53-11.385,5.794c-2.596-4.06-5.176-8.128-7.803-12.167
	c-0.514-0.79-0.924-1.72-1.891-2.127c-1.166-2.934-3.334-5.004-5.834-6.792c-1.709-3.104-4.582-4.84-7.457-6.667
	c-0.666,0.977-0.379,1.769-0.226,2.529c1.136,5.652,2.86,11.131,4.765,16.565c1.686,4.812,3.26,9.662,4.883,14.495
	c-0.512,0.221-1.061,0.381-1.529,0.671c-5.252,3.236-10.682,6.149-16.305,8.67c-8.635,3.87-17.472,6.99-27.178,6.275
	c-0.498-1.458-1.028-2.905-1.489-4.374c-3.5-11.146-6.277-22.517-10.655-33.391c-0.986-2.453-2.171-3.879-4.947-3.302
	c-2.451-0.476-4.932-0.838-7.351-1.448c-9.011-2.273-16.633-6.929-23.011-13.659c2.454-2.244,5.211-4.307,4.956-8.19
	c-0.058-0.869,0.2-1.901-0.802-2.387c-1.091-0.529-1.988-0.018-2.888,0.677C-403.229,332.22-405.063,333.995-407.526,334.796z
	 M-349.561,383.656c0.646-0.072,1.315-0.056,1.933-0.228c7.285-2.023,14.572-4.04,21.837-6.135c2.851-0.82,3.622-2.03,2.862-4.932
	c-1.667-6.37-3.494-12.699-5.312-19.028c-0.594-2.065-2.096-2.884-4.157-2.323c-7.688,2.089-15.372,4.192-23.032,6.384
	c-2.787,0.797-3.478,2.153-2.722,4.978c1.66,6.204,3.388,12.391,5.086,18.583C-352.577,382.738-351.573,383.834-349.561,383.656z"/>
<path fill="#EBEFE5" d="M-299.929,399.982c0.123,0.812,0.36,1.573,0.984,2.157c1.357,2.245,2.717,4.489,4.074,6.734
	c-3.656,5.683-8.848,9.312-15.215,11.364c-2.563-3.25-5.149-6.484-7.684-9.759c-1.338-1.73-2.252-4.434-3.958-5.061
	c-1.87-0.686-3.967,1.704-6.151,2.236c-1.642,0.399-1.68,1.239-1.211,2.628c1.77,5.232,3.948,10.288,6.318,15.269
	c-4.679,4.504-10.239,7.147-16.693,7.906c-5.172-7.712-9.062-16.055-12.196-24.771c-0.269-0.748-0.628-1.463-0.944-2.194
	c-0.514-2.104-1.027-4.208-1.541-6.311c4.79-0.091,9.505-0.716,14.132-1.978c11.14-3.036,21.175-8.452,30.981-14.362
	c2.258,2.891,3.077,6.577,5.265,9.508C-302.766,395.722-301.728,398.072-299.929,399.982z"/>
<path fill="#C8CCBB" d="M-398.174,314.671c-6.215,0.338-11.69,2.339-15.929,7.102c-0.338,0.38-0.669,0.695-1.199,0.718
	c-3.847-6.624-6.472-13.749-8.105-21.186c-0.958-4.364,1.863-8.605,6.099-10.219c4.209-1.602,8.853-0.164,11.3,3.703
	c0.828,1.31,1.22,1.884,2.627,0.55c1.085-1.027,2.588-0.813,3.81,0.18c1.085,0.881,1.473,2.145,0.84,3.288
	C-401.74,304.241-400.446,309.459-398.174,314.671z"/>
<path fill="#C8CCBB" d="M-296.483,375.309c4.641-0.264,8.018-3.085,11.385-5.794c1.609-1.294,3.167-2.738,4.331-4.509
	c3.306,4.989,6.043,10.304,8.499,15.734c2.072,4.583-0.188,9.903-4.712,12.082c-4.535,2.183-9.868,0.588-12.386-3.874
	c-0.883-1.565-1.357-2.753-3.68-1.903c-2.102,0.77-3.933-1.292-3.627-3.551c0.021-0.16,0.055-0.33,0.133-0.467
	C-295.079,380.462-294.956,377.893-296.483,375.309z"/>
<path fill="#B4B9A3" d="M-354.146,400.183c0.515,2.104,1.028,4.208,1.542,6.312c-0.623,0.181-1.262,0.32-1.866,0.549
	c-1.223,0.462-1.766,0.216-2.195-1.191c-5.108-16.734-10.309-33.44-15.485-50.153c2.776-0.578,3.961,0.849,4.947,3.302
	c4.378,10.874,7.155,22.245,10.655,33.391c0.461,1.469,0.991,2.916,1.489,4.374C-355.003,397.969-354.715,399.114-354.146,400.183z"
	/>
<path fill="#B4B9A3" d="M-303.767,393.351c-2.188-2.931-3.007-6.617-5.266-9.505c-0.149-0.971,0.126-2.101-1.016-2.7
	c-1.623-4.833-3.197-9.684-4.881-14.495c-1.904-5.434-3.631-10.914-4.766-16.565c-0.153-0.761-0.439-1.554,0.225-2.529
	c2.877,1.827,5.748,3.562,7.457,6.667c0.018,0.484-0.052,0.991,0.062,1.454c2.857,11.416,5.736,22.825,8.602,34.239
	c0.159,0.631,0.161,1.329,1.01,1.47C-302.282,392.427-302.624,393.179-303.767,393.351z"/>
<path fill="#EBEFE4" d="M-363.865,306.323c-4.353,1.389-8.044,4.028-11.92,6.316c2.004-6.2,6.325-10.408,12.062-12.984
	c8.985-4.035,17.675-3.495,25.645,2.773c-1.587,0.004-3.174,0.009-4.762,0.013c-1.654-1.172-3.294,0.353-4.943,0.027
	c-3.504,0.141-6.919,0.76-10.237,1.898C-360.066,304.728-362.032,305.326-363.865,306.323z"/>
<path fill="#D6D9CE" d="M-302.339,391.385c-0.848-0.141-0.85-0.839-1.009-1.47c-2.864-11.414-5.743-22.823-8.601-34.239
	c-0.115-0.462-0.047-0.969-0.062-1.454c2.5,1.787,4.668,3.857,5.834,6.792c-0.326,0.142-0.541,0.372-0.443,0.744
	c1.996,7.592,3.193,15.355,4.996,22.984C-301.054,387.155-301.845,389.202-302.339,391.385z"/>
<path fill="#B4B9A3" d="M-331.152,326.298c0.426-1.602,0.995-3.171,1.066-4.85c0.655-1.323,1.312-2.646,1.967-3.97
	c2.116-0.367,4.051-1.592,6.299-1.333c0.788,3.662,2.055,7.212,2.521,10.948C-323.208,326.176-327.191,326.417-331.152,326.298z"/>
<path fill="#C8CCBB" d="M-339.462,433.458c6.454-0.759,12.015-3.402,16.693-7.906c0.649,1.146,1.302,2.292,1.952,3.438
	c-2.516,2.622-5.864,3.835-8.997,5.444c-2.345,1.204-5.183,1.062-7.284,2.829c-0.282-0.345-0.564-0.688-0.846-1.03
	c-0.468-0.771-0.936-1.54-1.403-2.312C-339.448,433.782-339.487,433.628-339.462,433.458z"/>
<path fill="#BBC2AB" d="M-287.156,354.747c-2.349,0.609-4.05,2.25-5.878,3.688c-0.965,0.757-2.014,1.705-3.24,0.902
	c-1.204-0.788-1.285-2.174-0.898-3.502c0.916-3.152,2.668-5.634,5.774-6.983C-289.685,350.6-288.3,352.586-287.156,354.747z"/>
<path fill="#BBC2AB" d="M-407.526,334.796c2.464-0.801,4.298-2.576,6.282-4.107c0.899-0.694,1.797-1.206,2.888-0.677
	c1.002,0.485,0.744,1.519,0.802,2.387c0.255,3.884-2.502,5.946-4.956,8.19C-404.557,338.982-406.162,336.993-407.526,334.796z"/>
<path fill="#D6D9CE" d="M-319.302,327.093c-0.465-3.735-1.73-7.286-2.52-10.948c1.996,1.199,3.969,2.438,5.999,3.579
	c0.862,0.483,0.896,1.28,1.062,2.04c0.557,2.519,1.073,5.046,1.606,7.569C-315.202,328.587-317.253,327.84-319.302,327.093z"/>
<path fill="#C8CCBB" d="M-377.545,318.07c-0.362,5.34,1.308,10.14,3.899,14.695c-1.438,0.067-2.416-0.919-3.554-1.543
	C-381.427,326.288-381.508,323.209-377.545,318.07z"/>
<path fill="#C8CCBB" d="M-328.12,317.478c-0.655,1.323-1.312,2.646-1.967,3.97c0.548-5.311-1.133-10.112-3.372-14.787
	C-328.486,308.781-326.896,312.006-328.12,317.478z"/>
<path fill="#B4B9A3" d="M-377.2,331.223c1.138,0.624,2.116,1.61,3.554,1.543c1.134,1.269,2.269,2.538,3.402,3.806
	c-3.076-0.03-5.972-0.794-8.721-2.149C-379.536,332.715-379.798,331.18-377.2,331.223z"/>
<path fill="#DFE3D7" d="M-406.459,399.125c-0.254,0.864-0.764,1.537-1.686,1.393c-0.742-0.117-1.292-0.726-1.206-1.572
	c0.086-0.87,0.731-1.21,1.532-1.197C-406.948,397.765-406.562,398.323-406.459,399.125z"/>
<path fill="#EBEFE4" d="M-376.41,378.538c-0.126,0.839-0.564,1.238-1.314,1.202c-0.787-0.038-1.162-0.634-1.131-1.287
	c0.035-0.711,0.658-1.114,1.344-1.095C-376.781,377.379-376.382,377.861-376.41,378.538z"/>
<path fill="#EBEFE4" d="M-456.661,398.069c-0.047,0.826-0.467,1.254-1.207,1.279c-0.765,0.024-1.192-0.484-1.246-1.173
	c-0.062-0.802,0.6-1.116,1.237-1.173C-457.164,396.94-456.673,397.332-456.661,398.069z"/>
<path fill="#EBEFE4" d="M-378.569,256.874c0.825-0.008,1.164,0.449,1.105,1.215c-0.058,0.766-0.593,1.203-1.273,1.151
	c-0.669-0.05-1.189-0.58-1.161-1.299C-379.869,257.177-379.286,256.891-378.569,256.874z"/>
<path fill="#EBEFE4" d="M-440.261,448.179c-0.213,0.68-0.605,1.208-1.327,1.179c-0.722-0.03-1.146-0.519-1.14-1.269
	c0.007-0.826,0.57-1.083,1.274-1.089C-440.675,446.992-440.331,447.47-440.261,448.179z"/>
<path fill="#EBEFE4" d="M-244.167,277.656c-0.254,0.015-0.658-0.488-0.768-1.146c-0.133-0.809,0.537-1.147,1.157-1.242
	c0.707-0.108,1.259,0.283,1.272,1.065C-242.489,277.051-242.848,277.545-244.167,277.656z"/>
<path fill="#DFE3D7" d="M-238.229,291.573c0.809-0.029,1.236,0.401,1.2,1.168c-0.036,0.731-0.535,1.233-1.246,1.238
	c-0.731,0.005-1.192-0.563-1.22-1.257C-239.522,291.952-238.981,291.594-238.229,291.573z"/>
<path fill="#EBEFE5" d="M-402.486,526.163c-0.027,0.743-0.446,1.214-1.141,1.3c-0.722,0.091-1.214-0.321-1.321-1.056
	c-0.119-0.818,0.418-1.166,1.107-1.245C-403.131,525.08-402.614,525.389-402.486,526.163z"/>
<path fill="#DFE3D7" d="M-498.406,340.245c-0.103,0.703-0.413,1.253-1.163,1.338c-0.776,0.088-1.223-0.373-1.326-1.102
	c-0.115-0.811,0.434-1.194,1.113-1.307C-499.002,339.044-498.629,339.579-498.406,340.245z"/>
<path fill="#EBEFE4" d="M-480.773,312.264c-0.238,0.747-0.612,1.31-1.331,1.306c-0.73-0.004-1.156-0.525-1.16-1.258
	c-0.004-0.789,0.498-1.112,1.242-1.135C-481.205,311.15-480.962,311.707-480.773,312.264z"/>
<path fill="#DFE3D7" d="M-467.851,430.64c-0.058,0.739-0.438,1.247-1.182,1.303c-0.792,0.059-1.212-0.548-1.288-1.197
	c-0.089-0.754,0.467-1.161,1.198-1.229C-468.323,429.441-467.923,429.867-467.851,430.64z"/>
<path fill="#EBEFE5" d="M-417.583,279.468c-0.009,0.784-0.53,1.212-1.189,1.236c-0.688,0.026-1.204-0.482-1.25-1.191
	c-0.053-0.792,0.531-1.106,1.229-1.149C-418.049,278.32-417.572,278.645-417.583,279.468z"/>
<path fill="#EBEFE4" d="M-399.147,273.097c-0.077,0.752-0.52,1.265-1.175,1.355c-0.719,0.103-1.195-0.388-1.274-1.124
	c-0.085-0.784,0.345-1.179,1.104-1.25C-399.72,272.006-399.313,272.406-399.147,273.097z"/>
<path fill="#EBEFE4" d="M-226.206,265.444c0.676,0.154,1.24,0.436,1.158,1.249c-0.074,0.739-0.564,1.168-1.281,1.143
	c-0.728-0.024-1.162-0.499-1.168-1.248C-227.501,265.743-226.813,265.629-226.206,265.444z"/>
<path fill="#EBEFE5" d="M-421.208,263.52c-0.72-0.059-1.156-0.532-1.195-1.21c-0.045-0.78,0.57-1.103,1.25-1.142
	c0.738-0.042,1.215,0.318,1.188,1.133C-419.993,263.073-420.459,263.422-421.208,263.52z"/>
<path fill="#DFE3D7" d="M-280.3,272.834c-0.097,0.71-0.414,1.244-1.173,1.326c-0.771,0.083-1.222-0.324-1.329-1.079
	c-0.121-0.837,0.438-1.195,1.11-1.3C-280.942,271.667-280.511,272.144-280.3,272.834z"/>
<path fill="#EBEFE4" d="M-421.932,345.737c-0.104,0.71-0.453,1.208-1.219,1.219c-0.771,0.013-1.2-0.522-1.237-1.192
	c-0.043-0.758,0.587-1.138,1.247-1.195C-422.392,344.5-421.998,344.995-421.932,345.737z"/>
<path fill="#EBEFE4" d="M-326.225,519.775c-0.09,0.712-0.481,1.195-1.212,1.229c-0.745,0.036-1.195-0.41-1.255-1.152
	c-0.066-0.823,0.546-1.158,1.19-1.214C-326.794,518.574-326.31,518.997-326.225,519.775z"/>
<path fill="#D6D9CE" d="M-421.352,394.678c-0.637-0.026-1.038-0.416-1.115-0.999c-0.096-0.713,0.471-0.971,1.051-1.009
	c0.501-0.032,0.932,0.191,0.983,0.794C-420.373,394.137-420.762,394.474-421.352,394.678z"/>
<path fill="#C8CCBB" d="M-333.42,306.774c-0.202-0.151-0.404-0.303-0.606-0.454C-333.825,306.471-333.623,306.622-333.42,306.774z"
	/>
<path fill="#EBEFE4" d="M-375.609,312.616c-0.153,0.179-0.305,0.358-0.457,0.537C-376.005,312.898-376.143,312.472-375.609,312.616z
	"/>
<path fill="#EBEFE4" d="M-281.739,425.221c0.146,0.827,0.611,1.441,1.285,1.917c3.678,4.183,7.781,7.926,11.949,11.603
	c-0.188,1.007,0.16,1.926,0.481,2.843c1.882,5.35,3.759,10.701,5.667,16.042c0.883,2.474,0.495,3.902-1.607,4.472
	c-3.979,1.075-7.877,2.483-11.965,3.146c-1.195-4.864-2.427-9.72-3.562-14.598c-0.351-1.503-1.058-2.552-2.332-3.479
	c-5.712-4.145-11.132-8.645-16.063-13.708c0.278-1.316,1.518-1.576,2.428-2.189c3.933-2.654,7.447-5.725,9.897-9.862
	C-284.167,422.558-283.516,424.451-281.739,425.221z"/>
<path fill="#EBEFE4" d="M-311.019,478.89c-1.186-4.887-2.391-9.768-3.54-14.66c-0.385-1.635-1.144-2.917-2.438-4.061
	c-4.203-3.717-8.131-7.719-11.659-12.095c0.331-0.771,1.097-0.856,1.753-1.146c3.321-1.469,6.518-3.149,9.383-5.423
	c0.984-0.779,1.605-2.085,3.061-2.218c3.412,4.424,6.791,8.875,10.676,12.909c0.236,0.857,0.432,1.729,0.718,2.569
	c1.942,5.688,3.911,11.37,5.853,17.061c0.494,1.447,0.863,3.272-0.871,3.817C-302.319,476.976-306.503,478.632-311.019,478.89z"/>
<path fill="#C8CCBB" d="M-311.019,478.89c4.516-0.258,8.698-1.914,12.934-3.245c1.733-0.545,1.365-2.37,0.871-3.817
	c-1.941-5.689-3.91-11.371-5.854-17.061c-0.286-0.84-0.48-1.712-0.717-2.569c1,0.361,1.523,1.216,1.945,2.076
	c2.64,5.386,5.278,10.771,7.822,16.202c1.08,2.305,1.641,4.743,1.043,7.337c-0.941,4.094-4.852,7.237-9.225,7.354
	C-306.192,485.271-309.855,482.663-311.019,478.89z"/>
<path fill="#C8CCBB" d="M-275.929,465.241c4.088-0.661,7.984-2.069,11.965-3.146c2.104-0.568,2.49-1.998,1.607-4.472
	c-1.908-5.341-3.785-10.692-5.667-16.042c-0.321-0.917-0.67-1.836-0.481-2.843c0.752,0.27,1.131,0.909,1.446,1.559
	c2.75,5.674,5.634,11.287,8.168,17.057c2.075,4.726,0.97,8.922-2.6,11.838C-266.423,473.225-274.57,470.994-275.929,465.241z"/>
<path fill="#A0A78C" d="M-337.099,437.263c2.102-1.769,4.939-1.625,7.284-2.829c3.133-1.608,6.481-2.822,8.997-5.444
	c0.324,0.474,0.648,0.949,0.977,1.421c0.09,1.053,0.457,1.951,1.4,2.531c0.561,0.924,1.12,1.847,1.68,2.771
	c-1.027,0.649-2.062,1.286-3.082,1.948c-3.969,2.574-8.137,4.688-12.838,5.575C-334.482,441.489-335.851,439.419-337.099,437.263z"
	/>
<path fill="#C8CCBB" d="M-285.561,421.406c-2.45,4.139-5.966,7.208-9.897,9.862c-0.91,0.613-2.148,0.873-2.428,2.189
	c-1.459-1.319-2.918-2.641-4.375-3.96c0.143-0.318,0.284-0.639,0.428-0.958c5.437-2.311,10.125-5.616,13.754-10.333
	C-287.062,419.135-286.224,420.2-285.561,421.406z"/>
<path fill="#C8CCBB" d="M-332.68,443.236c4.701-0.887,8.869-3.001,12.837-5.575c1.021-0.662,2.055-1.299,3.082-1.948
	c0.844,1.145,1.799,2.214,2.301,3.575c-1.453,0.133-2.076,1.438-3.061,2.218c-2.865,2.272-6.062,3.954-9.383,5.423
	c-0.656,0.29-1.422,0.375-1.753,1.146C-330.262,446.683-331.502,444.985-332.68,443.236z"/>
<path fill="#9FA398" d="M-301.833,428.54c-0.144,0.319-0.285,0.639-0.428,0.958c-4.762,0.806-9.523,1.603-14.279,2.424
	c-0.727,0.126-1.723-0.161-1.899,1.021c-0.942-0.58-1.312-1.479-1.401-2.531c5.32-0.803,10.641-1.606,15.961-2.411
	C-303.198,428.181-302.517,428.361-301.833,428.54z"/>
<path fill="#EBEFE5" d="M-361.546,497.434c-1.213,0.959-2.443,0.562-3.678,0.05c-0.674-1.286-1.16-2.585,0.391-3.591
	c1.098-0.712,2.324-0.864,3.325,0.11C-360.398,495.085-360.576,496.3-361.546,497.434z"/>
<path fill="#EBEFE4" d="M-381.671,455.389c0.785,0.138,1.265,0.522,1.116,1.301c-0.13,0.682-0.61,1.184-1.34,1.101
	c-0.712-0.08-1.124-0.606-1.069-1.346C-382.903,455.641-382.307,455.444-381.671,455.389z"/>
<path fill="#A0A78C" d="M-301.833,428.54c-0.684-0.18-1.365-0.36-2.049-0.541c-1.425-1.769-2.849-3.538-4.272-5.306
	c1.899-0.868,3.825-1.685,5.696-2.615c3.858-1.92,6.845-5.008,10.127-7.697c1.59,1.817,3.093,3.696,4.252,5.826
	C-291.708,422.925-296.397,426.231-301.833,428.54z"/>
<path fill="#C8CCBB" d="M-292.331,412.383c-3.282,2.688-6.269,5.776-10.127,7.696c-1.871,0.931-3.797,1.747-5.696,2.615
	c-0.644-0.818-1.286-1.637-1.929-2.456c6.367-2.053,11.558-5.682,15.215-11.364C-293.766,409.857-293.089,411.15-292.331,412.383z"
	/>
<path fill="#DFE3D7" d="M-221.708,413.235c-0.137,0.683-0.451,1.222-1.223,1.274c-0.779,0.053-1.203-0.376-1.289-1.132
	c-0.097-0.85,0.498-1.166,1.16-1.25C-222.306,412.031-221.898,412.534-221.708,413.235z"/>
<path fill="#EBEFE4" d="M-240.382,406.728c0.694,0.072,1.217,0.366,1.207,1.16c-0.01,0.757-0.479,1.194-1.193,1.219
	c-0.725,0.023-1.196-0.441-1.252-1.16C-241.682,407.125-241.009,406.933-240.382,406.728z"/>
<path fill="#CACEBE" d="M-349.561,383.656c-2.014,0.179-3.017-0.918-3.505-2.701c-1.698-6.192-3.426-12.379-5.086-18.583
	c-0.756-2.823-0.065-4.18,2.722-4.978c7.66-2.191,15.345-4.295,23.032-6.384c2.062-0.562,3.563,0.257,4.157,2.323
	c1.817,6.33,3.644,12.659,5.312,19.028c0.76,2.901-0.012,4.111-2.862,4.932c-7.265,2.095-14.552,4.111-21.837,6.135
	C-348.245,383.601-348.915,383.583-349.561,383.656z M-325.523,372.359c-1.62-5.699-3.178-11.417-4.902-17.084
	c-0.447-1.472-1.775-1.68-3.239-1.244c-3.425,1.021-6.876,1.953-10.311,2.944c-2.84,0.818-3.33,1.71-2.514,4.625
	c1.291,4.615,2.605,9.225,3.928,13.832c0.796,2.773,1.6,3.285,4.396,2.574c3.542-0.899,7.058-1.902,10.581-2.877
	C-326.221,374.751-325.526,373.879-325.523,372.359z M-349.213,364.453c-0.073-1.926-1.003-2.925-2.678-3.142
	c-1.386-0.181-3.18,1.472-3.044,2.901c0.152,1.609,1.002,2.765,2.824,2.733C-350.368,366.917-349.48,365.909-349.213,364.453z
	 M-349.027,378.707c2.024,0.023,3.047-1.073,3.074-2.662c0.027-1.586-0.938-2.76-2.761-2.736c-1.725,0.021-2.828,0.949-2.87,2.643
	C-351.628,377.672-350.484,378.535-349.027,378.707z"/>
<path fill="#DFE3D7" d="M-368.773,336.68c-0.003,0.161,0.003,0.32,0.018,0.48c3.26,3.167,7.393,4.383,11.71,4.817
	c9.007,0.903,16.437-2.308,22.214-9.245c1.119-1.344,1.939-2.938,3.024-4.611c-0.097,6.696-6.662,16.615-16.636,18.256
	c-8.528,1.404-15.209-1.831-20.781-8.016c-0.408-0.453-0.524-0.997-0.55-1.577C-369.44,336.748-369.106,336.714-368.773,336.68z"/>
<path fill="#CACEBE" d="M-310.046,381.146c1.141,0.6,0.864,1.729,1.015,2.7c-9.806,5.908-19.841,11.324-30.98,14.359
	c-4.627,1.262-9.342,1.887-14.132,1.978c-0.571-1.069-0.859-2.214-0.914-3.421c9.706,0.715,18.543-2.405,27.178-6.275
	c5.623-2.521,11.052-5.435,16.304-8.67C-311.106,381.527-310.559,381.366-310.046,381.146z"/>
<path fill="#EBEFE5" d="M-325.523,372.359c-0.003,1.521-0.697,2.393-2.062,2.771c-3.523,0.975-7.039,1.979-10.581,2.877
	c-2.796,0.711-3.6,0.199-4.396-2.574c-1.322-4.607-2.637-9.217-3.928-13.832c-0.816-2.915-0.326-3.807,2.514-4.625
	c3.435-0.991,6.886-1.923,10.311-2.944c1.464-0.436,2.792-0.228,3.239,1.244C-328.702,360.942-327.145,366.659-325.523,372.359z"/>
<path fill="#EBEFE4" d="M-349.213,364.453c-0.267,1.456-1.154,2.464-2.897,2.493c-1.822,0.03-2.672-1.125-2.824-2.733
	c-0.136-1.43,1.658-3.082,3.044-2.901C-350.216,361.529-349.287,362.528-349.213,364.453z"/>
<path fill="#EBEFE5" d="M-349.027,378.707c-1.457-0.172-2.601-1.035-2.557-2.756c0.042-1.693,1.146-2.621,2.87-2.643
	c1.823-0.023,2.788,1.15,2.761,2.736C-345.981,377.634-347.003,378.731-349.027,378.707z"/>
<path fill="#88CDDE" d="M-331.152,326.298c-4.953,3.379-10.076,6.426-15.895,8.105c-0.387,0.111-0.783,0.185-1.175,0.276
	c0.754-4.293,1.541-8.58,2.252-12.88c1.066-6.449,2.599-12.823,3.13-19.358c1.588-0.004,3.175-0.009,4.762-0.013
	c1.767,0.863,2.827,2.462,4.052,3.891c0.202,0.151,0.404,0.303,0.606,0.454c0,0-0.038-0.113-0.038-0.112
	c2.239,4.675,3.92,9.478,3.372,14.786C-330.157,323.126-330.728,324.697-331.152,326.298z"/>
<path fill="#88CDDE" d="M-369.773,336.784c-0.157-0.072-0.313-0.143-0.47-0.214c-1.134-1.268-2.269-2.537-3.402-3.806
	c-2.592-4.557-4.262-9.355-3.899-14.695c0.606-1.605,0.36-3.466,1.479-4.917c0.152-0.179,0.304-0.358,0.457-0.537l-0.077,0.099
	c0,0-0.1-0.075-0.099-0.075c3.876-2.288,7.567-4.928,11.92-6.315c-0.415,2.793-0.796,5.591-1.252,8.377
	c-1.2,7.329-2.435,14.653-3.655,21.979C-369.106,336.714-369.44,336.748-369.773,336.784z"/>
<path fill="#88CDDE" d="M-358.021,304.368c3.318-1.139,6.733-1.758,10.237-1.898c-1.947,11.223-3.895,22.444-5.842,33.668
	c-3.372,0.609-6.742,1.233-10.198,0.957c0.147-0.714,0.313-1.423,0.439-2.14C-361.593,324.761-359.808,314.564-358.021,304.368z"/>
<path fill="#BCE3EC" d="M-353.625,336.138c1.947-11.224,3.895-22.445,5.842-33.668c1.649,0.325,3.289-1.199,4.943-0.027
	c-0.531,6.535-2.063,12.909-3.13,19.358c-0.711,4.3-1.498,8.587-2.252,12.88C-349.869,335.738-351.728,336.013-353.625,336.138z"/>
<path fill="#BCE3EC" d="M-358.021,304.368c-1.786,10.196-3.572,20.393-5.363,30.587c-0.126,0.716-0.292,1.426-0.439,2.14
	c-1.644,0.021-3.287,0.044-4.932,0.065c-0.015-0.16-0.021-0.32-0.018-0.48c1.221-7.326,2.455-14.649,3.655-21.979
	c0.456-2.786,0.837-5.584,1.252-8.377C-362.032,305.326-360.066,304.728-358.021,304.368z"/>
<path d="M-340.601,308.961c-0.407-1.343-1.821-2.098-3.161-1.691c-1.34,0.408-2.096,1.822-1.689,3.16
	c0.406,1.34,1.82,2.096,3.161,1.689C-340.952,311.715-340.193,310.3-340.601,308.961z"/>
<circle cx="-365.428" cy="316.484" r="2.535"/>
<path fill="#ED1A3B" d="M-352.948,329.958c0.541,1.782,2.432,2.794,4.216,2.254c1.782-0.54,2.792-2.433,2.251-4.216"/>
<path fill="#F3A68C" d="M-350.944,320.894c0.239,0.791-0.206,1.623-0.996,1.862l0,0c-0.79,0.24-1.624-0.206-1.862-0.995
	l-1.905-6.282c-0.239-0.79,0.205-1.625,0.997-1.863l0,0c0.789-0.242,1.625,0.206,1.864,0.995L-350.944,320.894z"/>
<g>
	<path opacity="0.8" fill="#88CDDE" enable-background="new    " d="M-331.777,326.184c-4.953,3.378-10.076,6.425-15.895,8.104
		c-0.387,0.111-0.783,0.186-1.175,0.276c0.754-4.293,1.541-8.58,2.252-12.88c1.066-6.449,2.599-12.823,3.13-19.358
		c1.588-0.004,3.175-0.009,4.762-0.013c1.767,0.864,2.827,2.462,4.052,3.891c0.202,0.151,0.404,0.304,0.606,0.454
		c0,0-0.038-0.113-0.038-0.112c2.239,4.676,3.92,9.478,3.372,14.786C-330.782,323.012-331.353,324.581-331.777,326.184z"/>
	<path opacity="0.8" fill="#88CDDE" enable-background="new    " d="M-370.398,336.669c-0.157-0.071-0.313-0.143-0.47-0.214
		c-1.134-1.268-2.269-2.537-3.402-3.806c-2.592-4.556-4.262-9.355-3.899-14.695c0.606-1.604,0.36-3.466,1.479-4.917
		c0.152-0.179,0.304-0.357,0.457-0.537l-0.077,0.1c0,0-0.1-0.076-0.099-0.076c3.876-2.288,7.567-4.927,11.92-6.315
		c-0.415,2.793-0.796,5.592-1.252,8.377c-1.2,7.329-2.435,14.653-3.655,21.979C-369.731,336.6-370.065,336.634-370.398,336.669z"/>
	<path opacity="0.8" fill="#88CDDE" enable-background="new    " d="M-358.646,304.252c3.318-1.139,6.733-1.758,10.237-1.898
		c-1.947,11.223-3.895,22.444-5.842,33.668c-3.372,0.609-6.742,1.233-10.198,0.957c0.147-0.713,0.313-1.422,0.439-2.14
		C-362.218,324.645-360.433,314.448-358.646,304.252z"/>
	<path opacity="0.8" fill="#BCE3EC" enable-background="new    " d="M-354.25,336.022c1.947-11.224,3.895-22.445,5.842-33.668
		c1.649,0.326,3.289-1.199,4.943-0.027c-0.531,6.535-2.063,12.909-3.13,19.358c-0.711,4.3-1.498,8.587-2.252,12.88
		C-350.494,335.622-352.353,335.898-354.25,336.022z"/>
	<path opacity="0.8" fill="#BCE3EC" enable-background="new    " d="M-358.646,304.252c-1.786,10.196-3.572,20.393-5.363,30.587
		c-0.126,0.717-0.292,1.427-0.439,2.14c-1.644,0.021-3.287,0.044-4.932,0.065c-0.015-0.159-0.021-0.319-0.018-0.48
		c1.221-7.326,2.455-14.649,3.655-21.979c0.456-2.786,0.837-5.584,1.252-8.377C-362.657,305.21-360.691,304.613-358.646,304.252z"/>
</g>
<path fill="#16200B" d="M-362.283,43.341c-0.013-0.736-0.503-1.129-1.216-1.066c-0.638,0.058-1.299,0.371-1.237,1.173
	c0.054,0.688,0.481,1.197,1.246,1.173C-362.75,44.596-362.33,44.167-362.283,43.341z"/>
<path fill="#16200B" d="M-345.884,93.451c-0.069-0.709-0.414-1.187-1.192-1.179c-0.704,0.006-1.268,0.263-1.274,1.089
	c-0.006,0.75,0.418,1.237,1.14,1.269C-346.489,94.659-346.097,94.13-345.884,93.451z"/>
<path fill="#16200B" d="M-404.029-14.482c-0.223-0.667-0.596-1.201-1.376-1.07c-0.68,0.112-1.229,0.497-1.113,1.307
	c0.104,0.729,0.55,1.188,1.326,1.102C-404.442-13.229-404.132-13.779-404.029-14.482z"/>
<path fill="#16200B" d="M-386.396-42.464c-0.188-0.557-0.431-1.113-1.249-1.088c-0.744,0.022-1.246,0.346-1.242,1.135
	c0.004,0.732,0.43,1.254,1.16,1.258C-387.009-41.155-386.635-41.717-386.396-42.464z"/>
<path fill="#16200B" d="M-373.473,75.91c-0.073-0.771-0.474-1.196-1.271-1.122c-0.731,0.067-1.287,0.476-1.198,1.229
	c0.076,0.649,0.496,1.256,1.288,1.197C-373.91,77.159-373.53,76.652-373.473,75.91z"/>
<path fill="#EBEFE4" d="M-362.283,43.341c-0.047,0.826-0.467,1.254-1.207,1.279c-0.765,0.024-1.192-0.484-1.246-1.173
	c-0.062-0.802,0.6-1.116,1.237-1.173C-362.786,42.212-362.296,42.605-362.283,43.341z"/>
<path fill="#EBEFE4" d="M-345.884,93.451c-0.213,0.68-0.605,1.208-1.327,1.179c-0.722-0.03-1.146-0.519-1.14-1.269
	c0.007-0.826,0.57-1.083,1.274-1.089C-346.298,92.265-345.953,92.742-345.884,93.451z"/>
<path fill="#DFE3D7" d="M-404.029-14.482c-0.103,0.703-0.413,1.253-1.163,1.338c-0.776,0.088-1.223-0.373-1.326-1.102
	c-0.115-0.811,0.434-1.194,1.113-1.307C-404.625-15.683-404.252-15.148-404.029-14.482z"/>
<path fill="#EBEFE4" d="M-386.396-42.464c-0.238,0.747-0.612,1.31-1.331,1.306c-0.73-0.004-1.156-0.525-1.16-1.258
	c-0.004-0.789,0.498-1.112,1.242-1.135C-386.827-43.578-386.585-43.02-386.396-42.464z"/>
<path fill="#DFE3D7" d="M-373.473,75.912c-0.058,0.739-0.438,1.247-1.182,1.303c-0.792,0.059-1.212-0.548-1.288-1.197
	c-0.089-0.754,0.467-1.161,1.198-1.229C-373.946,74.713-373.546,75.14-373.473,75.912z"/>
<g>
	<path fill="#EBEFE5" d="M221.166,45.355c-3.088-3.788-5.651-7.907-7.775-12.306c0.529-0.021,0.861-0.338,1.199-0.718
		c4.238-4.763,9.713-6.764,15.929-7.102c3.432,6.298,7.503,12.08,13.339,16.418c1.814,1.35,3.695,2.605,5.871,3.331
		c2.749,1.355,5.645,2.119,8.721,2.148c0.156,0.072,0.312,0.143,0.471,0.214c0.024,0.58,0.142,1.124,0.549,1.577
		c5.572,6.185,12.254,9.42,20.781,8.016c9.975-1.641,16.539-11.56,16.637-18.256c-1.086,1.675-1.905,3.269-3.024,4.611
		c-5.776,6.938-13.207,10.148-22.214,9.245c-4.316-0.435-8.45-1.65-11.71-4.816c1.646-0.021,3.288-0.045,4.933-0.066
		c3.455,0.277,6.825-0.347,10.197-0.956c1.898-0.125,3.757-0.4,5.403-1.457c0.392-0.093,0.788-0.165,1.175-0.276
		c5.818-1.68,10.941-4.727,15.895-8.105c3.961,0.12,7.945-0.122,11.854,0.795c2.049,0.747,4.098,1.494,6.146,2.24
		c8.998,4.558,15.896,11.457,21.754,19.518c-3.105,1.35-4.857,3.831-5.773,6.983c-0.387,1.328-0.307,2.713,0.898,3.502
		c1.227,0.803,2.275-0.146,3.24-0.902c1.828-1.438,3.529-3.079,5.877-3.688c2.334,3.293,4.459,6.715,6.389,10.259
		c-1.162,1.771-2.721,3.215-4.33,4.509c-3.367,2.708-6.744,5.53-11.385,5.794c-2.596-4.06-5.176-8.128-7.803-12.167
		c-0.514-0.79-0.924-1.72-1.891-2.127c-1.166-2.934-3.334-5.004-5.834-6.792c-1.709-3.104-4.582-4.84-7.457-6.667
		c-0.666,0.977-0.379,1.769-0.227,2.529c1.137,5.652,2.861,11.131,4.766,16.565c1.686,4.812,3.26,9.662,4.883,14.495
		c-0.512,0.221-1.061,0.381-1.529,0.671c-5.252,3.236-10.682,6.149-16.306,8.67c-8.635,3.87-17.472,6.99-27.178,6.275
		c-0.498-1.458-1.028-2.905-1.489-4.374c-3.5-11.146-6.277-22.517-10.654-33.391c-0.986-2.453-2.172-3.879-4.947-3.302
		c-2.451-0.476-4.933-0.838-7.352-1.448c-9.011-2.273-16.633-6.929-23.011-13.659c2.454-2.244,5.211-4.307,4.956-8.19
		c-0.059-0.869,0.199-1.901-0.803-2.387c-1.09-0.529-1.987-0.018-2.888,0.677C225.462,42.779,223.628,44.554,221.166,45.355z
		 M279.13,94.214c0.646-0.072,1.315-0.056,1.934-0.228c7.285-2.023,14.572-4.04,21.837-6.135c2.851-0.82,3.622-2.03,2.862-4.932
		c-1.668-6.37-3.494-12.699-5.312-19.028c-0.594-2.065-2.096-2.884-4.156-2.323c-7.688,2.089-15.373,4.192-23.032,6.384
		c-2.787,0.797-3.478,2.153-2.722,4.978c1.659,6.204,3.388,12.391,5.086,18.583C276.115,93.296,277.119,94.393,279.13,94.214z"/>
	<path fill="#EBEFE5" d="M328.763,110.54c0.123,0.812,0.359,1.573,0.984,2.157c1.357,2.245,2.717,4.489,4.074,6.734
		c-3.656,5.683-8.848,9.312-15.215,11.364c-2.564-3.25-5.15-6.484-7.684-9.759c-1.338-1.73-2.252-4.434-3.959-5.061
		c-1.869-0.686-3.967,1.704-6.15,2.236c-1.643,0.399-1.68,1.239-1.211,2.628c1.77,5.232,3.947,10.288,6.318,15.269
		c-4.68,4.504-10.239,7.147-16.693,7.906c-5.172-7.712-9.062-16.055-12.196-24.771c-0.269-0.748-0.628-1.463-0.944-2.194
		c-0.514-2.104-1.026-4.208-1.541-6.311c4.791-0.091,9.506-0.716,14.133-1.978c11.14-3.036,21.176-8.452,30.98-14.362
		c2.258,2.891,3.078,6.577,5.266,9.508C325.925,106.281,326.964,108.63,328.763,110.54z"/>
	<path fill="#C8CCBB" d="M230.517,25.23c-6.215,0.338-11.689,2.339-15.93,7.102c-0.338,0.38-0.668,0.695-1.198,0.718
		c-3.847-6.624-6.472-13.749-8.104-21.186c-0.959-4.364,1.862-8.605,6.098-10.219c4.209-1.602,8.854-0.164,11.301,3.703
		c0.828,1.31,1.22,1.884,2.627,0.55c1.085-1.027,2.588-0.813,3.811,0.18c1.084,0.881,1.473,2.145,0.84,3.288
		C226.951,14.8,228.246,20.018,230.517,25.23z"/>
	<path fill="#C8CCBB" d="M332.208,85.867c4.641-0.264,8.018-3.085,11.385-5.794c1.609-1.294,3.166-2.738,4.33-4.509
		c3.307,4.989,6.043,10.304,8.5,15.734c2.072,4.583-0.188,9.903-4.713,12.082c-4.535,2.183-9.867,0.588-12.385-3.874
		c-0.883-1.565-1.357-2.753-3.68-1.903c-2.102,0.77-3.934-1.292-3.627-3.551c0.021-0.16,0.055-0.33,0.133-0.467
		C333.613,91.021,333.736,88.451,332.208,85.867z"/>
	<path fill="#B4B9A3" d="M274.546,110.741c0.515,2.104,1.027,4.208,1.541,6.312c-0.623,0.181-1.262,0.32-1.865,0.549
		c-1.223,0.462-1.766,0.216-2.195-1.191c-5.107-16.734-10.309-33.44-15.484-50.153c2.775-0.578,3.961,0.849,4.946,3.302
		c4.378,10.874,7.155,22.245,10.655,33.391c0.461,1.469,0.99,2.916,1.488,4.374C273.688,108.528,273.976,109.672,274.546,110.741z"
		/>
	<path fill="#B4B9A3" d="M324.925,103.909c-2.188-2.931-3.008-6.617-5.266-9.505c-0.15-0.971,0.125-2.101-1.016-2.7
		c-1.623-4.833-3.197-9.684-4.881-14.495c-1.904-5.434-3.631-10.914-4.766-16.565c-0.154-0.761-0.439-1.554,0.225-2.529
		c2.877,1.827,5.748,3.562,7.457,6.667c0.018,0.484-0.053,0.991,0.062,1.454c2.857,11.416,5.736,22.825,8.602,34.239
		c0.158,0.631,0.16,1.329,1.01,1.47C326.41,102.986,326.068,103.738,324.925,103.909z"/>
	<path fill="#EBEFE4" d="M264.826,16.882c-4.353,1.389-8.044,4.028-11.92,6.316c2.004-6.2,6.325-10.408,12.062-12.984
		c8.984-4.035,17.675-3.495,25.645,2.773c-1.587,0.004-3.174,0.009-4.762,0.013c-1.654-1.172-3.294,0.353-4.943,0.027
		c-3.504,0.141-6.919,0.76-10.236,1.898C268.625,15.286,266.66,15.885,264.826,16.882z"/>
	<path fill="#D6D9CE" d="M326.353,101.944c-0.848-0.141-0.85-0.839-1.01-1.47c-2.863-11.414-5.742-22.823-8.6-34.239
		c-0.115-0.462-0.047-0.969-0.062-1.454c2.5,1.787,4.668,3.857,5.834,6.792c-0.326,0.142-0.541,0.372-0.443,0.744
		c1.996,7.592,3.193,15.355,4.996,22.984C327.638,97.713,326.847,99.761,326.353,101.944z"/>
	<path fill="#B4B9A3" d="M297.539,36.857c0.426-1.602,0.996-3.171,1.066-4.85c0.654-1.323,1.312-2.646,1.967-3.97
		c2.116-0.367,4.051-1.592,6.299-1.333c0.789,3.662,2.055,7.212,2.521,10.948C305.484,36.735,301.5,36.976,297.539,36.857z"/>
	<path fill="#C8CCBB" d="M289.229,144.017c6.454-0.759,12.015-3.402,16.692-7.906c0.65,1.146,1.303,2.292,1.953,3.438
		c-2.516,2.622-5.865,3.835-8.998,5.444c-2.345,1.204-5.183,1.062-7.283,2.829c-0.282-0.345-0.564-0.688-0.846-1.03
		c-0.469-0.771-0.937-1.54-1.403-2.312C289.244,144.341,289.205,144.187,289.229,144.017z"/>
	<path fill="#BBC2AB" d="M341.535,65.306c-2.348,0.609-4.049,2.25-5.877,3.688c-0.965,0.757-2.014,1.705-3.24,0.902
		c-1.205-0.788-1.285-2.174-0.898-3.502c0.916-3.152,2.668-5.634,5.773-6.983C339.007,61.158,340.392,63.145,341.535,65.306z"/>
	<path fill="#BBC2AB" d="M221.166,45.355c2.463-0.801,4.297-2.576,6.281-4.107c0.899-0.694,1.797-1.206,2.889-0.677
		c1.002,0.485,0.744,1.519,0.802,2.387c0.255,3.884-2.503,5.946-4.956,8.19C224.134,49.54,222.53,47.552,221.166,45.355z"/>
	<path fill="#D6D9CE" d="M309.39,37.652c-0.465-3.735-1.73-7.286-2.52-10.948c1.996,1.199,3.969,2.438,5.998,3.579
		c0.863,0.483,0.896,1.28,1.062,2.04c0.557,2.519,1.072,5.046,1.605,7.569C313.49,39.146,311.439,38.399,309.39,37.652z"/>
	<path fill="#C8CCBB" d="M251.146,28.628c-0.361,5.34,1.309,10.14,3.898,14.695c-1.438,0.067-2.416-0.919-3.554-1.543
		C247.264,36.847,247.183,33.768,251.146,28.628z"/>
	<path fill="#C8CCBB" d="M300.572,28.036c-0.654,1.323-1.312,2.646-1.967,3.97c0.548-5.311-1.133-10.112-3.372-14.787
		C300.205,19.339,301.796,22.565,300.572,28.036z"/>
	<path fill="#B4B9A3" d="M251.492,41.781c1.139,0.624,2.116,1.61,3.555,1.543c1.134,1.269,2.269,2.538,3.401,3.806
		c-3.075-0.03-5.972-0.794-8.721-2.149C249.156,43.274,248.893,41.739,251.492,41.781z"/>
	<path fill="#C8CCBB" d="M295.271,17.332c-0.202-0.151-0.404-0.303-0.605-0.454C294.867,17.03,295.069,17.181,295.271,17.332z"/>
	<path fill="#EBEFE4" d="M253.082,23.175c-0.152,0.179-0.305,0.358-0.457,0.537C252.686,23.456,252.548,23.031,253.082,23.175z"/>
	<path fill="#EBEFE4" d="M346.953,135.78c0.146,0.827,0.611,1.441,1.285,1.917c3.678,4.183,7.781,7.926,11.949,11.603
		c-0.188,1.007,0.16,1.926,0.48,2.843c1.883,5.35,3.76,10.701,5.668,16.042c0.883,2.474,0.494,3.902-1.607,4.472
		c-3.98,1.075-7.877,2.483-11.965,3.146c-1.195-4.864-2.428-9.72-3.562-14.598c-0.35-1.503-1.057-2.552-2.332-3.479
		c-5.711-4.145-11.131-8.645-16.062-13.708c0.277-1.316,1.518-1.576,2.428-2.189c3.932-2.654,7.447-5.725,9.896-9.862
		C344.525,133.116,345.175,135.01,346.953,135.78z"/>
	<path fill="#EBEFE4" d="M317.673,189.448c-1.186-4.887-2.391-9.768-3.541-14.66c-0.385-1.635-1.143-2.917-2.438-4.061
		c-4.203-3.717-8.132-7.719-11.66-12.095c0.331-0.771,1.098-0.856,1.754-1.146c3.32-1.469,6.518-3.149,9.383-5.423
		c0.984-0.779,1.605-2.085,3.061-2.218c3.412,4.424,6.791,8.875,10.676,12.909c0.236,0.857,0.432,1.729,0.717,2.569
		c1.943,5.688,3.912,11.37,5.854,17.061c0.494,1.447,0.863,3.272-0.871,3.817C326.373,187.534,322.189,189.191,317.673,189.448z"/>
	<path fill="#C8CCBB" d="M317.673,189.448c4.516-0.258,8.697-1.914,12.934-3.245c1.732-0.545,1.365-2.37,0.871-3.817
		c-1.941-5.689-3.91-11.371-5.854-17.061c-0.287-0.84-0.48-1.712-0.717-2.569c1,0.361,1.523,1.216,1.945,2.076
		c2.639,5.386,5.277,10.771,7.822,16.202c1.08,2.305,1.641,4.743,1.043,7.337c-0.941,4.094-4.852,7.237-9.225,7.354
		C322.5,195.829,318.835,193.222,317.673,189.448z"/>
	<path fill="#C8CCBB" d="M352.763,175.8c4.088-0.661,7.984-2.069,11.965-3.146c2.104-0.568,2.49-1.998,1.607-4.472
		c-1.908-5.341-3.785-10.692-5.668-16.042c-0.32-0.917-0.67-1.836-0.48-2.843c0.752,0.27,1.131,0.909,1.445,1.559
		c2.75,5.674,5.635,11.287,8.168,17.057c2.076,4.726,0.971,8.922-2.6,11.838C362.269,183.783,354.121,181.553,352.763,175.8z"/>
	<path fill="#A0A78C" d="M291.593,147.822c2.102-1.769,4.938-1.625,7.283-2.829c3.133-1.608,6.482-2.822,8.998-5.444
		c0.324,0.474,0.648,0.949,0.977,1.421c0.09,1.053,0.457,1.951,1.4,2.531c0.561,0.924,1.119,1.847,1.68,2.771
		c-1.027,0.649-2.062,1.286-3.082,1.948c-3.969,2.574-8.137,4.688-12.838,5.575C294.208,152.047,292.841,149.978,291.593,147.822z"
		/>
	<path fill="#C8CCBB" d="M343.13,131.964c-2.449,4.139-5.965,7.208-9.896,9.862c-0.91,0.613-2.148,0.873-2.428,2.189
		c-1.459-1.319-2.918-2.641-4.375-3.96c0.143-0.318,0.283-0.639,0.428-0.958c5.436-2.311,10.125-5.616,13.754-10.333
		C341.628,129.694,342.468,130.759,343.13,131.964z"/>
	<path fill="#C8CCBB" d="M296.011,153.794c4.701-0.887,8.869-3.001,12.838-5.575c1.02-0.662,2.055-1.299,3.082-1.948
		c0.844,1.145,1.799,2.214,2.301,3.575c-1.453,0.133-2.076,1.438-3.061,2.218c-2.865,2.272-6.062,3.954-9.383,5.423
		c-0.656,0.29-1.423,0.375-1.754,1.146C298.429,157.241,297.189,155.543,296.011,153.794z"/>
	<path fill="#A0A78C" d="M326.859,139.099c-0.684-0.18-1.365-0.36-2.049-0.541c-1.426-1.769-2.85-3.538-4.273-5.306
		c1.9-0.868,3.826-1.685,5.697-2.615c3.857-1.92,6.844-5.008,10.127-7.697c1.59,1.817,3.092,3.696,4.252,5.826
		C336.984,133.484,332.294,136.789,326.859,139.099z"/>
	<path fill="#C8CCBB" d="M336.361,122.942c-3.283,2.688-6.27,5.776-10.127,7.696c-1.871,0.931-3.797,1.747-5.697,2.615
		c-0.643-0.818-1.285-1.637-1.928-2.456c6.367-2.053,11.557-5.682,15.215-11.364C334.925,120.415,335.603,121.708,336.361,122.942z"
		/>
	<path fill="#CACEBE" d="M279.13,94.214c-2.014,0.179-3.017-0.918-3.504-2.701c-1.698-6.192-3.427-12.379-5.086-18.583
		c-0.756-2.823-0.065-4.18,2.722-4.978c7.659-2.191,15.345-4.295,23.032-6.384c2.062-0.562,3.562,0.257,4.156,2.323
		c1.817,6.33,3.645,12.659,5.312,19.028c0.76,2.901-0.012,4.111-2.862,4.932c-7.265,2.095-14.552,4.111-21.837,6.135
		C280.447,94.159,279.777,94.142,279.13,94.214z M303.167,82.917c-1.619-5.699-3.178-11.417-4.901-17.084
		c-0.447-1.472-1.775-1.68-3.239-1.244c-3.425,1.021-6.876,1.953-10.311,2.944c-2.84,0.818-3.33,1.71-2.514,4.625
		c1.291,4.615,2.604,9.225,3.928,13.832c0.795,2.773,1.6,3.285,4.396,2.574c3.542-0.899,7.058-1.902,10.581-2.877
		C302.47,85.31,303.166,84.438,303.167,82.917z M279.478,75.012c-0.073-1.926-1.003-2.925-2.678-3.142
		c-1.387-0.181-3.18,1.472-3.045,2.901c0.152,1.609,1.002,2.765,2.824,2.733C278.324,77.476,279.21,76.468,279.478,75.012z
		 M279.664,89.266c2.024,0.023,3.047-1.073,3.074-2.662c0.027-1.586-0.938-2.76-2.761-2.736c-1.726,0.021-2.828,0.949-2.87,2.643
		C277.063,88.231,278.207,89.094,279.664,89.266z"/>
	<path fill="#DFE3D7" d="M259.917,47.239c-0.002,0.161,0.004,0.32,0.019,0.48c3.26,3.167,7.394,4.383,11.71,4.817
		c9.007,0.903,16.438-2.308,22.214-9.245c1.119-1.344,1.938-2.938,3.024-4.611c-0.098,6.696-6.662,16.615-16.637,18.256
		c-8.527,1.404-15.209-1.831-20.781-8.016c-0.407-0.453-0.523-0.997-0.549-1.577C259.251,47.307,259.585,47.273,259.917,47.239z"/>
	<path fill="#CACEBE" d="M318.646,91.704c1.141,0.6,0.863,1.729,1.014,2.7c-9.805,5.908-19.841,11.324-30.979,14.359
		c-4.627,1.262-9.343,1.887-14.132,1.978c-0.571-1.069-0.859-2.214-0.914-3.421c9.705,0.715,18.543-2.405,27.178-6.275
		c5.623-2.521,11.053-5.435,16.305-8.67C317.585,92.085,318.132,91.925,318.646,91.704z"/>
	<path fill="#EBEFE5" d="M303.167,82.917c-0.002,1.521-0.696,2.393-2.062,2.771c-3.522,0.975-7.039,1.979-10.581,2.877
		c-2.796,0.711-3.6,0.199-4.396-2.574c-1.321-4.607-2.637-9.217-3.928-13.832c-0.815-2.915-0.326-3.807,2.514-4.625
		c3.436-0.991,6.887-1.923,10.312-2.944c1.464-0.436,2.792-0.228,3.239,1.244C299.99,71.5,301.546,77.218,303.167,82.917z"/>
	<path fill="#EBEFE4" d="M279.478,75.012c-0.268,1.456-1.154,2.464-2.896,2.493c-1.822,0.03-2.672-1.125-2.824-2.733
		c-0.137-1.43,1.658-3.082,3.043-2.901C278.475,72.087,279.405,73.086,279.478,75.012z"/>
	<path fill="#EBEFE5" d="M279.664,89.266c-1.457-0.172-2.601-1.035-2.557-2.756c0.042-1.693,1.146-2.621,2.87-2.643
		c1.823-0.023,2.788,1.15,2.761,2.736C282.71,88.193,281.688,89.289,279.664,89.266z"/>
	<path fill="#88CDDE" d="M297.539,36.857c-4.953,3.379-10.076,6.426-15.895,8.105c-0.387,0.111-0.783,0.185-1.176,0.276
		c0.755-4.293,1.541-8.58,2.253-12.88c1.065-6.449,2.599-12.823,3.13-19.358c1.588-0.004,3.175-0.009,4.762-0.013
		c1.768,0.863,2.827,2.462,4.053,3.891c0.201,0.151,0.403,0.303,0.605,0.454c0,0-0.038-0.113-0.038-0.112
		c2.239,4.675,3.92,9.478,3.372,14.786C298.535,33.685,297.964,35.255,297.539,36.857z"/>
	<path fill="#88CDDE" d="M258.917,47.343c-0.156-0.072-0.312-0.143-0.47-0.214c-1.134-1.268-2.269-2.537-3.401-3.806
		c-2.592-4.557-4.262-9.355-3.899-14.695c0.606-1.605,0.36-3.466,1.479-4.917c0.151-0.179,0.304-0.358,0.457-0.537l-0.078,0.099
		c0,0-0.1-0.075-0.099-0.075c3.876-2.288,7.567-4.928,11.921-6.315c-0.416,2.793-0.797,5.591-1.252,8.377
		c-1.201,7.329-2.436,14.653-3.656,21.979C259.585,47.273,259.251,47.307,258.917,47.343z"/>
	<path fill="#88CDDE" d="M270.669,14.927c3.318-1.139,6.733-1.758,10.237-1.898c-1.946,11.223-3.895,22.444-5.842,33.668
		c-3.372,0.609-6.742,1.233-10.198,0.957c0.147-0.714,0.313-1.423,0.439-2.14C267.098,35.32,268.884,25.122,270.669,14.927z"/>
	<path fill="#BCE3EC" d="M275.066,46.697c1.947-11.224,3.895-22.445,5.842-33.668c1.649,0.325,3.289-1.199,4.943-0.027
		c-0.531,6.535-2.062,12.909-3.13,19.358c-0.712,4.3-1.498,8.587-2.253,12.88C278.823,46.296,276.964,46.572,275.066,46.697z"/>
	<path fill="#BCE3EC" d="M270.669,14.927c-1.785,10.196-3.571,20.393-5.362,30.587c-0.126,0.716-0.292,1.426-0.438,2.14
		c-1.645,0.021-3.287,0.044-4.933,0.065c-0.015-0.16-0.021-0.32-0.019-0.48c1.222-7.326,2.455-14.649,3.655-21.979
		c0.456-2.786,0.837-5.584,1.252-8.377C266.66,15.885,268.625,15.286,270.669,14.927z"/>
	<path d="M288.091,19.52c-0.407-1.343-1.821-2.098-3.161-1.691c-1.341,0.408-2.097,1.822-1.689,3.16
		c0.406,1.34,1.82,2.096,3.161,1.689C287.74,22.274,288.498,20.859,288.091,19.52z"/>
	<circle cx="263.263" cy="27.042" r="2.535"/>
	<path fill="#ED1A3B" d="M275.744,40.517c0.541,1.782,2.432,2.794,4.215,2.254c1.782-0.54,2.793-2.433,2.252-4.216"/>
	<path fill="#F3A68C" d="M277.748,31.452c0.238,0.791-0.207,1.623-0.996,1.862l0,0c-0.791,0.24-1.625-0.206-1.862-0.995
		l-1.905-6.282c-0.238-0.79,0.205-1.625,0.997-1.863l0,0c0.789-0.242,1.625,0.206,1.864,0.995L277.748,31.452z"/>
	<g>
		<path opacity="0.8" fill="#88CDDE" enable-background="new    " d="M296.914,36.742c-4.953,3.378-10.076,6.425-15.895,8.104
			c-0.387,0.111-0.783,0.186-1.176,0.276c0.755-4.293,1.541-8.58,2.253-12.88c1.065-6.449,2.599-12.823,3.13-19.358
			c1.588-0.004,3.175-0.009,4.762-0.013c1.768,0.864,2.827,2.462,4.053,3.891c0.201,0.151,0.403,0.304,0.605,0.454
			c0,0-0.038-0.113-0.038-0.112c2.239,4.676,3.92,9.478,3.372,14.786C297.91,33.571,297.339,35.14,296.914,36.742z"/>
		<path opacity="0.8" fill="#88CDDE" enable-background="new    " d="M258.292,47.228c-0.156-0.071-0.312-0.143-0.47-0.214
			c-1.134-1.268-2.269-2.537-3.401-3.806c-2.592-4.556-4.262-9.355-3.899-14.695c0.606-1.604,0.36-3.466,1.479-4.917
			c0.151-0.179,0.304-0.357,0.457-0.537l-0.078,0.1c0,0-0.1-0.076-0.099-0.076c3.876-2.288,7.567-4.927,11.921-6.315
			c-0.416,2.793-0.797,5.592-1.252,8.377c-1.201,7.329-2.436,14.653-3.656,21.979C258.96,47.158,258.626,47.193,258.292,47.228z"/>
		<path opacity="0.8" fill="#88CDDE" enable-background="new    " d="M270.044,14.811c3.318-1.139,6.733-1.758,10.237-1.898
			c-1.946,11.223-3.895,22.444-5.842,33.668c-3.372,0.609-6.742,1.233-10.198,0.957c0.147-0.713,0.313-1.422,0.439-2.14
			C266.473,35.203,268.259,25.007,270.044,14.811z"/>
		<path opacity="0.8" fill="#BCE3EC" enable-background="new    " d="M274.441,46.58c1.947-11.224,3.895-22.445,5.842-33.668
			c1.649,0.326,3.289-1.199,4.943-0.027c-0.531,6.535-2.062,12.909-3.13,19.358c-0.712,4.3-1.498,8.587-2.253,12.88
			C278.198,46.181,276.339,46.456,274.441,46.58z"/>
		<path opacity="0.8" fill="#BCE3EC" enable-background="new    " d="M270.044,14.811c-1.785,10.196-3.571,20.393-5.362,30.587
			c-0.126,0.717-0.292,1.427-0.438,2.14c-1.645,0.021-3.287,0.044-4.933,0.065c-0.015-0.159-0.021-0.319-0.019-0.48
			c1.222-7.326,2.455-14.649,3.655-21.979c0.456-2.786,0.837-5.584,1.252-8.377C266.035,15.769,268,15.171,270.044,14.811z"/>
	</g>
</g>
</svg>
