<?xml version="1.0" encoding="utf-8"?>
<!-- Generator: Adobe Illustrator 16.0.0, SVG Export Plug-In . SVG Version: 6.00 Build 0)  -->
<!DOCTYPE svg PUBLIC "-//W3C//DTD SVG 1.1//EN" "http://www.w3.org/Graphics/SVG/1.1/DTD/svg11.dtd">
<svg version="1.1" id="Layer_1" xmlns="http://www.w3.org/2000/svg" xmlns:xlink="http://www.w3.org/1999/xlink" x="0px" y="0px"
	 width="536px" height="468.199px" viewBox="0 0 536 468.199" enable-background="new 0 0 536 468.199" xml:space="preserve">
<ellipse fill-rule="evenodd" clip-rule="evenodd" fill="#2868AE" cx="268.206" cy="401.133" rx="263.206" ry="62.867"/>
<path fill-rule="evenodd" clip-rule="evenodd" fill="#FEFEFE" d="M290.411,147.083c-7.934-4.643-15.57-9.722-22.893-15.292
	c-2.477-1.885-5.3-3.314-7.965-4.952c-3.679-2.531-7.347-5.079-11.039-7.591c-10.418-7.086-13.334-18.124-7.451-29.14
	c6.644-12.44,13.473-24.781,20.221-37.166c1.322-0.289,2.658-0.326,3.87,0.313c6.515,3.438,13.609,5.907,18.965,11.296
	c0.964,2.511-0.379,4.519-1.537,6.508c-2.921,5.018-5.868,10.021-8.706,15.085c-2.891,5.159-2.669,6.07,1.957,9.438
	c14.217,10.347,28.659,20.373,43.084,30.427c3.545,2.471,6.566,3.815,9.552-0.61c0.622-0.923,1.825-1.413,3.029-1.58
	c2.512-0.207,4.472,1.113,6.392,2.419c15.254,10.374,30.951,20.074,46.202,30.453c2.056,1.398,4.196,2.717,5.616,4.863
	c11.059,20.299,20.22,41.512,30.051,62.401c2.901,6.165,5.652,12.4,8.188,18.729c2.055,5.128,1.828,10.08-0.984,14.85
	c-7.514,12.74-15.36,25.276-23.308,37.75c-1.181,1.853-2.709,3.374-4.96,3.937c-2.26,0.341-4.15-0.632-6.043-1.662
	c-4.903-2.667-9.678-5.556-14.447-8.451c-1.839-1.116-3.636-2.307-3.988-4.701c-0.079-2.621,1.328-4.704,2.539-6.852
	c5.268-9.336,10.899-18.461,16.097-27.838c1.048-1.89,2.224-3.763,0.687-5.948c-4.382-8.404-8.395-16.976-11.713-25.858
	c-2.949-5.713-3.683-12.282-6.62-18.107c-2.081,1.019-2.741,2.807-3.728,4.272c-11.291,16.781-22.795,33.419-33.921,50.312
	c-1.524,2.316-2.819,4.983-6.011,5.548c-2.313,0.042-4.105-1.229-5.875-2.448c-17.369-11.964-34.451-24.337-51.809-36.318
	c-1.763-1.217-3.558-2.52-3.983-4.882c0.862-4.578,3.888-8.041,6.327-11.747c8.783-13.347,17.687-26.613,26.326-40.056
	c3.297-5.131,3.213-5.048-1.609-8.6C297.249,153.179,292.428,151.781,290.411,147.083z"/>
<path fill-rule="evenodd" clip-rule="evenodd" fill="#FEFEFE" d="M361.509,78.945c7.7-7.477,16.174-13.592,27.105-15.364
	c12.617-2.045,24.342,0.006,34.854,7.608c3.354,6.462,2.642,14.668-1.659,19.286c-2.062,0.924-3.988,0.229-5.529-1.007
	c-6.313-5.063-13.773-7.51-21.37-9.691c-18.602-4.09-38.408,5.913-36.486,27.62c0.32,3.623,0.518,7.283,2.381,10.558
	c2.004,3.885,3.365,8.174,6.977,11.045c5.861,6.371,12.613,11.45,20.777,14.544c1.695,0.643,3.318,1.518,3.779,3.557
	c-0.045,3.717-2.098,5.882-5.439,7.056c-2.707,0.4-4.788-1.054-6.874-2.411c-14.067-9.155-28.114-18.341-42.063-27.674
	c-1.797-1.202-3.715-2.289-4.177-4.684c1.511-5.704,4.888-10.014,9.868-13.115c1.281-1.755,2.563-3.51,3.846-5.264
	C349.423,91.911,354.392,84.746,361.509,78.945z"/>
<path fill-rule="evenodd" clip-rule="evenodd" fill="#FEFEFE" d="M263.947,47.817c5.325-9.96,10.465-20.025,16.021-29.855
	c7.296-12.911,23.643-14.271,33.557-3.01c0.795,1.879,0.227,3.565-0.746,5.188c-7.498,12.503-14.793,25.127-22.357,37.589
	c-0.691,1.139-1.514,2.176-2.676,2.894c-1.648,0.735-3.262,0.379-4.791-0.305c-5.581-2.496-10.766-5.742-16.141-8.628
	C265.278,50.865,264.437,49.453,263.947,47.817z"/>
<path fill-rule="evenodd" clip-rule="evenodd" fill="#EAEAEA" d="M420.253,90.127c3.584-2.719,2.447-6.93,3.124-10.495
	c0.517-2.722,0.095-5.622,0.091-8.442c18.919,12.515,25.29,35.837,15.793,57.812c0.078,1.819,0.133,3.604-0.859,5.282
	c-2.871,4.856-6.049,9.509-9.275,14.129c-0.883,1.264-2.033,2.181-3.66,2.299c-1.399,2.076-2.799,4.153-4.197,6.23
	c-1.065,6.213-3.043,11.803-9.688,14.225c-8.936-3.534-16.473-9.36-24.166-14.918c-0.938-0.678-1.445-1.786-1.174-3.061
	c2.564-1.434,4.176-3.668,5.303-6.31c0.464-0.711,1.134-1.111,1.945-1.295c8.01,1.438,15.889,0.87,23.385-2.308
	c12.729-5.396,18.347-18.871,14.152-33.333c-1.848-5.251-5.059-9.688-8.345-14.098C421.429,94.165,419.625,92.64,420.253,90.127z"/>
<path fill-rule="evenodd" clip-rule="evenodd" fill="#EAEAEA" d="M331.667,124.892c-0.418,0.27-0.901,0.474-1.244,0.818
	c-6.158,6.179-6.229,6.289-13.438,1.263c-14.962-10.433-29.784-21.066-44.78-31.451c-4.881-3.381-1.904-6.857-0.299-9.929
	c3.221-6.164,7.004-12.034,10.533-18.039c0.414-0.704,0.686-1.492,1.024-2.242c4.288-0.916,11.119,2.547,13.857,7.024
	c-3.015,5.701-5.77,11.562-9.136,17.049c-2.262,3.686-2.136,5.653,1.845,8.016c7.68,4.559,14.986,9.746,22.447,14.672
	c7.678,1.085,12.956,6.314,18.669,10.802C331.62,123.469,331.87,124.122,331.667,124.892z"/>
<path fill-rule="evenodd" clip-rule="evenodd" fill="#EAEAEA" d="M287.437,60.223c3.966-9.366,10.002-17.566,14.9-26.41
	c3.541-6.392,7.445-12.581,11.188-18.86c5.824,6.301,6.418,13.487,3.323,21.132c-1.173,2.896-2.896,5.567-4.325,8.363
	c-1.641,3.214-3.968,5.814-1.172,10.192c2.543,3.98-2.211,10.835-7.365,12.091c-1.264,0.308-2.56,0.477-3.841,0.709
	C294.554,67.895,289.186,64.847,287.437,60.223z"/>
<path fill-rule="evenodd" clip-rule="evenodd" fill="#A1ADAD" d="M330.505,123.73c-6.01-3.886-12.02-7.772-18.029-11.658
	c2.104,0.094,2.625-1.706,3.525-3.002c6.396-9.21,14.184-10.763,23.727-4.726c1.233,0.78,2.32,1.89,3.924,1.928
	c-2.421,4.719-6,8.616-9.125,12.834C333.296,120.744,332.519,122.774,330.505,123.73z"/>
<path fill-rule="evenodd" clip-rule="evenodd" fill="#EA6C57" d="M287.437,60.223c4.237,2.404,8.475,4.809,12.709,7.215
	c-0.749,1.745-1.398,3.545-2.826,4.896c-4.619-2.34-9.238-4.682-13.857-7.022c-7.393-4.123-14.785-8.246-22.178-12.369
	c0.343-1.992,1.262-3.687,2.663-5.127C271.777,51.953,279.607,56.088,287.437,60.223z"/>
<path fill-rule="evenodd" clip-rule="evenodd" fill="#C6C6C7" d="M425.466,150.712c4.598-7.237,9.197-14.474,13.795-21.71
	c4.045,3.404,4.363,7.034,0.896,11.118c-1.151,1.356-1.855,3.092-2.765,4.653c-0.965,1.281-1.965,2.537-2.889,3.848
	C432.104,152.026,429.199,153.133,425.466,150.712z"/>
<path fill-rule="evenodd" clip-rule="evenodd" fill="#DFDFDF" d="M361.509,78.945c-4.671,7.354-9.342,14.709-14.012,22.063
	c0.225-2.802-3.586-4.728-1.881-7.751c2.846-5.048,5.787-10.091,9.668-14.404C356.96,76.99,359.454,77.113,361.509,78.945z"/>
<path fill-rule="evenodd" clip-rule="evenodd" fill="#A1ADAD" d="M290.411,147.083c5.315,3.38,10.602,6.807,15.961,10.115
	c1.905,1.176,1.852,2.281,0.697,4.019c-12.168,18.301-24.274,36.643-36.396,54.973c-1.416,1.946-2.045,4.521-4.499,5.65
	c-7.651-0.381-14.75-2.414-20.969-7.062c-0.242-1.069,0.264-1.929,0.875-2.706c6.203-7.888,10.846-16.82,16.696-24.941
	c3.769-5.633,7.178-11.505,11.207-16.967c2.584-4.12,4.59-8.719,9.207-11.161c1.913-3.279,3.826-6.56,5.74-9.839
	C289.425,148.471,289.918,147.777,290.411,147.083z"/>
<path fill-rule="evenodd" clip-rule="evenodd" fill="#A1ADAD" d="M432.258,166.089c2.566,3.895,3.582,8.176,3.19,12.808
	c-0.682,1.65-1.363,3.301-2.046,4.95c-0.415,5.308-3.954,9.006-6.728,13.104c-1.469,1.949-2.323,4.615-5.422,4.674
	c-0.653-0.155-1.362-0.366-1.694-0.94c-4.453-7.702-8.778-15.465-10.771-24.263c1.316-1.916,1.867-4.203,2.953-6.236
	c4.449-3.498,6.133-8.986,9.527-13.242C423.562,161.637,429.104,162.427,432.258,166.089z"/>
<path fill-rule="evenodd" clip-rule="evenodd" fill="#2868AE" d="M478.421,370.183c10.233,4.074,20.646,7.752,30.083,13.587
	c3.647,2.834,7.519,5.408,10.133,9.384c3.978,6.049,3.605,11.794-1.065,17.311c-3.695,4.364-8.432,7.387-13.078,10.542
	c-5.678,2.625-11.355,5.249-17.032,7.872c-3.507,0.484-6.776,1.707-9.966,3.184c-1.999,0.337-3.998,0.674-5.998,1.01
	c-2.885-2.654-2.127-5.58-0.648-8.555c1.047-3.204,3.939-4.34,6.587-5.625c5.429-2.637,10.333-5.926,14.291-10.54
	c4.062-4.737,4.097-10.116-0.055-14.752c-6.005-6.704-13.726-10.724-21.999-13.845c-3.29-1.37-6.967-2.057-9.271-5.189
	c-0.774-3.216-3.771-6.01-1.876-9.745c2.009-1.642,4.123-0.561,6.209-0.242C469.534,365.864,474.763,366.109,478.421,370.183z"/>
<path fill-rule="evenodd" clip-rule="evenodd" fill="#FEFEFE" d="M205.787,318.401"/>
<path fill-rule="evenodd" clip-rule="evenodd" fill="#FEFEFE" d="M199.273,328.305"/>
<path fill-rule="evenodd" clip-rule="evenodd" fill="#FEFEFE" d="M216.148,301.235c2.739-4.469,8.069-5.694,11.549-9.239
	c3.844-3.332,8.418-5.698,12.137-9.198c3.315-2.238,6.172-5.195,10.089-6.498c5.458-3.43,11.083-6.601,16.841-10.539
	c-6.451-3.431-13.079-5.025-19.385-7.389c-16.36-6.13-32.867-11.861-49.278-17.856c-5.979-2.184-6.256-2.12-9.944,2.989
	c-10.615,14.708-21.283,29.377-31.969,44.033c-1.951,2.676-3.738,5.64-7.665,5.705c-3.258-0.46-5.638-2.625-8.226-4.336
	c-6.049-4.001-12.096-8.005-18.1-12.073c-1.769-1.198-3.587-2.393-4.361-4.565c-0.513-2.533,0.909-4.443,2.088-6.434
	c3.66-6.177,7.416-11.535,10.76-16.662c3.855-5.656,6.803-12.026,12.607-16.165c1.12-1.652,2.24-3.304,3.36-4.955
	c0.544-6.218,4.292-10.404,8.903-14.044c0.578-0.668,1.155-1.337,1.733-2.005c1.898-2.57,4.067-4.962,5.264-7.994
	c-0.742-3.679,2.237-5.003,4.487-6.336c8.264-4.894,17.15-5.885,26.312-3.013c15.816,4.957,31.483,10.373,47.201,15.633
	c2.002,0.67,4.179,1.352,4.896,3.79c7.053,2.264,14.105,4.527,21.158,6.79c2.424-1.023,4.144,0.496,5.899,1.705
	c16.706,11.516,33.276,23.225,49.858,34.917c1.999,1.41,4.338,2.613,4.883,5.391c-0.162,3.112-2.633,4.483-4.736,6.02
	c-23.756,17.355-47.672,34.49-71.507,51.737c-4.398,3.183-7.994,6.852-10.821,11.486c-9.521,15.611-19.393,31.005-29.135,46.479
	c-1.653,2.626-3.04,5.641-6.494,6.543c-1.566,0.226-2.986-0.257-4.288-1.035c-7.004-4.187-13.989-8.405-20.823-12.867
	c-1.122-0.731-2.091-1.654-2.676-2.908c-1.107-2.802,0.962-4.732,1.897-6.978c1.236-3.025,3.922-5.123,5.193-8.129
	c0.742-1.873,2.404-3.178,3.111-5.073"/>
<path fill-rule="evenodd" clip-rule="evenodd" fill="#EAEAEA" d="M75.665,278.065c0.617-0.67,1.233-1.34,1.85-2.011
	c3.438-0.012,5.847,2.276,8.438,3.979c13.642,8.963,27.443,17.679,41.067,26.667c6.37,4.202,6.996,4.03,11.743-1.961
	c2.049-2.586,3.551-5.683,6.581-7.415c7.7,0.882,13.018,5.538,17.708,11.196c0.578,1.879-0.922,3.212-1.269,4.851
	c-0.753,2.522-3.456,3.728-4.209,6.254c-1.514,2.274-3.844,3.883-5.162,6.323c-1.67,2.402-4.196,3.795-6.462,5.5
	c-1.973,1.712-4.37,2.429-6.853,2.952c-2.059-0.052-4.099,0.564-6.167,0.191c-2.974-1.208-6.188-1.925-8.68-4.144
	c-1.501-1.037-2.971-2.127-4.515-3.107c-1.764-0.931-3.44-2.005-5.066-3.157c-2.689-1.561-5.236-3.347-7.886-4.971
	c-3.815-2.097-7.308-4.696-11.005-6.979c-4.575-3.234-10.315-4.973-13.255-10.307c-4.644-3.16-7.604-7.491-8.989-12.92
	C73.753,285.265,73.522,281.435,75.665,278.065z"/>
<path fill-rule="evenodd" clip-rule="evenodd" fill="#2868AE" d="M36.489,376.961c8.033-2.54,15.577-6.564,24.006-7.899
	c2.939,2.704,0.791,5.591,0.308,8.413c-1.163,2.92-3.926,3.931-6.397,5.239c-5.46,2.892-10.793,5.907-14.926,10.683
	c-4.31,4.979-4.393,10.325,0.004,15.19c2.916,3.227,6.119,6.102,9.977,8.211c2.026,1.107,4.2,2.15,4.912,4.687
	c-0.109,3.15,1.02,6.462-1.209,9.336c-1.494,1.276-2.452-0.29-3.631-0.688c-2.929-1.264-5.846-2.562-9.042-3.027
	c-5.667-2.996-11.333-5.993-17-8.989c-2.594-2.317-5.679-4.035-7.878-6.852c-6.254-8.01-5.502-16.268,2.325-22.817
	C23.56,383.739,29.845,380.049,36.489,376.961z"/>
<path fill-rule="evenodd" clip-rule="evenodd" fill="#2B6AAF" d="M466.497,435.144c-3.313,0.672-6.627,1.345-9.939,2.017
	c-3.079-2.597-0.771-5.337-0.221-8.032c0.475-1.083,1.282-1.84,2.324-2.361c4.224-1.177,7.779-4.607,12.611-3.795
	c0.482,0.233,0.885,0.566,1.209,0.995c-0.93,2.97-1.143,6.017-0.984,9.104c-0.318,0.317-0.637,0.635-0.955,0.952
	C469.194,434.396,467.845,434.77,466.497,435.144z"/>
<path fill-rule="evenodd" clip-rule="evenodd" fill="#A1ADAD" d="M383.449,217.117c3.935,8.707,7.87,17.415,11.806,26.122
	c-2.67,8.193-8.472,14.561-12.844,21.748c-5.16,8.486-11.078,16.505-16.146,25.062c-2.16,3.678-4.552,7.226-6.246,11.17
	c-1.228,0.833-2.386,1.735-3.407,2.835c-4.668,5.022-10.352,6.91-17.102,5.431c-5.863-1.896-10.99-5.113-15.82-8.862
	c-1.567-0.817-2.945-1.828-3.597-3.567c0.021-2.958,2.425-4.166,4.315-5.658c6.608-5.218,13.543-10.073,18.325-17.229
	c1.909-1.015,2.788-2.737,3.24-4.757c0.239-1.882,1.17-3.465,2.198-4.982c9.8-14.458,19.065-29.271,28.894-43.708
	C378.46,218.674,379.548,215.133,383.449,217.117z"/>
<path fill-rule="evenodd" clip-rule="evenodd" fill="#EAEAEA" d="M421.532,201.016c1.762,5.248,4.125,10.222,6.834,15.039
	c4.537,3.005,5.164,8.337,7.535,12.634c2.037,5.249,5.544,9.926,6.135,15.741c0.928,4.951,0.898,9.776-1.84,14.246
	c-2.965,4.372-5.275,9.149-8.201,13.551c-0.486,0.779-0.869,1.622-1.367,2.396c-1.477,1.437-1.851,3.549-3.099,5.128
	c-2.328,3.243-4.653,6.484-5.666,10.439c-0.206,1.359-0.517,2.682-1.387,3.803c-2.503,2.163-4.037,5.034-5.718,7.802
	c-1.091,1.796-2.078,3.722-4.394,4.284c-5.071-1.043-10.036-2.257-12.09-7.912c4.646-3.139,6.324-8.462,9.22-12.842
	c5.865-8.87,11.172-18.108,16.886-27.081c3.435-5.393,3.717-10.564,1.085-16.5c-10.99-24.786-22.461-49.34-34.419-73.671
	c-0.95-1.933-1.726-3.949-2.583-5.927c5.218-0.428,19.326,8.71,21.283,13.785C413.676,184.292,417.604,192.654,421.532,201.016z"/>
<path fill-rule="evenodd" clip-rule="evenodd" fill="#EAEAEA" d="M383.449,217.117c-1.382-0.219-2.138,0.632-2.796,1.643
	c-11.109,17.066-22.22,34.134-33.33,51.2c-1.265,0.816-2.562,0.515-3.709-0.13c-3.979-2.242-7.652-4.941-11.132-7.888
	c-0.83-0.703-1.654-1.661-0.881-2.962c8.042-10.198,14.601-21.413,21.952-32.085c7.163-10.398,14.242-20.855,21.777-31.902
	C379.37,202.31,380.267,210.159,383.449,217.117z"/>
<path fill-rule="evenodd" clip-rule="evenodd" fill="#54ACD1" d="M409.747,175.931c-7.094-4.596-14.189-9.19-21.283-13.786
	c-18.717-12.746-37.636-25.183-56.797-37.253c-0.387-0.387-0.773-0.772-1.161-1.16c-0.216-2.895,0.677-4.825,4.021-4.625
	c11.248,7.542,22.467,15.129,33.758,22.607c5.922,3.923,11.968,7.655,17.957,11.474c8.498,5.665,16.996,11.33,25.497,16.996
	C414.709,173.36,412.973,174.903,409.747,175.931z"/>
<path fill-rule="evenodd" clip-rule="evenodd" fill="#EA6B56" d="M331.602,258.98c5.053,3.931,10.211,7.71,15.724,10.979
	c0.658,3.096-0.053,5.172-3.746,5.028c-7.239-1.78-12.885-5.841-17.094-11.954c-19.959-14.053-39.919-28.106-59.879-42.16
	c-0.264-2.967,0.862-4.728,4.066-4.687C290.703,230.851,311.079,245.021,331.602,258.98z"/>
<path fill-rule="evenodd" clip-rule="evenodd" fill="#EA6C57" d="M371.496,289.753c1.085-1.688,1.483-3.837,3.358-4.992
	c7.807,4.47,15.613,8.938,23.421,13.404c4.039,2.355,8.077,4.71,12.116,7.064c1.701,2.991-0.196,4.441-2.45,5.746
	c-5.421,0.65-8.792-3.436-12.984-5.634c-6.794-3.433-13.282-7.407-19.851-11.238C373.409,293.114,371.575,292.133,371.496,289.753z"
	/>
<path fill-rule="evenodd" clip-rule="evenodd" fill="#344060" d="M420.253,90.127c5.096,5.604,9.992,11.336,12.073,18.868
	c-0.644,9.148-3.911,17.264-9.81,24.259c-7.557,8.959-17.09,13.841-28.992,13.601c-0.66,0.009-1.32,0.017-1.98,0.024
	c-9.613-3.698-18.742-8.124-25.121-16.69c-1.482-2.674-1.56-5.201,0.765-7.48c1.097-0.873,2.465-0.855,3.754-1.151
	c1.594-0.367,3.417-0.597,3.569-2.815c0.154-2.236-1.486-2.724-3.16-3.143c-1.449-0.362-2.975-0.577-3.814-2.079
	c-1.053-4.208-0.363-7.646,4.137-9.405c2.985-0.046,5.192,1.994,7.803,2.97c8.705,3.255,17.842-3.573,16.943-12.645
	c-0.284-2.866-1.771-4.925-3.833-6.708c-1.608-1.391-3.617-2.456-3.896-4.911c0.685-3.948,3.146-5.363,6.942-4.865
	C404.984,79.696,413.062,84.014,420.253,90.127z"/>
<path fill-rule="evenodd" clip-rule="evenodd" fill="#3A4665" d="M395.632,77.955c-3.062,0.66-4.734,2.938-6.258,5.386
	c-1.148,1.451-2.805,1.511-4.455,1.721c-7.596,0.972-11.224,4.547-12.434,12.21c-0.209,1.322-0.474,2.595-1.436,3.602
	c-1.756-0.053-3.127-0.225-3.993,2.221c-1.202,3.396-2.65,6.71-3.654,10.198c-0.671,2.334-1.204,4.879-3.962,5.851
	c-9.956-19.622,2.057-40.86,23.928-42.199C387.479,76.691,391.653,76.31,395.632,77.955z"/>
<path fill-rule="evenodd" clip-rule="evenodd" fill="#384363" d="M359.44,119.143c2.382-6.141,3.148-12.868,6.766-18.562
	c0.616-0.97,1.017-2.459,2.193-2.497c1.752-0.056,0.781,2.281,1.986,2.931c2.117,0.627,3.055,1.819,1.92,4.006
	c-3.695,2.166-3.576,5.827-3.684,9.399c0.821,2.793,0.885,5.608,0.26,8.445c-1.971,2.055-1.994,4.763-2.459,7.323
	C363.136,127.113,360.812,123.43,359.44,119.143z"/>
<path fill-rule="evenodd" clip-rule="evenodd" fill="#29334E" d="M393.524,146.854c3.578-2.351,7.938-2.127,11.818-3.671
	c14.555-5.787,21.856-17.104,25.125-31.72c0.245-1.1-0.588-3.022,1.858-2.469c3.755,10.479,2.855,20.423-4.529,28.961
	c-8.312,9.61-19.448,11.218-31.379,9.63C395.438,147.455,394.487,147.104,393.524,146.854z"/>
<path fill-rule="evenodd" clip-rule="evenodd" fill="#2E83C8" d="M472.481,423.967c-0.331-0.007-0.662-0.017-0.994-0.028
	c-3.543-3.711-1.322-8.088-0.803-11.899c1.297-9.53,0.519-18.877-0.865-28.249c-0.301-2.044-0.477-3.946,0.68-5.76
	c8.428,3.201,16.324,7.218,22.561,13.994c5.266,5.723,5.212,12.36-0.143,18.128c-4.011,4.32-8.616,7.711-13.967,10.177
	C476.71,421.361,474.633,422.744,472.481,423.967z"/>
<path fill-rule="evenodd" clip-rule="evenodd" fill="#3184C9" d="M470.499,378.03c3.303,10.882,3.656,21.979,2.431,33.191
	c-0.464,4.241-0.96,8.479-1.442,12.718c-3.998,1.352-7.996,2.705-11.994,4.059c-2.482-2.472-0.926-5.32-0.686-8.01
	c0.32-3.593,2.171-6.98,1.467-10.719c2.246-5.135,2.029-10.367,0.582-15.651c0.158-4.148-1.465-7.998-1.988-12.028
	c-0.33-2.544-1.329-5.118,0.279-7.596c0.787-0.568,1.567-0.626,2.334,0.038C464.487,375.365,467.493,376.698,470.499,378.03z"/>
<path fill-rule="evenodd" clip-rule="evenodd" fill="#2F6CB1" d="M461.481,374.032c-0.662,0-1.326,0.001-1.989,0.001
	c-5.208,1.717-9.343-1.122-13.661-3.211c-1.99-2.734-4.263-5.397-2.5-9.16c2.012-1.803,4.211-0.984,6.391-0.461
	c3.596-0.378,6.172,1.686,8.781,3.672c0,0-0.021,0.281-0.021,0.282C460.028,367.931,461.324,370.789,461.481,374.032z"/>
<path fill-rule="evenodd" clip-rule="evenodd" fill="#EAEAEA" d="M326.485,263.034c5.698,3.984,11.396,7.969,17.094,11.953
	c-4.334,9.896-14.107,14.097-21.633,20.649c-0.492,0.428-1.025,0.808-1.539,1.21c0.135,2.354-1.614,3.482-3.15,4.678
	c-3.244,2.524-6.515,5.017-9.856,7.409c-2.075,1.245-3.925,2.819-5.948,4.142c-1.237,1.196-2.713,2.079-4.091,3.091
	c-1.333,1.047-2.452,2.36-3.948,3.204c-1.568,1.422-3.379,2.518-5.066,3.778c-1.222,1.175-2.72,1.978-4.035,3.026
	c-1.224,1.187-2.743,1.978-4.048,3.055c-1.41,1.68-3.713,2.19-5.092,3.912c-2.132,1.926-4.527,3.495-6.878,5.124
	c-2.812,2.744-6.49,4.581-8.5,8.157c-0.615,1.91-2.41,3.079-3.084,4.951c-0.537,1.153-1.63,1.945-2.046,3.179
	c-0.641,1.071-1.251,2.163-1.991,3.173c-0.616,1.088-1.332,2.11-2.054,3.128c-0.85,1.692-1.943,3.241-2.837,4.907
	c-0.609,1.147-1.446,2.135-2.2,3.182c-0.821,1.839-2.167,3.385-2.885,5.28c-4.335,7.483-9.22,14.627-13.571,22.101
	c-0.827,1.42-1.63,2.964-3.602,3.107c-6.524-3.311-12.512-7.51-18.697-11.383c-1.373-0.86-2.819-1.902-2.467-3.946
	c4.857-4.481,7.425-10.56,10.928-15.958c8.321-12.824,16.424-25.797,24.319-38.888c5.063-8.397,13.686-12.418,21.065-17.884
	c21.356-15.817,43.004-31.242,64.521-46.841C325.712,264.154,326.059,263.539,326.485,263.034z"/>
<path fill-rule="evenodd" clip-rule="evenodd" fill="#EAEAEA" d="M148.647,291.982c2.413-0.357,3.579-2.22,4.85-3.981
	c11.387-15.768,22.871-31.466,34.109-47.338c2.49-3.518,4.675-4.496,8.975-2.9c24.174,8.974,48.476,17.604,72.728,26.367
	c0.437,0.157,0.798,0.524,1.876,1.259c-7.095,4.492-13.597,9.162-20.954,12.487c-16.236-3.977-31.792-10.092-47.626-15.316
	c-4.403-1.452-6.935-0.979-9.303,3.16c-3.365,5.881-7.393,11.373-11.44,16.822c-3.978,6.434-7.924,12.89-12.292,19.077
	c-1.061,1.403-2.079,2.863-4.044,3.079c-6.568-1.847-11.503-6.293-16.566-10.518C148.341,293.664,148.015,292.819,148.647,291.982z"
	/>
<path fill-rule="evenodd" clip-rule="evenodd" fill="#EA6B57" d="M204.359,384.102c5.892,3.715,11.806,7.396,17.661,11.169
	c1.448,0.934,3.566,1.342,3.575,3.709c0.628,1.894-0.441,2.966-1.861,3.875c-2.449,0.983-4.5-0.123-6.471-1.344
	c-5.442-3.371-11.089-6.415-16.282-10.183c-7.997-4.479-15.673-9.485-23.464-14.304c-1.555-0.962-3.044-2.062-3.927-3.771
	c-0.23-0.496-0.35-1.014-0.385-1.557c0.285-2.373,0.885-4.446,3.965-4.131C186.234,373.077,195.297,378.589,204.359,384.102z"/>
<path fill-rule="evenodd" clip-rule="evenodd" fill="#EA6B57" d="M114.997,276.646c0.916-1.771,1.617-3.688,3.36-4.889
	c10.097,6.741,20.193,13.483,30.29,20.226c5.652,3.938,11.304,7.875,16.957,11.812c-0.508,2.03-1.842,3.503-3.304,4.888
	c-5.549-3.655-11.099-7.308-16.648-10.96c-2.381,0.63-4.172-0.701-5.924-1.911c-7.075-4.885-14.122-9.81-21.298-14.546
	C116.728,280.142,115.299,278.811,114.997,276.646z"/>
<path fill-rule="evenodd" clip-rule="evenodd" fill="#8FBDD6" d="M177.171,367.565c-1.075,1.389-2.15,2.777-3.225,4.166
	c-3.271,2.371-7.148,2.258-10.904,2.67c-1.735-0.373-2.917-1.324-3.281-3.133c0.04-2.309,1.552-3.498,3.421-4.34
	c3.729-1.68,7.204-3.873,11-5.422c2.058-0.434,4.159-1.276,6.045,0.477C179.208,363.844,178.19,365.704,177.171,367.565z"/>
<path fill-rule="evenodd" clip-rule="evenodd" fill="#7DB1DC" d="M180.227,361.983c-1.912,0.344-3.823,0.688-5.735,1.031
	c-3.021,0.724-5.953,1.74-8.862,2.812c-1.916,0.706-3.786,1.166-5.667-0.036c-1.788-2.742,0.774-3.443,2.255-4.364
	c3.542-2.2,7.401-3.801,11.452-4.776c2.32-0.558,4.383-1.46,6.241-2.914c1.811-0.815,3.621-1.466,5.322,0.232
	C183.564,356.64,181.896,359.312,180.227,361.983z"/>
<path fill-rule="evenodd" clip-rule="evenodd" fill="#6D98C7" d="M185.459,349.067c0.939-0.035,1.877-0.071,2.815-0.106
	c-1.014,1.669-2.027,3.338-3.041,5.007c-1.581,0.346-3.161,0.69-4.741,1.036c-4.478,0.977-8.746,3.579-13.586,1.76
	c-0.992-4.74,3.549-4.53,5.543-4.854C176.858,351.194,180.98,349.281,185.459,349.067z"/>
<path fill-rule="evenodd" clip-rule="evenodd" fill="#FEFEFE" d="M114.997,276.646c10.218,7.025,20.436,14.051,30.654,21.076
	c-2.043,4.808-5.591,8.556-8.897,12.451c-1.864,2.196-4.252,2.438-6.707,0.849c-16.997-11.006-33.992-22.014-50.962-33.062
	c-0.658-0.428-1.052-1.261-1.57-1.905c2.151-4.031,5.959-5.785,9.976-7.25c9.309-1.808,15.602,4.352,22.55,8.654
	C112.183,278.786,113.77,279.581,114.997,276.646z"/>
<path fill-rule="evenodd" clip-rule="evenodd" fill="#2B69AF" d="M62.482,367.856c4.021-1.018,8.041-2.035,12.061-3.055
	c0-0.001-0.09,0.326-0.09,0.326c2.72,2.573,0.853,5.197,0.092,7.811c-3.574,4.268-8.571,5.252-13.706,5.927
	c-0.544-0.141-0.993-0.434-1.347-0.87c0.334-2.979,0.668-5.956,1.003-8.934C61.157,368.659,61.819,368.258,62.482,367.856z"/>
<path fill-rule="evenodd" clip-rule="evenodd" fill="#2E83C8" d="M59.492,377.995c0.334,0.012,0.669,0.023,1.004,0.036
	c2.326,1.571,2.318,4.046,1.995,6.306c-1.472,10.269-0.545,20.592-0.896,30.882c-0.099,2.902-0.495,5.644-2.828,7.702
	c-2.478,1.409-4.135,0.474-5.295-1.867c-5.79-2.672-11.009-6.081-15.375-10.844c-5.457-5.954-5.345-12.488,0.147-18.561
	C44.135,385.137,51.999,381.901,59.492,377.995z"/>
<path fill-rule="evenodd" clip-rule="evenodd" fill="#2B6AAF" d="M53.472,421.054c1.347,0.636,2.694,1.272,4.041,1.909
	c6.199-0.853,11.35,1.338,15.851,5.444c0.46,3.026,1.518,6.064-0.064,9.086c-2.418,1.213-4.21,0.235-5.742-1.646
	c-3.159-1.64-6.565-2.402-10.064-2.835c-1.747-0.46-3.579-0.704-5.005-1.976C52.726,427.7,51.837,424.253,53.472,421.054z"/>
<path fill-rule="evenodd" clip-rule="evenodd" fill="#2F6DB1" d="M456.472,437.953c-2.799,0.105-5.488,0.666-8.016,1.912
	c-2.32,0.408-4.641,0.818-6.961,1.229c-0.477,0.239-0.898,0.181-1.261-0.227c-0.472-3.571,2.202-5.874,3.512-8.735
	c1.272-1.413,2.8-2.363,4.717-2.607c2.995-0.433,5.878-2.995,9.032-0.491c-0.312,2.708-0.625,5.416-0.938,8.126
	C456.535,437.425,456.507,437.689,456.472,437.953z"/>
<path fill-rule="evenodd" clip-rule="evenodd" fill="#3486CA" d="M457.495,429.033c-3.041,0.472-5.788,2.283-9,1.987
	c-2.84-2.563-1.284-5.479-0.663-8.317c0.429-1.959,1.931-3.475,2.261-5.474c2.883-4.007,5.738-8.061,11.403-8.209
	c2.194,4.38-0.372,8.422-0.916,12.603c-0.278,2.137-0.72,4.251-1.087,6.375C458.827,428.343,458.161,428.688,457.495,429.033z"/>
<path fill-rule="evenodd" clip-rule="evenodd" fill="#FEFEFE" d="M371.496,289.753c8.009,4.741,16.018,9.482,24.026,14.224
	c1.24,2.298,0.088,4.251-1.069,6.058c-5.569,8.696-10.946,17.514-16.51,26.214c-1.462,2.287-3.171,4.359-6.312,4.194
	c-3.054,0.221-4.984-2.12-7.442-3.26c-1.88-1.542-3.52-3.308-4.903-5.312c-0.97-1.126-1.402-2.551-2.143-3.809
	c-0.199-1.256-0.9-2.336-1.26-3.539c-0.433-2.038,0.396-4.117-0.235-6.149c-0.099-1.016,0.032-2.007,0.356-2.968
	c1.883-4.592,3.156-9.332,3.37-14.323c-0.761-5.075,3.129-8.182,5.121-12.092C366.829,289.245,369.163,289.499,371.496,289.753z"/>
<path fill-rule="evenodd" clip-rule="evenodd" fill="#939A9A" d="M325.579,307.052c-1.717-2.503-1.648-5.241-1.064-8.048
	c4.812,3.228,9.494,6.682,14.948,8.823c-1.953,0.241-3.467,1.406-5.059,2.406c-1.626,0.386-3.247,0.484-4.858-0.074
	c-1.027-0.412-2.054-0.823-3.08-1.235C325.65,308.546,326.04,307.597,325.579,307.052z"/>
<path fill-rule="evenodd" clip-rule="evenodd" fill="#EAEAEA" d="M371.435,339.038c1.877,0.057,3.073-0.954,4.004-2.466
	c6.686-10.87,13.387-21.731,20.084-32.596c3.981,2.113,7.963,4.227,11.944,6.341c-0.067,0.251-0.06,0.499,0.023,0.744
	c-0.751,2.577-0.551,5.48-2.604,7.609c-1.652,2.068-2.475,4.631-3.993,6.781c-0.866,0.961-1.388,2.144-2.038,3.244
	c-0.948,1.137-1.695,2.398-2.29,3.758c-0.332,0.566-0.763,1.054-1.2,1.539c-1.212,0.975-1.986,2.392-3.285,3.282
	c-1.54,1.542-3.398,2.54-5.451,3.213c-1.211,0.397-2.388,0.887-3.611,1.251C377.661,343.18,373.747,342.264,371.435,339.038z"/>
<path fill-rule="evenodd" clip-rule="evenodd" fill="#999FAF" d="M372.306,105.021c-0.641-1.336-1.28-2.671-1.92-4.006
	c-0.505-13.137,5.926-19.121,18.988-17.674c5.883,2.648,9.938,6.513,9.358,13.637c-0.487,5.992-3.919,9.835-9.163,11.95
	C383.067,111.55,377.257,109.879,372.306,105.021z"/>
<path fill-rule="evenodd" clip-rule="evenodd" fill="#AAAFBC" d="M368.882,122.865c-2.273-2.748-2.462-5.561-0.26-8.446
	c2.79-1.236,5.509-1.315,7.472,1.317c1.394,1.87,1.343,4.195-0.292,5.907C373.919,123.613,371.575,124.67,368.882,122.865z"/>
<path fill-rule="evenodd" clip-rule="evenodd" fill="#4592BC" d="M461.496,409.021c-3.335,2.661-6.671,5.322-10.005,7.983
	c-0.573,0.324-1.088,0.249-1.546-0.223c-1.377-1.755-1.103-3.714-0.724-5.7c1.22-6.393,1.529-12.785,0.158-19.212
	c-0.375-1.76-0.736-3.604,0.213-5.351c3.617-1.943,8.066-0.514,10.861,3.513c0.857,1.236,1.148,2.769,2.027,3.999
	C464.79,399.2,465.771,404.283,461.496,409.021z"/>
<path fill-rule="evenodd" clip-rule="evenodd" fill="#3486C9" d="M462.481,394.03c-3.867-2.868-6.906-6.97-11.98-8.037
	c-0.471-0.223-0.84-0.558-1.109-1.001c-1.302-4.772-4.479-9.105-3.409-14.441c0.158-0.197,0.321-0.394,0.483-0.589
	c4.343,1.356,8.685,2.714,13.026,4.071C460.802,380.652,462.924,387.149,462.481,394.03z"/>
<path fill-rule="evenodd" clip-rule="evenodd" fill="#3470B3" d="M440.494,360.885c0.999,0.367,1.997,0.734,2.995,1.102
	c0.992,2.659,1.985,5.317,2.978,7.976c-0.001,0,0.048,0.085,0.048,0.085c-4.823,2.424-8.756,0.182-12.635-2.399
	c-1.041-2.612-3.297-5.032-1.353-8.147C435.663,357.187,438.092,358.96,440.494,360.885z"/>
<path fill-rule="evenodd" clip-rule="evenodd" fill="#FEFEFE" d="M160.334,371.37c0.997,0.59,1.995,1.179,2.992,1.768
	c3.631,1.588,7.203,1.047,10.753-0.298c9.159,5.69,18.318,11.38,27.478,17.069c1.525,4.064-1.754,6.428-3.449,9.241
	c-3.389,5.625-3.436,5.862,3.147,6.594c4.093,0.455,8.229,0.479,12.318,1.117c1.807,0.281,3.668,0.074,4.945-1.59
	c1.277-1.664,3.178-2.299,5.003-3.062c0.691-1.076,1.382-2.152,2.074-3.229c4.691-9.059,10.266-17.576,15.963-26.018
	c2.995-2.433,6.67-1.767,10.024-1.857c13.583-0.369,27.175-0.371,40.734,0.629c2.938,0.87,2.455,3.769,2.876,5.729
	c1.113,5.174,2.809,10.033,5.534,14.542c4.56,6.615,10.357,12.002,16.756,16.786c-6.508-4.92-12.514-10.336-16.988-17.271
	c-3.148-4.716-4.375-10.128-5.695-15.507c-0.374-1.521-0.363-2.916,1.01-3.989c6.075-2.606,12.117,0.042,18.107,0.416
	c7.078,0.442,14.141,1.276,21.255,1.287c4.294,0.651,8.446,2.356,12.914,1.738c3.908-0.21,7.403,2.305,11.369,1.715
	c3.747,0.219,7.252,1.902,11.052,1.826c2.094,0.125,3.824,1.786,6.04,1.404c2.913-0.129,5.282,1.825,8.09,2.103
	c4.373,0.13,7.821,3.28,12.11,3.684c2.229,0.415,4.044,1.835,6.166,2.521c3.187,1.098,5.324,3.729,8.064,5.491
	c4.379,5.466,4.383,8.095,0.049,13.597c-2.728,1.729-4.742,4.521-8.008,5.473c-2.104,0.59-3.844,2.082-6.027,2.486
	c-2.93,0.502-5.322,2.576-8.324,2.875c-2.561-0.017-4.741,1.498-7.223,1.804c-3.117,0.141-5.757,2.365-8.977,2.065
	c-3.537-0.028-6.584,2.24-10.134,2.174c-4.862-0.75-9.183,2.217-13.961,2.052c-4.183-0.924-8.042,0.904-12.055,1.431
	c-7.869-0.234-15.603,1.056-23.366,2.069c-11.107-0.441-22.191,0.667-33.292,0.396c-17.735-0.432-35.485,0.521-53.211-0.596
	c-2.5-0.157-4.975-0.088-7.45,0.225c-6.702-0.224-13.253-2.618-20.058-1.395c-5.515,0.07-10.613-2.702-16.168-2.395
	c-4.16,0.142-7.92-2.409-12.15-1.796c-3.455-0.232-6.661-1.876-10.176-1.782c-3.156-0.033-5.789-2.339-9.02-2.055
	c-2.889,0.073-5.138-2.136-7.984-2.218c-2.316-0.04-4.07-1.766-6.296-2.082c-3.1-0.12-5.312-2.47-8.16-3.229
	c-3.481-1.116-5.875-3.963-9.015-5.641c-3.26-4.439-3.158-8.849,0.115-13.232c3.394-1.889,5.835-5.671,10.385-5.308
	c7.304,8.817,18.196,8.18,27.948,10.437c4.741,1.098,9.584,1.834,14.358,2.652c-11.618-7.74-23.51-15.031-34.986-22.959
	c-1.908-1.318-3.901-2.631-4.184-5.279c0.638-3.953,3.911-5.438,6.81-7.276c2.53-1.03,5.058-2.067,7.891-1.641
	c1.036,0.261,2.084,0.456,3.156,0.515C154.674,367.12,158.864,367.165,160.334,371.37z"/>
<path fill-rule="evenodd" clip-rule="evenodd" fill="#7497BF" d="M258.458,345.985c13.325,0.02,26.649,0.039,39.973,0.06
	c1.565,3.056,0.015,4.846-2.529,6.235c-5.379,1.428-10.881,0.838-16.291,0.622c-6.61-0.264-13.213-0.356-19.822-0.399
	c-1.651-0.011-3.364,0.13-4.456-1.527C256.004,349.08,256.974,347.372,258.458,345.985z"/>
<path fill-rule="evenodd" clip-rule="evenodd" fill="#C1E0EE" d="M293.372,373.067c-17.271-0.035-34.543-0.069-51.814-0.104
	c0.868-1.716,1.447-3.603,2.95-4.938c15.129-2.271,30.256-1.712,45.378,0.071c1.705,0.201,3.176,0.925,4.027,2.554
	C294.202,371.561,294.119,372.389,293.372,373.067z"/>
<path fill-rule="evenodd" clip-rule="evenodd" fill="#B8DCEB" d="M293.361,371.02c-8.555-1.325-17.035-2.704-25.82-2.443
	c-6.859,0.203-13.707,0.269-20.55,0.891c-0.778,0.07-1.654-0.935-2.484-1.441c0.661-1.005,1.321-2.01,1.981-3.016
	c2.229-1.691,4.751-2.066,7.506-2.036c11.292,0.125,22.588-0.145,33.877,0.493c2.259,0.128,4.245,0.579,5.978,2.037
	C295.058,367.464,295.183,369.328,293.361,371.02z"/>
<path fill-rule="evenodd" clip-rule="evenodd" fill="#A6CADF" d="M293.44,366.024c-15.611-2.184-31.306-0.465-46.953-1.015
	c1.013-1.653,2.026-3.307,3.039-4.96c11.843-0.897,23.706-1.091,35.511,0.172c3.029,0.324,6.8-1.217,9.163,2.234
	C294.681,363.802,294.567,365.021,293.44,366.024z"/>
<path fill-rule="evenodd" clip-rule="evenodd" fill="#8CBBE1" d="M251.454,356.979c0.658-1.018,1.315-2.035,1.973-3.052
	c6.395-2.784,13.133-1.321,19.682-1.273c5.794,0.042,11.608,0.326,17.417,0.353c1.869,0.009,3.663,0.152,5.092,1.562
	c1.271,2.091,0.515,3.759-1.089,5.252c-1.854,1.011-3.931,0.918-5.838,0.628c-10.875-1.648-21.81-0.646-32.712-0.962
	C254.1,359.433,251.768,359.961,251.454,356.979z"/>
<path fill-rule="evenodd" clip-rule="evenodd" fill="#83B4DD" d="M295.421,355.011c-11.309,0.732-22.536-1.146-33.834-1.117
	c-2.71,0.007-5.458,1.932-8.159,0.034c0.06-1.355,0.771-2.29,1.905-2.951c13.72,0.014,27.439,0.027,41.16,0.042
	C297.769,352.787,297.163,354.052,295.421,355.011z"/>
<path fill-rule="evenodd" clip-rule="evenodd" fill="#9DC5DC" d="M251.454,356.979c1.064,0.997,2.391,1.025,3.732,1.03
	c13.089,0.052,26.189-0.351,39.246,0.988c1.261,1.704,1.723,3.227-0.922,4.04c-5.368-1.705-10.982-1.636-16.489-1.931
	c-7.406-0.396-14.848-0.079-22.275-0.112c-1.781-0.008-3.666,0.382-5.221-0.945C250.169,359.026,250.812,358.003,251.454,356.979z"
	/>
<path fill-rule="evenodd" clip-rule="evenodd" fill="#3A74B4" d="M100.497,359.034c2.663-0.389,5.325-0.777,7.988-1.167
	c0.333,0.062,0.665,0.123,0.997,0.185c1.301,3.899-0.672,6.282-3.768,8.149c-3.122,0.727-6.024,3.36-9.498,1.106
	c-2.329-3.968,0.385-5.702,3.265-7.362C99.82,359.642,100.159,359.338,100.497,359.034z"/>
<path fill-rule="evenodd" clip-rule="evenodd" fill="#4079B7" d="M105.484,364.974c2.24-1.783,2.584-4.662,3.998-6.922
	c1.667-0.389,3.334-0.777,5.001-1.167c2.026-0.329,4.053-0.657,6.08-0.985c0.113,0.214,0.226,0.428,0.343,0.642
	c0.002,3.22-2.028,5.337-4.043,7.472c-0.422,0.284-0.882,0.478-1.371,0.607c-2.917,0.725-5.702,2.322-8.879,1.374
	C106.128,365.774,105.753,365.433,105.484,364.974z"/>
<path fill-rule="evenodd" clip-rule="evenodd" fill="#EAEAEA" d="M223.521,402.209c-3.189,6.763-8.387,7.74-15.192,6.018
	c-4.28-1.084-8.886-0.98-13.355-1.181c-3.041-0.136-3.464-1.058-1.825-3.573c2.903-4.456,5.615-9.036,8.407-13.563
	c5.685,3.383,11.36,6.782,17.061,10.139C220.16,400.956,221.514,402.339,223.521,402.209z"/>
<path fill-rule="evenodd" clip-rule="evenodd" fill="#A7D2E5" d="M174.079,372.84c-4.237,5.533-4.237,5.533-10.752,0.297
	c3.505-0.725,6.885-2.407,10.62-1.403C173.991,372.102,174.035,372.471,174.079,372.84z"/>
<path fill-rule="evenodd" clip-rule="evenodd" fill="#497EBA" d="M120.4,356.159c2.693-0.428,5.387-0.855,8.08-1.284
	c1.989-0.252,3.978-0.503,5.966-0.754c-0.233,4.642-4.802,5.474-7.21,8.21c-3.554,0.728-6.991,3.458-10.752,0.638
	C117.79,360.698,119.095,358.429,120.4,356.159z"/>
<path fill-rule="evenodd" clip-rule="evenodd" fill="#5085BE" d="M127.495,360.973c1.82-2.789,4.415-4.793,6.952-6.853
	c0.346-0.071,0.691-0.143,1.038-0.216c2.661-0.274,5.321-0.547,7.982-0.82c-0.273,5.581-5.27,6.093-8.788,8.193
	c-2.236,0.031-4.396,1.837-6.703,0.302C127.814,361.379,127.654,361.176,127.495,360.973z"/>
<path fill-rule="evenodd" clip-rule="evenodd" fill="#5889BF" d="M134.486,359.976c3.211-2.015,6.698-3.669,8.98-6.893
	c1.386-0.184,2.876,0.044,4.041-1.019c2.663-0.027,5.326-0.055,7.988-0.083c0.34,4.537-4.369,4.487-6.311,6.961
	c-0.443,0.264-0.919,0.422-1.428,0.488c-3.803,0.603-7.371,2.574-11.386,1.948C135.563,361.152,134.903,360.727,134.486,359.976z"/>
<path fill-rule="evenodd" clip-rule="evenodd" fill="#618FC2" d="M148.483,357.985c1.693-2.755,5.364-3.198,7.013-6.003
	c0.668-0.313,1.336-0.626,2.004-0.938c3.696,0.002,7.408,0.162,10.992-1.035c1.321,0.025,2.643,0.05,3.964,0.075
	c0.299,1.864-1.291,2.102-2.388,2.553c-4.367,1.796-8.482,4.142-12.895,5.837C154.248,358.787,151.218,361.003,148.483,357.985z"/>
<path fill-rule="evenodd" clip-rule="evenodd" fill="#86B8D4" d="M160.334,371.37c-2.948-1.462-5.896-2.924-8.845-4.387
	c1.909-3.734,4.624-4.208,8.007-1.979c4.999-0.664,9.997-1.327,14.996-1.99C169.792,365.831,164.406,367.488,160.334,371.37z"/>
<path fill-rule="evenodd" clip-rule="evenodd" fill="#73ABDA" d="M159.496,365.005c-2.707,0.508-5.516,0.598-8.007,1.979
	c-0.988-0.055-1.977-0.109-2.965-0.164c-0.234-5.138,4.164-6.122,7.404-7.921c1.823-1.012,3.93-1.545,5.588-2.935
	c1.669-1.048,3.334-1.633,4.984,0.03c4.684-0.058,9.265-1.557,13.993-0.99c-5.524,4.199-12.695,4.888-18.433,8.639
	C161.253,364.17,160.353,364.554,159.496,365.005z"/>
<path fill-rule="evenodd" clip-rule="evenodd" fill="#6794C5" d="M166.5,355.994c-1.747-0.047-3.449,0.123-5.007,1.011
	c-1.342,0.817-2.683,1.306-4.01-0.027c4.636-3.07,10.08-4.386,14.974-6.894c4.375,0.183,8.599-1.566,13.003-1.018
	C179.14,351.376,172.82,353.685,166.5,355.994z"/>
<path fill-rule="evenodd" clip-rule="evenodd" fill="#2F6DB0" d="M73.5,372.979c0.318-2.618,0.635-5.235,0.953-7.853
	c2.678-0.745,5.355-1.49,8.034-2.236c1.671-0.258,3.341-0.516,5.012-0.773c2.45,2.298,0.953,4.708,0.208,7.099
	c-0.473,1.073-1.282,1.785-2.366,2.196c-3.744,0.809-7.127,3.562-11.299,2.137C73.861,373.361,73.681,373.171,73.5,372.979z"/>
<path fill-rule="evenodd" clip-rule="evenodd" fill="#3470B3" d="M86.496,369.018c0.334-2.301,0.668-4.602,1.003-6.901
	c0.998-0.368,1.997-0.738,2.995-1.107c2.996-0.354,5.992-0.709,8.988-1.063c-1.299,2.213-3.168,4.183-2.994,7.023
	c-0.328,1.163-1.111,1.886-2.216,2.299C91.668,369.599,89.005,371.654,86.496,369.018z"/>
<path fill-rule="evenodd" clip-rule="evenodd" fill="#3184C9" d="M72.497,429.001c-4.995-2.013-9.99-4.025-14.984-6.038
	c1.579-3.202,2.045-6.58,2.018-10.143c-0.091-11.605-0.282-23.22,0.966-34.789c4.335-1.684,8.67-3.367,13.005-5.051
	c0-0.001-0.021,0.098-0.021,0.098c3.476,4.657-0.108,9.081-0.573,13.582c-0.16,1.551-0.937,3.099-0.932,4.751
	c-4.709,7.93-3.27,15.078,2.731,21.674c0.436,0.479-0.155-0.137,0.152,0.464c0.547,3.266,1.523,6.433,2.1,9.686
	c0.386,2.175,0.513,4.283-1.17,6.054C74.622,429.991,73.529,429.833,72.497,429.001z"/>
<path fill-rule="evenodd" clip-rule="evenodd" fill="#316DB1" d="M72.497,429.001c0.997,0.01,1.993,0.021,2.99,0.03
	c3.706-1.128,6.89,0.16,9.935,2.135c2.205,2.659,4.763,5.228,2.454,9.105c-1.733,1.659-3.792,0.611-5.718,0.701
	c-2.542-0.307-4.93-0.954-6.608-3.104c-0.7-0.338-1.399-0.675-2.099-1.014C71.022,434.493,71.56,431.771,72.497,429.001z"/>
<path fill-rule="evenodd" clip-rule="evenodd" fill="#3989CB" d="M450.491,416.995c0.333,0.003,0.666,0.006,1,0.009
	c-0.26,4.83-3.581,9.006-2.996,14.017c-1.334,0.662-2.668,1.324-4.002,1.986c-2.523,2.213-5.115,4.19-8.759,2.521
	c-1.886-2.79,0.416-4.892,1.246-7.207c1.052-2.936,2.663-5.582,4.593-8.033C444.199,418.257,446.563,415.504,450.491,416.995z"/>
<path fill-rule="evenodd" clip-rule="evenodd" fill="#3571B3" d="M435.503,434.965c2.996-0.652,5.993-1.306,8.99-1.958
	c-0.853,2.872-1.68,5.757-3.961,7.912c-1.692,0.41-3.385,0.821-5.078,1.231c-1.665,0.771-2.707,2.847-4.967,2.376
	c-1.102-0.101-2.199-0.22-3.033-1.081c-1.571-3.533,1.666-5.515,2.649-8.232C431.847,433.944,433.618,433.171,435.503,434.965z"/>
<path fill-rule="evenodd" clip-rule="evenodd" fill="#9AA7A9" d="M314.255,323.947c-0.262,0.329-0.523,0.658-0.786,0.988
	c-0.678,0.974-1.355,1.948-2.034,2.922c-1.068,0.752-1.763,1.755-2.036,3.04c-0.35,0.574-0.235,1.23-0.323,1.851
	c-0.203,1.275-1.012,2.327-1.311,3.569c-0.26,0.827-0.77,1.518-1.207,2.249c-0.834,0.978-1.479,2.071-1.988,3.249
	c-0.821,1.792-1.388,3.694-2.37,5.409c-0.144,0.401-0.296,0.803-0.437,1.205c-0.629,1.312-1.013,2.728-1.625,4.05
	c-0.156,0.608-0.225,1.236-0.402,1.841c-0.32,0.789-0.732,1.547-0.801,2.423c-0.295,1.081-0.858,2.098-0.719,3.277
	c-0.093,1.255-0.252,2.496-0.398,3.744c-1.731,2.896,0.865,6.764-2.109,9.377c0.176,6.801,2.836,12.821,5.883,18.72
	c0.335,1.032-0.145,1.294-1.072,1.132c-4.488-5.887-6.039-12.827-7.146-19.926c-0.003-0.683-0.006-1.365-0.01-2.048
	c0.025-1.665,0.053-3.33,0.078-4.995c0.023-0.995,0.047-1.991,0.07-2.986c1.098-1.166,0.947-2.617,0.922-4.04
	c0.33-1.329,0.66-2.658,0.99-3.987c0.355-1.331,0.713-2.662,1.07-3.992c0.646-1.658,1.293-3.316,1.938-4.975
	c0.967-2.023,1.935-4.048,2.9-6.072c1.039-1.991,2.079-3.981,3.119-5.973c0.755-1.3,1.511-2.601,2.267-3.9
	c1.018-0.771,1.664-1.784,1.994-3.009c0.701-0.986,1.402-1.973,2.104-2.959c0.825-1.046,1.648-2.093,2.472-3.14
	c0.373-0.663,0.747-1.326,1.121-1.989c1.067-1.982,3.725-2.535,4.389-4.88c0.915-1.033,1.828-2.065,2.741-3.099
	c1.348-1.324,2.693-2.648,4.041-3.972c0.295,0.624,0.59,1.248,0.887,1.872c-0.061,0.256-0.104,0.515-0.134,0.775
	c-1.881,1.514-3.601,3.177-4.851,5.271c-1.832,1.217-3.002,2.986-4.059,4.85C315.985,320.902,314.607,322.031,314.255,323.947z"/>
<path fill-rule="evenodd" clip-rule="evenodd" fill="#4994BE" d="M450.491,416.995c-2.668,1.341-5.335,2.681-8.002,4.021
	c-0.227-0.177-0.453-0.353-0.682-0.525c-1.938-2.668-0.877-5.522-0.154-8.139c2.086-7.541,2.158-14.971,0.031-22.517
	c-0.695-2.465-1.583-5.161,0.13-7.693c4.077-2.624,6.4,0.047,8.669,2.881c0.005,0.323,0.011,0.646,0.018,0.97
	C453.328,396.328,452.575,406.662,450.491,416.995z"/>
<path fill-rule="evenodd" clip-rule="evenodd" fill="#3B8ACB" d="M450.483,385.023c-2.662-1.007-5.325-2.014-7.988-3.021
	c-3.009,0.911-5.238-0.294-7.066-2.597c-1.578-4.065-5.752-7.483-3.171-12.597c0.78-0.422,1.532-0.398,2.245,0.157
	c4.004,1.026,8.008,2.053,12.012,3.08C447.782,375.054,450.255,379.741,450.483,385.023z"/>
<path fill-rule="evenodd" clip-rule="evenodd" fill="#3A74B5" d="M434.503,366.967c-0.67,0.011-1.34,0.021-2.009,0.031
	c-2.752,1.622-5.241,0.538-7.722-0.731c-2.273-2.285-5.482-4.215-3.281-8.275c1.004-0.026,2.006-0.053,3.01-0.08
	c0.664,0.036,1.328,0.072,1.992,0.108c1.254,0.661,2.568,1.056,4.006,0.896c0.666,0.329,1.332,0.659,1.998,0.988
	C433.567,362.144,434.794,364.34,434.503,366.967z"/>
<path fill-rule="evenodd" clip-rule="evenodd" fill="#EAEAEA" d="M134.381,373.834c7.336,6.551,15.985,11.206,24.088,16.646
	c6.706,4.501,13.493,8.881,20.077,13.729c-7.008,0.335-13.624-1.542-20.336-2.56c-5.401-0.819-10.682-2.554-16.097-3.138
	c-5.753-0.62-9.524-3.242-11.622-8.508c-3.273-2.659-1.771-6.069-1.464-9.291C129.63,377.502,130.084,374.171,134.381,373.834z"/>
<path fill-rule="evenodd" clip-rule="evenodd" fill="#B6DBEB" d="M182.505,424.952c5.42,0.003,10.713,0.987,15.994,2.07
	c9.649,2.33,19.538,3.097,29.331,4.491c12.29,1.75,24.679,1.98,37.05,2.302c4.275,0.111,8.664,0.167,12.872-0.489
	c5.442-0.849,10.895-0.189,16.298-0.881c10.294-1.274,20.63-2.188,30.888-3.841c3.904-0.629,7.717-1.464,11.512-2.491
	c4.018-0.384,8.034-0.769,12.052-1.152c0.607,3.701-2.247,4.152-4.69,5.148c-7.509,3.061-15.84,3.087-23.284,6.383
	c-1.612,0.396-3.159,0.92-4.858,1.022c-23.199,1.407-46.423,1.954-69.65,1.407c-11.56-0.271-23.148-0.758-34.623-2.455
	c-7.702-1.263-15.172-3.54-22.673-5.605C185.991,430.109,181.739,429.859,182.505,424.952z"/>
<path fill-rule="evenodd" clip-rule="evenodd" fill="#BBDEEC" d="M294.493,434.009c-9.153,1.031-18.396,1.181-27.555,1.53
	c-7.334,0.279-14.907,0.069-22.3-0.693c-11.176-1.153-22.445-1.66-33.485-3.902c-4.323-0.878-8.929-1.041-12.655-3.921
	c6.68,0.36,13.361,0.721,20.042,1.081c20.37,3.146,40.918,2.126,61.404,2.622c3.462,0.499,6.921,0.883,10.436,0.866
	C292.067,431.584,294.276,431.265,294.493,434.009z"/>
<path fill-rule="evenodd" clip-rule="evenodd" fill="#C1E1EE" d="M279.492,433.009c-10.14-2.22-20.452,0.208-30.597-1.063
	c-10.119-1.27-20.444-0.95-30.354-3.842c25.011,1.578,50.049,0.933,75.078,0.857c6.612-0.02,13.223-0.564,19.834-0.868
	c-1.993,4.146-6.145,2.938-9.389,3.495C295.954,432.981,287.615,431.219,279.492,433.009z"/>
<path fill-rule="evenodd" clip-rule="evenodd" fill="#7CBFDC" d="M121.593,395.244c-3.127,3.914-2.996,7.856-0.104,11.823
	c2.229,2.713,4.019,5.686,5.239,8.984c0.64,1.73,1.249,3.481-0.002,5.225c-2.958,2.037-5.302-0.374-7.887-1.082
	c-0.79-0.413-1.389-1.015-1.799-1.805c-4.856-11.703-6.062-23.303,1.011-34.662c0.446-0.751,1.064-1.323,1.816-1.756
	c2.586-0.23,4.768-3.03,7.685-1.247c1.202,4.58-2.289,7.602-3.837,11.249C123.227,393.117,122.025,393.964,121.593,395.244z"/>
<path fill-rule="evenodd" clip-rule="evenodd" fill="#7CBFDC" d="M409.549,407.165c3.896-4.093,3.888-8.18-0.017-12.262
	c-1.467-2.736-3.359-5.242-4.438-8.19c-0.686-1.877-1.315-3.751-0.062-5.652c2.533-1.828,4.695,0.061,6.99,0.689
	c0.742,0.411,1.326,0.985,1.762,1.71c3.742,7.822,5.567,15.896,3.707,24.613c-0.884,4.136-2.299,7.957-4.712,11.417
	c-0.47,0.681-1.078,1.205-1.801,1.6c-2.483,0.272-4.632,2.992-7.431,1.049c-1.271-2.675,0.592-4.679,1.539-6.843
	C406.327,412.459,408.032,409.86,409.549,407.165z"/>
<path fill-rule="evenodd" clip-rule="evenodd" fill="#B5DBEB" d="M348.489,377.107c-4.348-0.403-8.695-0.807-13.043-1.209
	c-10.309-2.904-21.01-3.233-31.523-4.794c-2.18-0.323-4.295-0.584-5.322-2.93c-0.383-1.645-0.053-2.994,1.571-3.809
	c8.702,0.213,17.4,0.527,25.979,2.202c5.794,3.986,13.132,3.319,19.274,6.369C347.356,373.896,349.105,374.495,348.489,377.107z"/>
<path fill-rule="evenodd" clip-rule="evenodd" fill="#AFD7E9" d="M321.491,435.004c2.303-2.656,5.688-2.178,8.628-3.019
	c6.326-1.808,13.157-2.329,18.383-7.024c4.581-1.288,9.235-2.063,14.009-2.021c0.139,3.689-2.713,5.564-5.296,6.321
	c-4.304,1.261-7.954,3.814-12.159,5.147c-5.266,1.146-10.534,2.258-15.934,2.617C326.649,436.094,323.583,437.362,321.491,435.004z"
	/>
<path fill-rule="evenodd" clip-rule="evenodd" fill="#BDDEED" d="M299.481,367.976c7.603,1.316,15.19,2.727,22.812,3.915
	c4.598,0.718,8.984,1.965,13.152,4.008c-11.249-0.909-22.496-1.84-33.748-2.706c-1.986-0.153-3.993-0.041-5.99-0.051
	c-0.223-3.42-0.744-6.863,0.827-10.137c0.394-0.323,0.823-0.398,1.296-0.191C299.825,364.071,298.294,366.458,299.481,367.976z"/>
<path fill-rule="evenodd" clip-rule="evenodd" fill="#BBDEED" d="M279.492,433.009c4.224-1.664,8.641-2.19,13.125-1.961
	c7.152,0.366,13.988-1.291,20.836-2.956c7.666-0.659,15.332-1.319,22.998-1.979c-7.14,4.426-15.359,4.645-23.295,5.839
	c-6.184,0.931-12.439,1.389-18.662,2.058C289.613,431.862,284.479,433.546,279.492,433.009z"/>
<path fill-rule="evenodd" clip-rule="evenodd" fill="#AFD7E9" d="M182.505,424.952c1.088,3.051,4.13,3.213,6.489,3.958
	c7.1,2.244,14.326,4.09,21.502,6.091c-3.955,3.161-8.482,0.469-12.669,1.268c-3.699-0.05-7.208-1.256-10.823-1.812
	c-4.198-2.315-8.722-3.971-12.92-6.281c-1.982-1.091-4.318-2.104-3.589-5.156C174.574,423.192,178.611,423.627,182.505,424.952z"/>
<path fill-rule="evenodd" clip-rule="evenodd" fill="#AFD8E9" d="M348.489,377.107c-3.262-3.741-8.229-3.411-12.319-5.174
	c-3.198-1.379-7.338-0.443-9.676-3.93c1.711-2.162,4.37-1.19,6.495-1.992c2.896-0.361,5.571,0.759,8.344,1.248
	c3.894,1.581,7.215,4.181,11.659,4.961c2.862,0.503,6.909,2,6.481,6.698C355.769,378.586,352.042,378.375,348.489,377.107z"/>
<path fill-rule="evenodd" clip-rule="evenodd" fill="#69A5D7" d="M157.483,356.978c1.337,0.009,2.674,0.019,4.01,0.027
	c-2.261,3.141-6.351,3.541-9.04,6.033c-1.333,1.235-2.621,2.52-3.93,3.781c-2.609,0.423-5.219,0.845-7.828,1.268
	c-0.925,0.529-1.908,0.547-2.919,0.329c-1.515-2.092,0.311-3.3,1.359-4.544c2.469-2.93,5.866-4.487,9.357-5.842
	c0,0-0.01-0.044-0.01-0.045C151.483,357.649,154.483,357.313,157.483,356.978z"/>
<path fill-rule="evenodd" clip-rule="evenodd" fill="#A6D3E7" d="M345.484,432.99c5.298-3.988,12.563-4.644,17.026-10.049
	c3.213-1.236,6.52-1.99,9.982-1.932c1.715,2.778-0.299,4.499-2.129,5.618c-3.039,1.858-5.764,4.225-9.049,5.685
	c-4.074,0.398-7.834,2.479-12.027,2.262C347.884,434.374,346.366,434.438,345.484,432.99z"/>
<path fill-rule="evenodd" clip-rule="evenodd" fill="#6EAACB" d="M137.493,368.01c1.067,0.025,2.135,0.051,3.203,0.077
	c-2.206,1.804-4.896,3.076-6.313,5.747c-2.052,1.598-2.396,4.234-3.788,6.232c-0.925,0.674-1.708,1.804-3.103,0.967
	c-2.45,0.247-4.41,2.209-6.991,1.996c-1.069-4.173,2.104-6.653,3.967-9.594c0.856-1.351,2.305-2.332,3.109-3.805
	c0.343-0.38,0.748-0.67,1.207-0.89C131.625,367.777,134.396,365.925,137.493,368.01z"/>
<path fill-rule="evenodd" clip-rule="evenodd" fill="#94CAE2" d="M396.474,387.865c-3.993-1.293-7.986-2.587-11.979-3.881
	c-2.021-1.653-4.027-3.336-5.936-5.111c-1.494-1.392-3.341-2.856-1.902-5.377c2.247-1.589,4.511,0.516,6.765-0.045
	c2.45,0.014,4.345,1.475,6.421,2.465C392.505,379.646,396.833,382.456,396.474,387.865z"/>
<path fill-rule="evenodd" clip-rule="evenodd" fill="#84C3DE" d="M126.491,421.012c-1.145-4.836-4.839-8.757-5.002-13.945
	c2.671,1.64,5.342,3.279,8.013,4.919c3.056,3.554,7.47,6.393,6.393,12.131c-0.343,0.409-0.767,0.703-1.266,0.895
	c-2.883,0.915-4.872-1.457-7.36-2.006C126.626,422.491,126.179,421.899,126.491,421.012z"/>
<path fill-rule="evenodd" clip-rule="evenodd" fill="#A9D5E8" d="M359.474,378.919c-1.852-3.062-5.074-4.694-8.088-5.475
	c-3.654-0.947-6.737-2.646-9.896-4.422c1.236-1.77,3.032-1.735,4.751-1.191c1.889,0.598,3.768,0.677,5.692,0.592
	c1.697-0.264,3.242,0.235,4.749,0.935c2.856,1.972,6.122,3.305,8.925,5.319c2.139,1.537,5.09,2.727,4.854,6.229
	C366.799,380.243,363.136,379.581,359.474,378.919z"/>
<path fill-rule="evenodd" clip-rule="evenodd" fill="#A8D4E7" d="M170.495,423.02c2.556,3.782,7.137,4.355,10.664,6.601
	c1.763,1.123,3.772,1.893,5.342,3.364c-2.007,2.47-4.696-0.017-6.91,0.967c-2.502,0.218-4.704-0.898-7.002-1.585
	c-2.442-2.123-5.059-3.928-7.97-5.436c-2.166-1.122-4.817-2.443-4.11-5.832C163.863,421.608,167.282,421.78,170.495,423.02z"/>
<path fill-rule="evenodd" clip-rule="evenodd" fill="#A0D0E5" d="M160.51,421.099c2.013,3.011,5.284,4.313,8.221,6.079
	c1.572,0.944,2.839,2.224,3.769,3.818c-2,2.466-4.597,0.803-6.925,1.017c-1.802-0.428-3.616-0.831-5.219-1.83
	c-2.028-1.951-4.356-3.576-6.363-5.539c-1.483-1.45-3.364-2.915-2.474-5.514C154.516,419.786,157.513,420.442,160.51,421.099z"/>
<path fill-rule="evenodd" clip-rule="evenodd" fill="#9ECFE5" d="M361.479,430.979c3.154-3.894,9.148-4.65,11.014-9.969
	c2.857-1.284,5.881-1.847,8.98-2.091c2.031,2.845-0.53,4.469-2.021,5.812c-1.953,1.761-3.786,3.652-5.756,5.397
	c-3.271,1.385-6.557,2.708-10.233,2.277C362.621,432.182,361.911,431.772,361.479,430.979z"/>
<path fill-rule="evenodd" clip-rule="evenodd" fill="#8CC7E0" d="M135.51,423.957c-1.319-4.334-5.349-7.307-6.008-11.972
	c2.662,1.051,5.324,2.101,7.985,3.151c1.982,1.98,4.401,3.515,5.987,5.903c1.111,1.672,2.318,3.306,1.051,5.435
	c-0.612,0.553-1.34,0.827-2.152,0.908C139.388,427.639,137.33,426.036,135.51,423.957z"/>
<path fill-rule="evenodd" clip-rule="evenodd" fill="#91C9E1" d="M388.494,417.005c2.669-0.934,5.339-1.866,8.007-2.8
	c1.674,2.308-0.044,4.018-1.115,5.752c-1.646,2.668-3.895,4.842-6.178,6.971c-0.408,0.302-0.857,0.522-1.335,0.691
	c-2.892,0.362-5.566,2.258-8.659,1.277c-0.433-0.24-0.777-0.576-1.023-1.008C379.758,422.498,384.338,419.952,388.494,417.005z"/>
<path fill-rule="evenodd" clip-rule="evenodd" fill="#84C3DE" d="M409.549,407.165c0.158,5.832-3.277,10.191-6.069,14.814
	c-0.078,0.227-0.154,0.453-0.229,0.682c-1.785,1.908-3.869,2.807-6.484,1.919c-0.4-0.293-0.666-0.68-0.781-1.165
	c0.589-4.733,4.015-7.915,6.4-11.668C404.772,410.22,407.161,408.692,409.549,407.165z"/>
<path fill-rule="evenodd" clip-rule="evenodd" fill="#84C3DE" d="M405.481,381.054c0.188,4.956,4.904,8.589,4.051,13.85
	c-2.389-1.525-4.778-3.052-7.167-4.577c-1.054-2.283-3.353-3.683-4.283-6.058c-0.683-1.744-1.178-3.475,0.001-5.214
	c1.688-1.73,3.523-0.607,5.322-0.281C404.469,379.195,405.209,379.912,405.481,381.054z"/>
<path fill-rule="evenodd" clip-rule="evenodd" fill="#9DCFE4" d="M376.483,374.034c2.02,3.842,7.666,4.762,8.012,9.95
	c-2.774-0.218-5.432-0.912-8-1.967c-2.814-2.024-6.013-3.505-8.631-5.783c-1.344-1.17-3.572-2.231-2.133-4.771
	c2.594-1.679,5.105,0.737,7.682,0.145C374.808,371.947,375.932,372.63,376.483,374.034z"/>
<path fill-rule="evenodd" clip-rule="evenodd" fill="#9ACDE3" d="M151.519,419.13c2.393,3.835,6.747,5.885,8.979,9.867
	c-0.641,1.068-1.696,1.337-2.824,1.469c-2.474-0.013-4.8-0.543-6.856-1.996c-1.279-1.758-3.016-3.063-4.53-4.59
	c-1.802-1.816-4.125-3.624-2.785-6.809C146.175,417.758,148.847,418.444,151.519,419.13z"/>
<path fill-rule="evenodd" clip-rule="evenodd" fill="#8AC6DF" d="M398.476,379.05c-0.331,4.319,4.643,6.809,3.89,11.275
	c-1.964-0.819-3.928-1.639-5.892-2.459c-2.826-3.295-4.869-7.094-6.986-10.846c0.278-0.438,0.657-0.757,1.134-0.964
	c2.862-0.335,5.472,0.186,7.61,2.277C398.314,378.571,398.395,378.811,398.476,379.05z"/>
<path fill-rule="evenodd" clip-rule="evenodd" fill="#8BC6E0" d="M402.386,411.747c0.092,5.062-3.616,8.293-5.888,12.217
	c-2.108,2.91-4.64,4.142-8.013,2.012c2.633-3.95,6.295-7.2,8.016-11.771C398.463,413.386,400.424,412.566,402.386,411.747z"/>
<path fill-rule="evenodd" clip-rule="evenodd" fill="#84C2DE" d="M127.491,381.033c1.034-0.322,2.068-0.645,3.103-0.967
	c-0.034,3.312-0.068,6.624-0.103,9.937c-2.966,1.747-5.932,3.493-8.898,5.24C121.817,389.784,124.676,385.418,127.491,381.033z"/>
<path fill-rule="evenodd" clip-rule="evenodd" fill="#A2D1E6" d="M365.487,372.035c3.229,3.814,9.213,4.589,11.008,9.982
	c-2.011-0.37-4.021-0.741-6.033-1.112c-4.122-4.054-9.145-6.835-13.97-9.893c2.548-2.819,5.214-0.93,7.853-0.197
	C364.847,371.108,365.228,371.516,365.487,372.035z"/>
<path fill-rule="evenodd" clip-rule="evenodd" fill="#A4AFB0" d="M300.519,392.993c0.357-0.377,0.715-0.755,1.072-1.132
	c5.959,8.019,13.491,14.356,21.369,20.371C313.741,407.868,305.858,401.941,300.519,392.993z"/>
<path fill-rule="evenodd" clip-rule="evenodd" fill="#93CAE2" d="M143.503,417.071c1.556,4.203,5.737,6.301,7.986,9.948
	c-0.522,0.708-1.22,1.15-2.068,1.368c-2.188,0.313-3.955-0.232-4.917-2.414c-1.394-4.225-6.379-6.124-7.017-10.838
	C139.493,415.781,141.498,416.426,143.503,417.071z"/>
<path fill-rule="evenodd" clip-rule="evenodd" fill="#98CDE3" d="M388.494,417.005c-2.447,4.466-6.918,7.091-10,10.979
	c-1.405,1.671-2.958,2.591-5.01,0.989c0.825-2.707,3.239-3.951,5.162-5.666c1.327-1.183,2.736-2.379,2.827-4.389
	C383.665,417.734,386.043,417.236,388.494,417.005z"/>
<path fill-rule="evenodd" clip-rule="evenodd" fill="#3F8DCD" d="M94.476,367.971c0.67-0.334,1.341-0.667,2.012-1.001
	c2.999-0.666,5.998-1.33,8.996-1.995c0.336,0.017,0.672,0.033,1.008,0.051c0.987,4.947-3.119,8.137-4.252,12.358
	c-0.825,1.038-1.879,1.721-3.166,2.039c-2.681,0.613-4.909,2.596-7.798,2.607c-0.812-0.051-1.526-0.327-2.103-0.919
	C88.245,375.646,90.501,371.461,94.476,367.971z"/>
<path fill-rule="evenodd" clip-rule="evenodd" fill="#4D95D0" d="M116.484,362.969c3.67-0.665,7.34-1.33,11.011-1.995
	c0-0.001-0.021,0.064-0.021,0.064c0.513,3.501-2.4,5.159-4.163,7.324c-1.327,1.629-2.638,3.338-4.231,4.765
	c-2.09,1.497-4.44,2.315-6.964,2.691c-1.268,0.111-2.572,0.44-3.7-0.493c-1.314-6.206,3.219-9.05,7.072-12.285
	C115.82,363.021,116.152,362.997,116.484,362.969z"/>
<path fill-rule="evenodd" clip-rule="evenodd" fill="#4691CE" d="M115.487,363.04c-2.333,3.983-4.667,7.967-7,11.95
	c-0.419,1.347-1.418,2.024-2.713,2.365c-1.438,0.006-2.951,0.832-4.288-0.367c-0.119-4.736,2.715-8.236,5.006-11.963
	C109.49,364.363,112.489,363.701,115.487,363.04z"/>
<path fill-rule="evenodd" clip-rule="evenodd" fill="#569BD3" d="M118.489,372.007c2.608-3.974,5.458-7.749,8.984-10.969
	c2.337-0.354,4.675-0.707,7.013-1.062c0.67,0.01,1.339,0.021,2.009,0.031c-0.603,4.985-5.071,6.876-8.002,9.997l0.004,0.016
	c-2.385,2.561-5.21,3.849-8.767,3.03C119.212,372.829,118.799,372.479,118.489,372.007z"/>
<path fill-rule="evenodd" clip-rule="evenodd" fill="#5FA0D5" d="M128.494,370.005c1.149-4.547,4.637-7.223,8.002-9.997
	c4-0.659,7.999-1.318,11.999-1.978c-3.667,3.327-7.334,6.653-11.001,9.979C134.493,368.675,131.493,369.34,128.494,370.005z"/>
<path fill-rule="evenodd" clip-rule="evenodd" fill="#3586CA" d="M70.495,392.012c-0.413-6.533,2.64-12.521,2.985-18.935
	c3.672-1.012,7.344-2.024,11.017-3.037c2.67,3.212,0.243,6.316-0.251,9.439c-0.313,1.979-1.651,3.604-2.267,5.496
	c-0.113,0.511-0.327,0.979-0.626,1.408C77.914,388.6,75.375,392.567,70.495,392.012z"/>
<path fill-rule="evenodd" clip-rule="evenodd" fill="#3989CB" d="M80.494,385.01c1.334-4.99,2.668-9.98,4.002-14.97
	c0.667-0.341,1.333-0.682,2-1.022c2.66-0.349,5.32-0.697,7.98-1.047c-1.662,4.343-3.324,8.686-4.987,13.028
	C86.982,385.396,85.047,386.259,80.494,385.01z"/>
<path fill-rule="evenodd" clip-rule="evenodd" fill="#4491BC" d="M70.495,392.012c3.237-2.159,5.934-5.213,9.982-6.03
	c1.718,1.23,1.968,3.049,1.706,4.896c-0.917,6.447-0.625,12.899-0.276,19.357c0.123,2.267-0.4,4.277-2.255,5.77
	c-3.337,1.669-4.738-0.68-6.162-2.98C65.178,406.229,64.443,401.07,70.495,392.012z"/>
<path fill-rule="evenodd" clip-rule="evenodd" fill="#3888CA" d="M73.489,413.023c1.672,0.989,3.343,1.979,5.015,2.969
	c5.056-1.085,8.281,1.999,11.526,5.053c0.31,0.396,0.535,0.837,0.707,1.307c-0.375,4.07,2.872,7.965,0.618,12.138
	c-3.12,1.539-4.66-1.366-6.854-2.437c-2.998-1.027-6.334-1.044-9.014-3.021C75.762,423.577,72.69,418.542,73.489,413.023z"/>
<path fill-rule="evenodd" clip-rule="evenodd" fill="#3672B4" d="M84.5,432.053c2.33,0.638,4.66,1.275,6.99,1.914
	c1.969-1.665,3.834-0.862,5.694,0.229c2.083,2.342,3.794,4.775,1.822,8.042c-0.639,0.684-1.438,1.044-2.357,1.153
	c-2.845,0.552-5.108-0.599-7.132-2.448c-0.673-0.334-1.346-0.668-2.02-1.003C87.367,436.98,86.227,434.405,84.5,432.053z"/>
<path fill-rule="evenodd" clip-rule="evenodd" fill="#408DCD" d="M435.503,434.965c-1.666,0.361-3.332,0.723-4.998,1.083
	c-1.311,1.532-2.738,2.665-4.866,1.444c-1.962-3.019,0.282-5.37,1.355-7.84c0.859-1.978,2.265-3.676,3.493-5.459
	c0.932-0.983,2.066-1.606,3.386-1.895c2.823-0.756,5.34-3.567,8.622-1.319l-0.006,0.036
	C439.853,425.512,438.842,430.821,435.503,434.965z"/>
<path fill-rule="evenodd" clip-rule="evenodd" fill="#3E77B6" d="M427.495,443.103c-1.016,0.339-2.031,0.678-3.047,1.017
	c-3.297,0.945-5.93,3.792-9.697,3.402c-0.806-0.154-1.555-0.434-2.168-1.007c-1.171-4.258,3.089-5.69,4.487-8.621
	c2.659-1.679,5.343-3.158,8.427-0.915c1.669-0.311,3.338-0.621,5.007-0.931C430.67,438.897,428.785,440.873,427.495,443.103z"/>
<path fill-rule="evenodd" clip-rule="evenodd" fill="#5386BE" d="M389.471,352.931c2.343,0.319,4.687,0.639,7.029,0.956
	c0.34,0.074,0.68,0.15,1.02,0.226c1.911,0.836,3.739,1.864,5.384,3.111c1.384,1.049,2.771,2.372,1.388,4.421
	c-1.097,0.951-2.431,0.851-3.743,0.845c-3.408,0.109-6.506-1.505-9.85-1.766c-0.523-0.034-1.024-0.161-1.514-0.346
	c-3.433-2.378-7.988-3.645-8.734-8.723c0.362-0.417,0.799-0.726,1.31-0.936C384.778,349.896,386.899,352.195,389.471,352.931z"/>
<path fill-rule="evenodd" clip-rule="evenodd" fill="#487EBA" d="M404.496,360.997c-2.02-2.606-5.375-3.858-6.978-6.886
	c1.319-0.008,2.638-0.016,3.956-0.023c2.17,1.466,4.65,0.755,6.994,1.001c1.016,0.337,2.031,0.674,3.047,1.011
	c2.261,1.952,6.146,3.013,4.041,7.365c-2.056,1.735-4.196-0.101-6.292,0.16C407.126,363.745,405.394,363.124,404.496,360.997z"/>
<path fill-rule="evenodd" clip-rule="evenodd" fill="#9DC5DB" d="M352.493,370.008c-3.668-0.329-7.336-0.657-11.004-0.985
	c-2.666-0.341-5.332-0.681-7.998-1.021c-9.145-1.868-18.395-2.936-27.704-3.45c-1.833-0.101-3.585-0.276-5.274-0.971
	c-1.057-0.067-2.076-0.321-3.088-0.624c-0.297,0.009-0.594,0.025-0.89,0.049c0.024-1.337,0.05-2.673,0.075-4.01
	c4.57-2.887,9.576-1.382,14.355-1.116c2.225,0.123,4.523,0.551,6.801,0.706c9.801,1.64,19.606,3.32,29.087,6.403
	C349.351,365.8,352.651,366.061,352.493,370.008z"/>
<path fill-rule="evenodd" clip-rule="evenodd" fill="#80B3DD" d="M298.405,353.985c0.057-0.661,0.113-1.322,0.17-1.983
	c5.766-2.923,11.932-1.507,17.852-1.167c3.381,0.194,6.816,0.527,10.229,0.743c10.869,1.844,21.809,3.464,32.018,7.935
	c2.099,0.919,5.023,1.284,4.982,4.644c-0.766,1.034-1.92,1.221-3.069,1.43c-4.193-0.818-8.497-1.096-12.6-2.415
	c-8.416-3.768-17.497-4.455-26.457-5.641c-6.858-0.906-13.744-1.629-20.647-2.142C299.853,355.312,298.964,354.924,298.405,353.985z
	"/>
<path fill-rule="evenodd" clip-rule="evenodd" fill="#709AC9" d="M300.571,346.917c9.328-0.039,18.648,0.151,27.938,1.116
	c6.921,0.458,13.711,1.992,20.627,2.505c2.783,0.205,5.322,0.882,5.641,4.355c-0.272,0.527-0.665,0.939-1.172,1.246
	c-4.357,1.451-8.271-1.686-12.534-1.223c-1.804-0.853-3.753-0.93-5.695-1.057c-0.55-0.161-1.083-0.354-1.608-0.583
	c-9.918-1.487-19.87-2.552-29.902-2.796c-1.652-0.041-3.441-0.084-3.408-2.505C300.494,347.624,300.532,347.271,300.571,346.917z"/>
<path fill-rule="evenodd" clip-rule="evenodd" fill="#86B7DF" d="M298.405,353.985c15.417,0.527,30.666,2.339,45.689,5.927
	c1.643,0.392,3.23,0.768,4.4,2.093c-0.935,1.417-2.502,1.482-3.93,1.853c-3.771-0.353-7.367-1.729-11.166-1.954
	c-10.295-2.677-20.762-4.123-31.394-4.396c-1.644-0.042-3.384,0.217-4.464-1.498C297.829,355.335,298.117,354.66,298.405,353.985z"
	/>
<path fill-rule="evenodd" clip-rule="evenodd" fill="#8CBAE0" d="M297.542,356.01c12.176,0.29,24.328,0.746,35.956,4.988
	c-1.551,1.617-3.569,0.867-5.027,0.367c-3.289-1.129-6.76-0.222-9.978-1.353c-7.296-0.325-14.553-1.498-21.885-1.018
	C296.921,358,297.231,357.005,297.542,356.01z"/>
<path fill-rule="evenodd" clip-rule="evenodd" fill="#769FCC" d="M300.456,347.977c5.076,1.577,10.38,1.417,15.582,2.029
	c6.196,0.73,12.535,0.581,18.455,3.005c-2.33,0.794-4.661,0.752-6.994,0.017c-9.65-0.094-19.249-1.659-28.925-1.025
	C299.202,350.66,299.829,349.318,300.456,347.977z"/>
<path fill-rule="evenodd" clip-rule="evenodd" fill="#4179B7" d="M415.483,363.027c-0.404-2.836-3.212-4.295-3.969-6.929
	c1.998,0.252,3.996,0.504,5.993,0.754c1.182,0.891,2.527,1.208,3.983,1.139c0.502,2.808,1.9,5.101,4.007,6.988
	c-1.894,2.379-4.243,0.365-6.356,0.671C417.382,365.531,415.551,365.504,415.483,363.027z"/>
<path fill-rule="evenodd" clip-rule="evenodd" fill="#4D97BF" d="M442.495,420.979c-2.668,1.002-5.338,2.005-8.007,3.007
	c-2.28-2.31-1.549-4.997-0.587-7.438c4.084-10.354,3.637-20.634,0.01-30.978c-0.759-2.161-1.434-4.48,0.242-6.63
	c0.795-0.535,1.578-0.57,2.342,0.062c2,1,4,2,6,3c0.323,1.945,0.446,3.949,1.004,5.824c2.612,8.794,2.66,17.551-0.024,26.328
	C442.796,416.373,442.298,418.63,442.495,420.979z"/>
<path fill-rule="evenodd" clip-rule="evenodd" fill="#438FCD" d="M436.495,379.003c-0.668,0.006-1.337,0.011-2.006,0.017
	c-3.617,1.841-6.236-1.374-9.4-1.846c-0.725-0.342-1.297-0.855-1.733-1.522c-0.576-1.905-2.062-3.263-2.991-4.942
	c-1.143-2.064-2.757-4.183-0.873-6.688c2.002,0.32,4.004,0.64,6.007,0.959c2.332,0.673,4.664,1.346,6.996,2.019
	C432.716,371.37,436.038,374.709,436.495,379.003z"/>
<path fill-rule="evenodd" clip-rule="evenodd" fill="#A4C9DE" d="M197.496,434.03c4.364-0.087,8.598,1.582,13.001,0.972
	c29.344,3.373,58.806,1.947,88.213,1.743c7.514-0.052,15.288,0.07,22.781-1.741c2.667,0.002,5.334,0.003,8.002,0.005
	c-0.399,3.692-3.483,3.531-5.946,3.916c-11.645,1.821-23.374,3.267-35.138,3.444c-16.275,0.246-32.562,0.506-48.848-0.251
	c-12.122-0.563-24.138-1.811-36.042-4.112C201.036,437.526,198.034,437.57,197.496,434.03z"/>
<path fill-rule="evenodd" clip-rule="evenodd" fill="#75BCDA" d="M119.493,384.013c-6.101,11.172-4.667,22.568-1.017,34.031
	c-3.361,2.294-5.495-0.887-8.143-1.815c-1.01-0.64-1.742-1.5-2.118-2.646c-2.458-8.057-2.854-16.123-0.095-24.2
	c0.292-1.514,1.182-2.605,2.428-3.445C113.576,385.539,115.847,381.556,119.493,384.013z"/>
<path fill-rule="evenodd" clip-rule="evenodd" fill="#64A4C7" d="M119.493,384.013c-2.666,1.004-5.331,2.009-7.997,3.014
	c-0.744-6.818,3.313-11.078,7.998-15.002c3.001-0.668,6.002-1.336,9.003-2.004c-2.666,4.336-5.332,8.672-7.998,13.008
	C120.165,383.356,119.829,383.685,119.493,384.013z"/>
<path fill-rule="evenodd" clip-rule="evenodd" fill="#64A3C7" d="M111.479,415.062c2.333,0.994,4.666,1.987,6.999,2.981
	c0.335,0.333,0.672,0.665,1.008,0.998c3.291,3.937,7.504,7.392,6.967,13.333c-2.998,1.812-5.597-0.378-8.378-0.816
	c-0.517-0.188-0.98-0.468-1.406-0.812c-2.076-2.973-4.326-5.855-5.642-9.28C110.193,419.3,109.275,417.049,111.479,415.062z"/>
<path fill-rule="evenodd" clip-rule="evenodd" fill="#6CA8CA" d="M126.498,431.993c-2.981-3.969-5.97-7.934-7.013-12.951
	c2.335,0.656,4.671,1.313,7.006,1.97c0.335,0.329,0.67,0.657,1.005,0.986c2.349,1.82,4.649,3.704,6.222,6.276
	c1.027,1.68,2.181,3.415,0.595,5.418c-1.443,1.15-3.151,0.712-4.774,0.802C127.992,434.308,126.875,433.6,126.498,431.993z"/>
<path fill-rule="evenodd" clip-rule="evenodd" fill="#77BCDA" d="M411.493,419.003c4.996-10.115,6.543-20.436,1.972-31.17
	c-0.511-1.198-0.653-2.555-0.966-3.838c1.479-1.496,3.108-0.554,4.703-0.3c1.682,0.695,2.926,1.827,3.566,3.562
	c4.125,9.592,3.697,19.138-0.3,28.648C417.812,417.901,415.599,421.201,411.493,419.003z"/>
<path fill-rule="evenodd" clip-rule="evenodd" fill="#65A5C8" d="M411.493,419.003c2.668-1.021,5.336-2.044,8.005-3.065
	c0.12,0.215,0.24,0.43,0.363,0.644c-0.843,5.853-4.256,10.312-7.938,14.629c-2.497,1.532-5.074,2.749-8.133,2.075
	c-0.498-0.167-0.935-0.442-1.312-0.809c-0.504-6.193,3.969-9.2,8.012-12.482C410.823,419.664,411.158,419.333,411.493,419.003z"/>
<path fill-rule="evenodd" clip-rule="evenodd" fill="#66A5C8" d="M416.492,384.995c-1.331-0.333-2.662-0.666-3.993-1
	c-0.336-0.331-0.672-0.661-1.008-0.992c-3.619-2.124-6.182-5.236-8.22-8.829c-0.794-1.4-1.826-2.781-0.768-4.51
	c1.69-1.329,3.515-0.043,5.267-0.282c1.371,0.152,2.545,0.728,3.558,1.651c1.964,2.794,3.987,5.561,5.157,8.821
	C417.099,381.562,417.675,383.28,416.492,384.995z"/>
<path fill-rule="evenodd" clip-rule="evenodd" fill="#6CA8CA" d="M402.491,370.022c3,4.327,6,8.654,9,12.98
	c-2.003-0.649-4.006-1.3-6.01-1.949c-0.672-0.331-1.344-0.662-2.016-0.994c-2.311-1.892-4.628-3.786-6.229-6.363
	c-0.968-1.557-1.967-3.146-0.823-5.067c0.851-0.761,1.862-0.956,2.962-0.858C400.763,368.037,401.907,368.643,402.491,370.022z"/>
<path fill-rule="evenodd" clip-rule="evenodd" fill="#6CA9CA" d="M410.489,419.994c-2.176,4.331-5.117,8.151-7.998,12.013
	c-1.123,2.837-3.183,2.8-5.553,1.814c-2.077-2.178-0.375-4.01,0.652-5.798c1.431-2.491,3.604-4.323,5.906-5.993
	c0,0-0.018-0.05-0.018-0.051C405.938,421.753,407.905,419.783,410.489,419.994z"/>
<path fill-rule="evenodd" clip-rule="evenodd" fill="#A3C9DE" d="M299.317,362.106c9.594,1.099,19.229,1.892,28.704,3.884
	c1.937,0.407,3.883,0.695,5.47,2.011c-2.332,0.001-4.664,0.002-6.997,0.003c-6.688-1.396-13.526-1.251-20.28-1.983
	c-1.943-0.211-4.035,0.455-5.749-1.03C299.154,364.398,298.503,363.544,299.317,362.106z"/>
<path fill-rule="evenodd" clip-rule="evenodd" fill="#E1EFF5" d="M299.317,362.106c0.383,0.961,0.766,1.923,1.148,2.885
	c-0.918,0.801-0.984,1.882-0.984,2.984c-1.23-1.45-1.604-3.25-2.056-5.019C298.056,362.673,298.687,362.39,299.317,362.106z"/>
<path fill-rule="evenodd" clip-rule="evenodd" fill="#9DC5DB" d="M197.496,434.03c7.724,3.397,16.079,3.857,24.251,4.887
	c20.312,2.558,40.766,2.525,61.176,1.98c14.229-0.38,28.428-1.845,42.503-4.145c1.413-0.23,2.714-1.146,4.067-1.744
	c5.33-0.673,10.661-1.345,15.991-2.018c1.337,0.006,2.673,0.012,4.009,0.018c0.379,3.459-2.385,4.116-4.657,4.822
	c-6.817,2.116-13.862,3.354-20.879,4.527c-4.755,0.795-9.479,1.703-14.21,2.632c-29.149,1.771-58.295,1.958-87.437,0.021
	c-12.957-2.442-26.116-3.987-38.638-8.447c-2.182-0.777-4.612-1.337-4.181-4.53c2.336,0.317,4.673,0.634,7.01,0.951
	C190.166,433.333,193.831,433.682,197.496,434.03z"/>
<path fill-rule="evenodd" clip-rule="evenodd" fill="#95C1D9" d="M310.493,443.004c7.635-1.347,15.318-2.476,22.891-4.112
	c5.596-1.21,11.47-1.938,16.109-5.883c3.906-1.209,7.902-1.88,11.986-2.03c0.672,0.011,1.344,0.021,2.015,0.032
	c0.499,3.783-2.579,4.836-5.012,5.608c-4.371,1.389-8.487,3.367-12.8,4.874c-9.901,1.787-19.975,2.063-29.919,3.463
	C313.794,445.234,311.751,444.996,310.493,443.004z"/>
<path fill-rule="evenodd" clip-rule="evenodd" fill="#87B8D4" d="M360.493,364.007c1-0.003,2-0.005,3-0.007
	c2.348-2.883,5.05-0.076,7.55-0.476c0.529-0.008,1.041,0.09,1.534,0.279c2.258,1.831,4.548,3.604,6.994,5.221
	c2.01,1.328,4.787,2.597,3.922,5.993c-2.337-0.328-4.673-0.656-7.009-0.983c-1.098-0.039-2.198-0.067-3.007-0.987
	c-3.144-1.775-6.666-2.791-9.695-4.774C362.223,367.252,360.049,366.609,360.493,364.007z"/>
<path fill-rule="evenodd" clip-rule="evenodd" fill="#7FB4D1" d="M383.493,375.018c-2.8-4.288-8.377-5.52-11.004-9.997
	c2.151-2.389,4.512-0.829,6.814-0.365c3.331,1.422,5.973,3.893,8.785,6.049c1.893,1.45,3.693,3.39,2.404,6.271
	c-0.336,0.015-0.67,0.03-1.006,0.045C387.489,376.353,385.491,375.685,383.493,375.018z"/>
<path fill-rule="evenodd" clip-rule="evenodd" fill="#73ACCC" d="M134.485,433.024c-1.526-4.186-6.03-6.482-6.989-11.026
	c2.598-0.253,4.547,1.75,6.996,2.015c3.274,1.456,5.608,4.033,7.79,6.729c1.099,1.357,2.498,2.838,1.001,4.822
	c-2.053,1.411-4.159-0.089-6.24,0.13C135.709,435.268,134.277,434.927,134.485,433.024z"/>
<path fill-rule="evenodd" clip-rule="evenodd" fill="#7AB0CF" d="M143.497,435.001c-2.79-3.837-6.824-6.652-9.005-10.988
	c0.339-0.019,0.678-0.036,1.018-0.055c2.571-0.146,4.538,1.767,6.983,2.051c2.204,1.919,5.072,2.931,7.064,5.128
	c1.388,1.529,3.224,2.947,1.863,5.442c-0.62,0.574-1.389,0.832-2.18,1.062C146.8,437.904,144.664,437.502,143.497,435.001z"/>
<path fill-rule="evenodd" clip-rule="evenodd" fill="#95C1D9" d="M318.493,360.013c5.064-0.623,9.971,1.15,15.005,0.985
	c3.739-0.469,7.31,0.892,10.995,1.015c5.866,1.307,11.926,2.014,17.145,5.363c1.654,1.062,3.506,2.083,2.855,4.609
	c-2.667-0.324-5.334-0.648-8.001-0.973c-1.333-0.335-2.666-0.67-3.999-1.005c-5.724-4.359-12.753-5.085-19.361-7.005
	C328.325,361.606,323.157,362.055,318.493,360.013z"/>
<path fill-rule="evenodd" clip-rule="evenodd" fill="#95C1D9" d="M179.492,432.033c2.657,3.504,6.86,3.848,10.592,4.815
	c9.573,2.485,19.162,5.055,29.167,5.25c0.753,0.015,1.495,0.592,2.242,0.908c-2.256,2.941-5.407,2.121-8.277,1.731
	c-7.222-0.979-14.495-1.426-21.72-2.286c-7.844-2.362-15.811-4.406-23.034-8.471c-1.562-0.88-3.408-1.564-2.966-3.955
	c2.334,0.323,4.669,0.646,7.003,0.97C174.83,431.342,177.161,431.688,179.492,432.033z"/>
<path fill-rule="evenodd" clip-rule="evenodd" fill="#8EBDD6" d="M165.496,430.026c7.532,5.486,16.678,7.294,25.003,10.973
	c-0.277,0.52-0.667,0.934-1.165,1.249c-5.723,1.522-10.964-1.128-16.419-1.912c-3.438-2.254-7.311-3.685-10.883-5.675
	c-2.18-1.214-4.923-2.26-4.539-5.654c1.001-0.004,2.003-0.007,3.004-0.01C162.164,429.34,163.83,429.684,165.496,430.026z"/>
<path fill-rule="evenodd" clip-rule="evenodd" fill="#8CBCD6" d="M346.487,440.007c3.239-2.624,7.442-3.138,11.007-5.033
	c2.116-1.124,4.66-1.647,6-3.963c3.33-0.679,6.66-1.357,9.99-2.036c1.67-0.33,3.34-0.66,5.01-0.989c0-0.001-0.014,0.05-0.014,0.05
	c0.526,2.76-1.708,3.73-3.378,4.87c-4.355,2.969-9.143,5.183-13.881,7.473c-2.959-0.123-5.805,0.456-8.598,1.393
	c-1.377-0.092-2.74-0.32-4.12-0.41C347.638,441.196,346.925,440.806,346.487,440.007z"/>
<path fill-rule="evenodd" clip-rule="evenodd" fill="#80B4D1" d="M151.496,436.007c-1.918-4.308-7.849-5.002-9.002-9.998
	c0.67-0.012,1.34-0.023,2.011-0.035c1.664,0.357,3.327,0.715,4.99,1.072c3.342,2.875,7.597,4.431,10.828,7.445
	c1.167,1.088,3.462,1.935,1.542,4.229C157.789,440.179,154.293,439.422,151.496,436.007z"/>
<path fill-rule="evenodd" clip-rule="evenodd" fill="#83B6D2" d="M361.488,438.994c5.528-3.863,11.858-6.485,16.992-10.96
	c3.004-0.662,6.009-1.326,9.013-1.989c0.953,2.998-1.227,4.651-3.039,6.09c-2.9,2.304-5.824,4.657-9.242,6.236
	c-2.64,0.191-5.1,1.151-7.619,1.827c-1.992,0.534-3.854,0.735-5.629-0.539C361.804,439.439,361.646,439.217,361.488,438.994z"/>
<path fill-rule="evenodd" clip-rule="evenodd" fill="#7AB1CF" d="M375.492,436.997c4.058-3.588,8.913-6.302,12.001-10.952
	c0.33-0.022,0.661-0.045,0.992-0.069c2.67-0.671,5.342-1.341,8.013-2.012l-0.019,0.074c1.38,3.588-1.259,5.557-3.363,7.417
	c-1.604,1.416-2.964,2.994-4.387,4.55c-1.785,1.229-3.782,1.798-5.931,1.899c-2.254-0.571-4.624,1.437-6.831-0.279
	C375.808,437.417,375.649,437.207,375.492,436.997z"/>
<path fill-rule="evenodd" clip-rule="evenodd" fill="#72ACCC" d="M388.485,434.994c1.308-4.643,6.613-6.368,7.994-10.956
	c2.34-0.669,4.679-1.339,7.018-2.008c-1.6,4.129-4.764,7.26-7.003,10.98c-0.318,1.516-1.381,2.211-2.782,2.539
	C391.977,435.328,390.06,436.75,388.485,434.994z"/>
<path fill-rule="evenodd" clip-rule="evenodd" fill="#72ACCC" d="M396.491,369.018c1.55,4.17,6.082,6.456,6.976,11.042
	c-1.664-0.337-3.327-0.674-4.991-1.011c0,0.001,0.02-0.052,0.02-0.052c-2.687-2.116-6.164-3.149-8.202-6.179
	c-1.142-1.696-2.345-3.254-0.87-5.327c0.878-0.761,1.932-0.903,3.039-0.872C394.235,366.695,395.683,367.321,396.491,369.018z"/>
<path fill-rule="evenodd" clip-rule="evenodd" fill="#8EBCD6" d="M364.493,371.985c-5.564-5.535-13.227-6.862-20-9.973
	c1.334-0.003,2.668-0.005,4.002-0.008c4,0.667,7.998,1.334,11.998,2.002c4.035,3.433,9.914,4.218,12.984,9.04
	c-2.664-0.337-5.326-0.675-7.99-1.012C365.156,372.017,364.825,372,364.493,371.985z"/>
<path fill-rule="evenodd" clip-rule="evenodd" fill="#87B8D4" d="M162.496,438.004c-4.516-3.438-10.405-5.245-13.001-10.959
	c0.665-0.008,1.33-0.017,1.995-0.025c2.001,0.662,4.003,1.324,6.004,1.987c4.173,4.573,10.749,5.539,15.001,9.993
	c-0.158,0.217-0.315,0.433-0.471,0.651c-3.296,2.158-6.128,0.009-9.086-0.979C162.789,438.45,162.643,438.228,162.496,438.004z"/>
<path fill-rule="evenodd" clip-rule="evenodd" fill="#79B0CF" d="M389.492,368.01c1.522,4.874,6.615,6.822,9.003,10.987
	c-2.667-0.674-5.335-1.348-8.002-2.021c-2.035-5.292-7.271-7.369-11.005-10.955c0.688-1.038,1.745-1.297,2.89-1.386
	C385.117,364.977,387.907,365.227,389.492,368.01z"/>
<path fill-rule="evenodd" clip-rule="evenodd" fill="#4994BD" d="M89.498,421.997c-3.665-2.002-7.33-4.003-10.995-6.005
	c1.4-2.172,1.37-4.424,1.168-6.999c-0.603-7.673-0.208-15.366,0.806-23.012c0.004-0.324,0.01-0.647,0.017-0.972
	c3.291-0.682,5.986-2.7,8.996-4.011c0.666-0.002,1.332-0.004,1.998-0.006c1.828,1.51,1.865,3.541,1.193,5.47
	c-3.389,9.737-1.635,19.731-1.575,29.633C91.119,418.286,91.536,420.432,89.498,421.997z"/>
<path fill-rule="evenodd" clip-rule="evenodd" fill="#539AC1" d="M101.486,376.988c1.336-0.326,2.672-0.652,4.007-0.979
	c2.132,2.557,0.558,4.997-0.369,7.351c-1.438,3.651-3.17,7.194-3.036,11.253c-1.613,5.074-0.894,9.871,1.752,14.44
	c-0.63,3.729,0.713,7.031,2.11,10.366c1.047,2.501,2.618,5.039,0.782,7.87c-2.52,1.729-4.755-0.212-7.124-0.535
	c-1.408-0.518-2.545-1.36-3.256-2.712c-6.392-13.012-5.878-26.327-1.784-39.818c0.746-2.457,2.286-4.349,3.923-6.21
	C99.491,377.673,100.488,377.33,101.486,376.988z"/>
<path fill-rule="evenodd" clip-rule="evenodd" fill="#4F97BF" d="M98.494,378.015c-0.499,5.814-3.689,10.886-4.205,16.81
	c-0.8,9.179-0.56,18.075,2.835,26.737c0.293,0.749,0.254,1.627,0.37,2.445c-3.419,2.368-5.733,0.271-8.007-1.983l0.012-0.026
	c-1.293-13.763-2.036-27.499,1.99-41.003C93.421,379.056,96.021,378.686,98.494,378.015z"/>
<path fill-rule="evenodd" clip-rule="evenodd" fill="#5DA0C5" d="M119.495,372.024c-2.666,5-5.332,10.001-7.998,15.002
	c-0.674,0.649-1.348,1.299-2.022,1.948c-1.241,1.218-2.079,3.373-4.472,1.926c-2.219-5.82,1.282-10.039,4.145-14.376
	c0.602-0.912,1.759-1.475,2.349-2.501c2.331-0.672,4.663-1.345,6.994-2.017C118.824,372.013,119.16,372.019,119.495,372.024z"/>
<path fill-rule="evenodd" clip-rule="evenodd" fill="#589DC3" d="M111.496,374.023c-1.571,5.803-5.881,10.634-6.01,16.947
	c-0.375,2.922-1.713,4.669-4.97,4.082c-1.294-7.119,3.667-12.604,4.977-19.043c0.998-0.34,1.996-0.68,2.994-1.02
	C109.49,374.668,110.493,374.346,111.496,374.023z"/>
<path fill-rule="evenodd" clip-rule="evenodd" fill="#408ECD" d="M89.486,422.023c2.669,0.661,5.338,1.322,8.007,1.983
	c0.999,0.341,1.997,0.683,2.995,1.024c1.807,2.271,4.37,4.005,4.926,7.158c0.349,1.979,0.7,3.91-1.121,5.424
	c-3.411,1.625-5.471-0.865-7.793-2.561c-1.67-0.361-3.34-0.724-5.01-1.086C89.839,430.15,88.26,426.322,89.486,422.023z"/>
<path fill-rule="evenodd" clip-rule="evenodd" fill="#3D77B6" d="M104.494,443.956c-2-0.653-4-1.307-6-1.96
	c0.277-2.586-0.816-4.777-1.994-6.944c2.663,0.639,5.325,1.276,7.988,1.914c1.359-1.43,2.811-1.012,4.288-0.229
	c2.081,2.458,4.681,4.607,5.005,8.156c-0.266,0.474-0.643,0.827-1.127,1.073C109.529,446.939,106.865,446.04,104.494,443.956z"/>
<path fill-rule="evenodd" clip-rule="evenodd" fill="#539AC1" d="M425.495,376.005c3.28,0.164,6.142,1.575,8.994,3.015
	c0.736,5.931,3.452,11.332,4.205,17.347c0.855,6.818-0.238,13.11-2.285,19.44c-0.864,2.672-2.122,5.257-1.921,8.18
	c-0.999,0.343-1.997,0.686-2.997,1.028c-1.366,0.744-2.479,2.476-4.386,1.132c-2.056-2.666-0.745-5.322,0.017-7.988
	c0.939-3.291,2.921-6.282,2.838-9.862c0.933-4.355,2.342-8.715-0.053-13.065c-0.469-4.392-2.715-8.167-4.194-12.207
	C424.874,380.733,423.477,378.406,425.495,376.005z"/>
<path fill-rule="evenodd" clip-rule="evenodd" fill="#4691CE" d="M427.491,425.998c1.333-0.328,2.667-0.656,4-0.983
	c-1.998,3.988-3.996,7.977-5.994,11.964c-2.668,0.677-5.334,1.354-8.002,2.03c-0.625,0.591-1.309,0.594-2.033,0.2
	c-0.344-4.964,3.941-7.778,5.5-11.866C422.933,425.898,424.915,424.498,427.491,425.998z"/>
<path fill-rule="evenodd" clip-rule="evenodd" fill="#467DB9" d="M412.541,445.891c-1.347,0.361-2.692,0.723-4.038,1.084
	c-0.845,0.69-1.846,1.015-2.893,1.237c-0.84,0.011-1.57-0.261-2.182-0.845c-1.066-4.971,3.996-5.74,5.928-8.668
	c2.091-0.901,4.185-1.699,6.146,0.278c0.665,0.011,1.329,0.021,1.993,0.031C416.784,441.979,414.86,444.077,412.541,445.891z"/>
<path fill-rule="evenodd" clip-rule="evenodd" fill="#5E8DC2" d="M372.498,350.975c2.675,0.37,5.35,0.74,8.025,1.111
	c2.993,2.297,5.987,4.595,8.981,6.892c-1.998,2.477-4.715,0.821-7.072,1.261c-3.035-0.092-5.861-1.179-8.773-1.863
	c-3.81-1.454-7.283-3.681-11.404-4.484c-1.738-0.339-3.946-1.157-3.739-3.836C363.177,350.361,367.837,350.668,372.498,350.975z"/>
<path fill-rule="evenodd" clip-rule="evenodd" fill="#5398D1" d="M410.495,372.014c-1.001-0.337-2.001-0.674-3.002-1.011
	c-1.967-1.399-4.07-2.67-5.65-4.501c-1.321-1.529-3.062-3.144-1.35-5.498c1.334-0.002,2.668-0.005,4.003-0.007
	c1.664,0.348,3.328,0.695,4.993,1.043c2.297,1.832,4.879,3.386,6.074,6.289c0.697,1.695,1.433,3.375-0.019,5.058
	C413.407,374.605,412.078,372.841,410.495,372.014z"/>
<path fill-rule="evenodd" clip-rule="evenodd" fill="#5B9DD3" d="M400.493,361.004c1.003,4.265,5.854,5.834,7,9.999
	c-1.667-0.327-3.335-0.654-5.002-0.981c-1.106-0.02-2.195-0.09-2.999-1.008c-4.177-2.263-8.528-4.369-8.99-9.979
	C393.833,359.691,397.163,360.348,400.493,361.004z"/>
<path fill-rule="evenodd" clip-rule="evenodd" fill="#61A1D5" d="M390.502,359.035c2.997,3.326,5.993,6.652,8.99,9.979
	c-1.001,0.001-2.001,0.002-3.001,0.004c-1.332-0.339-2.664-0.678-3.996-1.016c-2.492-1.894-5.43-3.183-7.604-5.501
	c-1.182-1.261-3.064-2.191-2.392-4.464c2.335,0.313,4.669,0.627,7.004,0.94C389.837,358.996,390.169,359.016,390.502,359.035z"/>
<path fill-rule="evenodd" clip-rule="evenodd" fill="#4B94D0" d="M415.489,373.017c-0.564-4.443-4.805-6.878-6-10.978
	c1.998,0.33,3.996,0.659,5.995,0.988c1.122,1.191,2.611,0.903,4.007,0.993c0.52,4.187,4.322,6.881,4.997,10.996
	c-2.26,2.508-4.731,0.686-7.131,0.35C416.239,374.978,415.229,374.501,415.489,373.017z"/>
<path fill-rule="evenodd" clip-rule="evenodd" fill="#6995C6" d="M358.516,350.055c4.698,2.958,10.55,3.416,14.994,6.922
	c-0.935,1.514-2.575,1.359-4.005,1.709c-5.034-1.084-10.385-0.913-15.002-3.705c-4.504-4.136-10.567-3.293-15.851-4.942
	c-3.298-1.028-6.933-0.467-10.144-2.005c6.711-0.667,13.293,1.428,19.997,0.928C351.843,349.325,355.179,349.689,358.516,350.055z"
	/>
<path fill-rule="evenodd" clip-rule="evenodd" fill="#79AFDB" d="M371.493,364.998c-2.666-0.333-5.333-0.665-8-0.998
	c-9.911-6.069-21.072-8.105-32.282-9.956c-1.29-0.213-2.651-0.017-3.712-1.017c2.332-0.006,4.663-0.011,6.994-0.017
	c0.33,0.005,0.662,0.006,0.992,0.004c1.498,1.194,3.498-0.193,5.003,0.972c4.405-0.521,8.644,1.039,13.007,1.041
	c3.318,0.978,6.796,1.502,10.002,2.719C366.974,359.064,371.647,359.505,371.493,364.998z"/>
<path fill-rule="evenodd" clip-rule="evenodd" fill="#72AADA" d="M371.493,364.998c-3.185-4.624-8.668-5.228-13.191-7.499
	c-1.61-0.809-3.545-0.978-4.807-2.473c0.336-0.015,0.672-0.03,1.008-0.046c5.053,0.251,10.072,0.754,14.988,2.022
	c3.523,1.243,7.344,1.785,10.327,4.307c1.46,1.234,3.429,2.207,2.671,4.71c-1,0-2.001,0.001-3.001,0.001
	c-2.333-0.333-4.666-0.667-6.999-1C372.157,365.013,371.825,365.005,371.493,364.998z"/>
<path fill-rule="evenodd" clip-rule="evenodd" fill="#769FCC" d="M340.488,353.986c-1.714-0.084-3.54,0.404-5.003-0.972
	C337.196,353.114,339.023,352.616,340.488,353.986z"/>
<path fill-rule="evenodd" clip-rule="evenodd" fill="#5A9EC3" d="M417.493,374.008c2.332,0.336,4.664,0.673,6.995,1.009
	c0.336,0.33,0.671,0.659,1.007,0.988c1.56,6.466,5.602,12.146,6.008,18.976c-3.037,1.3-3.922-2.201-6.141-2.736
	c-1.662-1.13-3.176-2.404-4.111-4.24c-1.062-2.937-2.797-5.562-3.901-8.486C416.635,377.622,415.827,375.806,417.493,374.008z"/>
<path fill-rule="evenodd" clip-rule="evenodd" fill="#6EB8D8" d="M100.516,395.053c1.657-1.36,3.313-2.721,4.97-4.081
	c1.33-0.666,2.659-1.331,3.988-1.996c-1.537,8.335-1.126,16.669,0.026,25.001c-4.362,1.226-5.508-2.119-7.022-4.94
	C98.431,404.851,97.765,400.191,100.516,395.053z"/>
<path fill-rule="evenodd" clip-rule="evenodd" fill="#5C9EC4" d="M102.478,409.036c2.341,1.647,4.682,3.294,7.022,4.941
	c0.66,0.361,1.319,0.723,1.978,1.085c-0.157,5.85,4.498,9.759,6.019,14.932c-2.896,2.539-5.417-0.206-8.11-0.568
	c-1.406-0.282-2.437-1.012-2.89-2.426c-0.595-2.967-1.835-5.684-3.166-8.377C101.815,415.553,101.003,412.388,102.478,409.036z"/>
<path fill-rule="evenodd" clip-rule="evenodd" fill="#4E96D0" d="M109.492,428.016c2.668,0.659,5.336,1.319,8.005,1.979
	c0.333,0.012,0.665,0.021,0.998,0.028c2.644,1.863,5.413,3.591,7.03,6.559c0.834,1.531,2.143,2.969,0.885,4.881
	c-1.646,1.322-3.529,0.47-5.312,0.606c-2.154-0.257-4.21-0.825-6.091-1.949c-1.75-1.725-3.71-3.292-5.02-5.386
	C108.683,432.65,107.328,430.421,109.492,428.016z"/>
<path fill-rule="evenodd" clip-rule="evenodd" fill="#589BD2" d="M126.503,440.976c-2.669-3.651-5.339-7.303-8.008-10.953
	c2.667,0.657,5.335,1.314,8.003,1.971c0.999,0.339,1.997,0.677,2.995,1.016c3.254,2.442,6.904,4.649,5.782,9.708
	c-0.642,0.513-1.409,0.719-2.186,0.918C130.496,443.733,128.061,443.436,126.503,440.976z"/>
<path fill-rule="evenodd" clip-rule="evenodd" fill="#60A0D5" d="M135.497,442.007c-2.418-2.722-4.62-5.587-6.003-8.998
	c1.664,0.005,3.328,0.01,4.992,0.016c0.809,0.918,1.898,0.984,3.007,0.994c2.827,1.7,6.211,2.458,8.611,4.852
	c1.546,1.542,3.907,2.938,2.14,5.778c-2.285,1.51-4.786,0.192-7.164,0.573C138.812,444.859,136.356,444.807,135.497,442.007z"/>
<path fill-rule="evenodd" clip-rule="evenodd" fill="#70B9D9" d="M422.499,387.985c1.333,1.004,2.666,2.009,4,3.013
	c4.42,6.066,3.373,12.699,2.018,19.367c-0.09,0.841-0.42,1.583-0.932,2.246c-2.584,1.404-4.33,4.82-8.104,3.422
	c0,0,0.018-0.094,0.018-0.095c-0.425-4.407,1.696-8.393,2.073-12.702c0.492-5.612-1.754-10.759-2.085-16.197
	C420.953,385.881,421.752,386.85,422.499,387.985z"/>
<path fill-rule="evenodd" clip-rule="evenodd" fill="#5FA1C5" d="M422.499,387.985c-1.004-0.315-2.009-0.631-3.013-0.946
	c-0.998-0.681-1.996-1.362-2.994-2.044c-1.999-4.327-3.999-8.654-5.997-12.981c1.664,0.334,3.33,0.669,4.994,1.003
	c0.668,0.33,1.336,0.661,2.004,0.991C418.261,378.989,422.262,382.813,422.499,387.985z"/>
<path fill-rule="evenodd" clip-rule="evenodd" fill="#5C9FC4" d="M419.48,416.033c2.339-1.335,4.679-2.67,7.018-4.005
	c2.104,5.81-2.04,9.847-4.159,14.44c-0.318,0.69-1.146,1.16-1.529,1.909c-2.004,2.961-4.83,3.487-8.09,2.744
	c-0.52-0.248-0.928-0.621-1.229-1.113C414.153,425.351,416.817,420.691,419.48,416.033z"/>
<path fill-rule="evenodd" clip-rule="evenodd" fill="#579AD2" d="M411.491,430.009c0.338,0.007,0.676,0.015,1.014,0.021
	c1.85,3.286-0.724,5.279-2.434,7.237c-1.588,1.818-3.451,3.47-5.352,5.029c-2.216,1.15-4.531,1.788-7.055,1.343
	c-0.771-0.226-1.529-0.491-2.141-1.047c-1.593-3.75,0.854-5.887,3.383-7.726c1.432-1.042,3.112-1.805,4.592-2.843
	C406.163,431.353,408.827,430.681,411.491,430.009z"/>
<path fill-rule="evenodd" clip-rule="evenodd" fill="#5FA0D5" d="M403.499,432.024c-2.297,3.626-6.468,5.746-8.012,9.977
	c-2.988,4.021-7.012,3.905-11.278,2.836c-2.651-3.504,0.587-5.092,2.493-6.768c1.962-1.725,4.604-2.56,6.793-4.051
	c1-0.336,1.999-0.672,2.999-1.008c2.062,0.039,4.122,0.073,5.997-1.004C402.827,432.013,403.163,432.019,403.499,432.024z"/>
<path fill-rule="evenodd" clip-rule="evenodd" fill="#89B9E0" d="M346.487,440.007c0.67,0.003,1.339,0.007,2.008,0.011
	c0.135,1.841-1.305,1.997-2.545,2.469c-10.209,3.887-20.95,4.854-31.686,6.104c-23.873,2.78-47.835,2.188-71.748,1.732
	c-15.837-0.302-31.735-1.482-47.325-4.863c-2.538-0.551-5.397-0.923-5.703-4.444c0.337-0.005,0.673-0.011,1.01-0.017
	c10.347,0.419,20.609,2.15,30.993,2.008c29.667,1.672,59.334,1.441,89.001-0.003C322.55,442.71,334.529,441.486,346.487,440.007z"/>
<path fill-rule="evenodd" clip-rule="evenodd" fill="#69A5D7" d="M148.501,443.985c-2.84-4.238-7.839-6.092-11.008-9.967
	c2.001,0.328,4.002,0.655,6.004,0.983c1.998,0.339,3.996,0.679,5.994,1.018c3.87,2.208,8.256,3.383,11.968,5.875
	c1.607,1.078,4.242,1.796,2.735,4.764c-2.583,1.509-5.344,0.024-7.995,0.507C153.336,446.825,150.321,446.838,148.501,443.985z"/>
<path fill-rule="evenodd" clip-rule="evenodd" fill="#72ABDA" d="M164.504,445.981c-4.696-3.785-11.303-4.69-15.014-9.962
	c0.668-0.004,1.337-0.009,2.005-0.013c3.667,0.665,7.333,1.331,11,1.997l-0.004,0.013c4.311,2.305,8.97,3.755,13.489,5.555
	c1.773,0.706,4.571,0.832,3.235,4.097c-1.49,0.908-3.185,1.107-4.846,1.452C170.808,448.937,167.1,449.195,164.504,445.981z"/>
<path fill-rule="evenodd" clip-rule="evenodd" fill="#80B3DD" d="M189.489,441.016c8.163,4.945,17.522,4.795,26.498,5.896
	c24.336,2.987,48.843,2.695,73.252,1.88c19.979-0.668,40.141-1.597,59.256-8.774c1.332-0.002,2.664-0.004,3.996-0.006
	c0.317,2.465-1.553,2.801-3.229,3.601c-6.23,2.974-13.091,3.303-19.67,4.735c-3.054,0.666-6.149,1.185-9.17,2.055
	c-0.562,0.054-1.122,0.079-1.687,0.086c-3.465-0.286-6.83,0.429-10.214,1.013c-19.261,1.412-38.549,1.076-57.828,0.975
	c-15.765-0.083-31.505-0.972-47.228-2.029c-9.324-1.563-18.5-3.725-27.434-6.877c-2.207-0.779-4.728-1.182-3.539-4.546
	c0,0,0.001-0.022,0.001-0.023C178.15,439.745,183.725,441.179,189.489,441.016z"/>
<path fill-rule="evenodd" clip-rule="evenodd" fill="#80B3DD" d="M319.501,449.021c6.178-2.417,12.838-2.516,19.223-3.963
	c4.84-1.096,9.623-2.143,13.768-5.046c2.929-0.964,5.946-1.137,8.997-1.018l0.007,0.022c0.58,2.585-1.37,3.497-3.08,4.406
	c-3.053,1.623-6.233,2.894-9.771,3.104c-3.17,0.188-6.048,1.434-8.862,2.823c-0.548,0.094-1.098,0.137-1.653,0.139
	c-3.105-0.074-6.19,0.044-9.201,0.933C325.771,450.028,322.3,451.783,319.501,449.021z"/>
<path fill-rule="evenodd" clip-rule="evenodd" fill="#76ADDB" d="M339.483,447.983c2.648-2.361,6.021-2.526,9.27-2.966
	c4.898-0.664,8.869-3.208,12.742-6.002c4.666-0.673,9.331-1.346,13.997-2.019l0.001,0.021c0.851,2.582-1.074,3.508-2.742,4.573
	c-5.074,3.239-10.745,5.037-16.443,6.775c-0.833,0.115-1.67,0.127-2.509,0.17C349.007,448.805,344.132,451.272,339.483,447.983z"/>
<path fill-rule="evenodd" clip-rule="evenodd" fill="#68A5D7" d="M393.495,434.019c-2.396,4.268-7.594,5.72-10.016,9.961
	c-0.148,0.224-0.297,0.447-0.445,0.673c-2.734,1.068-5.494,2.036-8.479,2.108c-1.008-0.3-2.104-0.387-2.936-1.143
	c-1.244-2.35,0.224-3.508,1.955-4.672c2.834-1.904,6.171-2.881,8.919-4.927c1.997-0.342,3.995-0.684,5.991-1.025
	C390.155,434.669,391.825,434.344,393.495,434.019z"/>
<path fill-rule="evenodd" clip-rule="evenodd" fill="#6FA9D9" d="M382.494,436.02c-1.72,2.655-3.923,4.642-7.044,5.592
	c-1.742,0.53-3.086,1.742-3.958,3.396c-0.833,1.925-2.485,2.54-4.364,2.432c-2.33-0.135-4.463,0.65-6.678,1.079
	c-1.473-0.121-3.017-0.056-3.963-1.533c4.84-2.077,9.687-4.138,14.515-6.24c1.843-0.803,3.529-1.839,4.491-3.726
	C377.827,436.686,380.161,436.353,382.494,436.02z"/>
<path fill-rule="evenodd" clip-rule="evenodd" fill="#68A5D7" d="M382.489,366.02c-3.523-4.173-9.009-5.517-12.998-9.017
	c1.34-0.009,2.679-0.018,4.019-0.026c2.997,0.354,5.993,0.707,8.99,1.061c3.063,3.591,8.386,4.917,9.995,9.965
	c-1,0.003-2.002,0.005-3.003,0.008C387.054,367.713,384.624,367.383,382.489,366.02z"/>
<path fill-rule="evenodd" clip-rule="evenodd" fill="#7AAFDC" d="M172.493,439.023c3.307,4.587,8.866,4.228,13.439,5.844
	c5.341,1.888,11.029,2.789,16.567,4.119c-1.544,1.928-3.902,1.465-5.914,2.038c-4.155-0.631-8.228-1.778-12.515-1.656
	c-1.772,0.051-3.499-0.707-4.576-2.361c-4.117-1.65-8.194-3.411-12.367-4.906c-2.174-0.779-3.79-1.928-4.638-4.085
	C165.825,438.352,169.159,438.688,172.493,439.023z"/>
<path fill-rule="evenodd" clip-rule="evenodd" fill="#4792CE" d="M109.492,428.016c0.141,4.675,3.719,7.469,6.006,10.969
	c-2.75,2.66-4.784,0.173-7.004-0.976c-1.335-0.348-2.67-0.695-4.006-1.043c0.285-4.521-3.145-7.797-4-11.936
	c2.003,0.657,4.005,1.313,6.008,1.97C107.495,427.338,108.494,427.677,109.492,428.016z"/>
<path fill-rule="evenodd" clip-rule="evenodd" fill="#457CB9" d="M108.494,438.009c2.334,0.325,4.669,0.65,7.004,0.977
	c1.998,0.353,3.997,0.706,5.995,1.06c2.297,2.033,5.858,2.854,6.348,6.626c-0.15,0.514-0.455,0.906-0.908,1.189
	c-2.672,1.401-4.329-0.947-6.41-1.733c-2.381-0.421-4.762-0.842-7.144-1.264C110.833,443.231,109.715,440.584,108.494,438.009z"/>
<path fill-rule="evenodd" clip-rule="evenodd" fill="#579CC2" d="M420.491,427.999c2.002-5.324,4.004-10.647,6.007-15.972
	c0.327-0.347,0.654-0.693,0.981-1.04c0.7-1.847,1.258-3.884,4.004-3.003c0.202,4.37-1.281,8.335-2.895,12.283
	c-0.744,1.821-1.244,3.723-1.098,5.73c-1.998,0.673-3.996,1.347-5.993,2.021C421.155,428.365,420.819,428.358,420.491,427.999z"/>
<path fill-rule="evenodd" clip-rule="evenodd" fill="#6AB6D7" d="M431.483,407.984c-1.334,1.001-2.669,2.002-4.004,3.004
	c-0.461-6.657,0.69-13.393-0.981-19.99c1.669,1.328,3.337,2.655,5.005,3.983C434.692,399.32,433.933,403.653,431.483,407.984z"/>
<path fill-rule="evenodd" clip-rule="evenodd" fill="#4D95D0" d="M420.491,427.999c0.336,0.007,0.671,0.013,1.007,0.02
	c-0.667,4.382-2.747,7.99-5.996,10.96c-2.004,0.355-4.009,0.711-6.013,1.066c-1.612,0.608-2.968,2.602-5.004,0.931
	c2.645-3.669,6.489-6.46,8.02-10.945C415.167,429.354,417.829,428.676,420.491,427.999z"/>
<path fill-rule="evenodd" clip-rule="evenodd" fill="#4D81BB" d="M403.499,446.98c-1.68,0.366-3.359,0.732-5.039,1.098
	c-2.581,0.14-4.723,2.334-7.491,1.604c-1.838-2.02-0.08-3.281,1.137-4.379c1.559-1.405,3.521-2.293,5.392-3.264
	c2.329-0.354,4.658-0.709,6.988-1.063c1.668-0.312,3.336-0.622,5.004-0.932C407.493,442.357,405.496,444.669,403.499,446.98z"/>
<path fill-rule="evenodd" clip-rule="evenodd" fill="#4E82BC" d="M133.509,448.066c-2.03-0.382-4.06-0.765-6.091-1.148
	c-2.601-1.752-4.303-4.278-5.925-6.873c1.67,0.311,3.34,0.621,5.01,0.931c2.333,0.356,4.665,0.713,6.997,1.07
	c1.921,1.959,6.857,1.835,4.61,6.677C136.413,449.656,134.958,448.884,133.509,448.066z"/>
<path fill-rule="evenodd" clip-rule="evenodd" fill="#5586BD" d="M138.475,448.081c-1.658-2.012-3.316-4.023-4.975-6.035
	c0.666-0.014,1.331-0.026,1.997-0.039c1.867,1.113,3.943,1.019,6,1.035c2.24,0.592,4.028,2.124,6.214,2.913
	c1.783,0.645,3.585,1.907,2.765,4.468c-0.583,0.591-1.305,0.882-2.117,0.979c-2.387-0.238-4.681-1.316-7.156-0.77
	C139.796,450.313,138.402,449.979,138.475,448.081z"/>
<path fill-rule="evenodd" clip-rule="evenodd" fill="#5D8DC2" d="M150.509,449.895c-2.942-2.366-6.47-3.963-9.012-6.854
	c2.334,0.315,4.669,0.63,7.003,0.944c2.666,0.349,5.331,0.697,7.996,1.046c3.947,1.446,8.035,2.462,11.979,3.901
	c1.543,0.563,3.725,0.891,2.924,3.528c-0.844,0.866-1.94,0.963-3.055,1.007c-3.611-0.444-7.183-1.314-10.864-0.963
	C155.106,451.768,152.317,452.141,150.509,449.895z"/>
<path fill-rule="evenodd" clip-rule="evenodd" fill="#5789C0" d="M397.497,442.04c-1.843,2.792-4.415,4.838-7.015,6.855
	c-0.227,0.511-0.581,0.908-1.062,1.192c-2.395,0.388-4.541,1.763-7.03,1.795c-3.085-1.396-6.292,1.673-9.366-0.229
	c-1.781-3.085,1.197-3.688,2.728-4.583c2.378-1.392,5.246-1.794,7.743-3.045l-0.016-0.046c4.002-0.66,8.005-1.319,12.008-1.979
	C396.157,442.014,396.827,442.026,397.497,442.04z"/>
<path fill-rule="evenodd" clip-rule="evenodd" fill="#6894C5" d="M171.501,451.918c-5.475-1.265-10.303-3.938-15.005-6.887
	c2.669,0.317,5.338,0.634,8.007,0.95c3.331,0.347,6.661,0.694,9.991,1.041c7.819,1.912,15.866,2.618,23.701,4.465
	c1.721,0.405,3.798,0.201,3.113,3.003c-3.045,1.796-6.346,0.796-9.546,0.874c-6.221-1.713-12.829-0.168-19.008-2.25
	C172.209,452.849,171.792,452.449,171.501,451.918z"/>
<path fill-rule="evenodd" clip-rule="evenodd" fill="#709BC9" d="M201.499,453.96c-7.177-1.621-14.353-3.246-21.531-4.861
	c-1.925-0.433-3.889-0.75-5.472-2.076c1.667-0.005,3.333-0.011,5-0.016c5.666,0.668,11.332,1.336,16.998,2.005
	c7.665,1.373,15.442,1.809,23.177,2.326c24.731,1.655,49.537,1.823,74.27,0.9c13.162-0.49,26.463-1.029,39.533-3.345
	c1.589-0.751,3.471,0.132,5.017-0.887c0.331-0.005,0.662-0.013,0.993-0.023c5.062,0.667,9.969-1.136,15.001-0.953
	c0.153,2.138-1.534,2.038-2.897,2.536c-8.668,3.161-17.91,3.654-26.779,5.879c-0.576,0.037-1.15,0.055-1.727,0.056
	c-3.864-0.457-7.55,1.079-11.383,1.006c-20.279,1.489-40.596,1.998-60.898,1.396c-15.101-0.448-30.24-0.647-45.283-2.406
	C204.028,455.322,202.48,455.414,201.499,453.96z"/>
<path fill-rule="evenodd" clip-rule="evenodd" fill="#759ECB" d="M334.497,449.017c-4.48,2.723-9.678,2.297-14.518,2.814
	c-26.83,2.871-53.79,2.51-80.707,2.032c-12.402-0.221-24.784-1.879-37.16-3.04c-1.912-0.18-3.982-0.486-5.619-1.812
	c2.002-0.009,4.004-0.017,6.006-0.025c27.687,1.829,55.407,2.401,83.145,1.984c7.956-0.12,15.906-0.641,23.859-0.978
	c3.231-1.354,6.767,0.395,9.997-0.979v0.006c3.332-0.009,6.664-0.019,9.995-0.027C331.167,448.259,332.833,448.228,334.497,449.017z
	"/>
<path fill-rule="evenodd" clip-rule="evenodd" fill="#80B3DD" d="M319.501,449.015c-3.178,1.913-6.67,0.604-9.997,0.979
	C312.68,448.062,316.176,449.412,319.501,449.015z"/>
<path fill-rule="evenodd" clip-rule="evenodd" fill="#76ADDB" d="M334.497,449.017c-1.667-0.008-3.334-0.016-5.001-0.023
	c2.83-1.861,6-0.625,8.994-0.986C337.374,449.191,335.897,448.953,334.497,449.017z"/>
<path fill-rule="evenodd" clip-rule="evenodd" fill="#6B97C6" d="M324.497,454.036c4.875-2.2,10.297-1.607,15.332-3.003
	c4.881-1.353,9.77-2.67,14.655-4.003c0.668-0.016,1.335-0.03,2.003-0.046c1.336,0.007,2.672,0.013,4.008,0.02
	c0.418,2.244-1.309,2.715-2.793,3.411c-3.905,1.831-8.118,2.695-12.216,3.931c-2.034-0.065-3.853,0.979-5.849,1.118
	c-3.578,0.077-7.153,0.064-10.727,0.017C327.308,455.459,325.603,455.627,324.497,454.036z"/>
<path fill-rule="evenodd" clip-rule="evenodd" fill="#608FC3" d="M383.495,444.025c-3.006,3.373-7.453,4.429-11.038,6.869
	c-0.14,0.231-0.28,0.462-0.419,0.694c-3.014,1.13-6.098,1.917-9.346,1.91c-1.076-0.024-2.159,0.008-3.201-0.34
	c-0.495-0.231-0.896-0.576-1.201-1.028c0.449-3.337,3.439-3.891,5.739-4.442c3.499-0.839,6.934-1.938,10.46-2.66
	C377.491,444.694,380.493,444.359,383.495,444.025z"/>
<path fill-rule="evenodd" clip-rule="evenodd" fill="#6694C6" d="M374.489,445.028c-5.334,2.312-10.669,4.623-16.003,6.935
	c-0.896,1.627-2.663,1.743-4.132,2.385c-0.555,0.084-1.111,0.129-1.672,0.138c-2.437-0.32-5.204,0.944-7.189-1.511
	c4.867-2.324,10.627-2.409,15.002-5.971c3.475-1.717,7.488-0.465,10.997-1.997C372.491,445.014,373.49,445.021,374.489,445.028z"/>
<path fill-rule="evenodd" clip-rule="evenodd" fill="#6B97C6" d="M323.538,454.028c-3.544,1.816-7.339,0.638-11.011,0.922
	C316.068,453.096,319.873,454.394,323.538,454.028z"/>
<path fill-rule="evenodd" clip-rule="evenodd" fill="#697C91" d="M359.452,452.09c-1.49,1.306-3.301,0.82-5.012,0.896
	c1.154-1.108,2.645-0.888,4.046-1.022C358.808,452.004,359.13,452.046,359.452,452.09z"/>
<image overflow="visible" width="800" height="600" xlink:href="../../../../astronauts/astronaut_dribbble.png"  transform="matrix(1 0 0 1 1260 105)">
</image>
<g>
	<path fill="#494848" d="M-162.284,310.84l-22.801-51.774l77.832-34.267l22.797,51.77l-37.496,17.347l1.482,5.674l44.399-19.335
		c4.554-2.004,6.624-7.325,4.624-11.87l-20.98-47.648c-2.008-4.561-7.324-6.62-11.881-4.613l-96.746,42.597
		c-4.552,2.004-6.62,7.315-4.613,11.877l20.979,47.648c2.001,4.543,7.32,6.613,11.874,4.605l36.328-15.996l-2.719-6.178
		L-162.284,310.84z M-79.001,265.218c0.512,1.167-0.018,2.518-1.187,3.029c-1.163,0.515-2.521-0.004-3.032-1.172
		c-0.514-1.167,0.016-2.523,1.18-3.036C-80.872,263.525-79.517,264.054-79.001,265.218z M-92.759,236.132l9.727,22.094l-2.416,1.063
		l-9.729-22.093L-92.759,236.132z M-181.956,300.605l-8.861-20.124l6.186-2.724l8.863,20.125L-181.956,300.605z"/>
	
		<rect x="-176.712" y="239.816" transform="matrix(0.9098 -0.415 0.415 0.9098 -123.4564 -31.6631)" fill="#F9FAFB" width="84.267" height="56.802"/>
	<path fill="#E9515A" d="M-102.89,252.386l-32.133,14.151l2.447,5.557l-15.654,0.256l20.346,10.4l13.867,31.498l32.134-14.149
		L-102.89,252.386z M-111.735,308.394l-12.08-27.438l-0.637-1.45l-1.406-0.715l-4.463-2.276l4.52-0.073l-2.706-6.146l-0.658-1.494
		l23.989-10.559l17.432,39.588L-111.735,308.394z"/>
	<g>
		<g>
			
				<rect x="-269.213" y="388.471" transform="matrix(-0.9087 -0.4174 0.4174 -0.9087 -627.2313 719.1874)" fill="#F9A31A" width="68.486" height="79.426"/>
		</g>
		
			<rect x="-305.446" y="204.782" transform="matrix(0.9921 0.1251 -0.1251 0.9921 24.6912 36.4007)" fill="#D76764" width="55.806" height="20.11"/>
		<path fill="#46A1D7" d="M-168.129,303.527c4.759,0,13.604-45.395,24.673-32.275c7.019,8.318-9.793,28.337-6.934,28.337
			c5.76,0,28.438-5.674,28.438-5.674c4.371,6.883,6.896,15.028,6.896,23.755c0,24.717-28.055,44.755-53.073,44.755V303.527z"/>
		<path fill="#D1DE46" d="M-249.342,407.826c-3.369,27.135-30.717,46.076-61.083,42.305l-1.719-0.211
			c-30.366-3.773-52.251-28.826-48.881-55.962l16.907-136.139c3.371-27.135,30.716-46.076,61.082-42.304l1.72,0.213
			c30.366,3.771,52.25,28.824,48.882,55.959L-249.342,407.826z"/>
		<g>
			<g>
				
					<rect x="-368.296" y="428.49" transform="matrix(0.1115 0.9938 -0.9938 0.1115 190.5416 723.2917)" fill="#F9A31A" width="118.178" height="79.421"/>
			</g>
			<path fill="#F9A31A" d="M-275.901,408.896c2.426,21.619-13.329,41.135-35.19,43.588c-21.858,2.451-41.544-13.086-43.967-34.709
				c-2.423-21.617,13.331-41.128,35.185-43.583C-298.011,371.745-278.324,387.281-275.901,408.896z"/>
		</g>
		<g>
			<polygon fill="#FEFEFE" points="118.357,271.757 163.184,202.473 198.549,225.63 149.093,290.413 			"/>
		</g>
		<g>
			<polygon fill="#F9A31A" points="-430.768,522.508 -320.474,480.068 -291.955,554.195 -402.251,596.627 			"/>
		</g>
		<path fill="#47A1D6" d="M-418.099,517.076l28.076,75.912l-47.834,17.678c9.359,22.875-23.917,57.193-23.917,57.193
			l-40.554-115.428L-418.099,517.076z"/>
		<path fill="#47A1D6" d="M-224.062,556.57l80.32-9.965l6.265,50.607c24.413-3.877,50.207,36.367,50.207,36.367l-121.643,13.072
			L-224.062,556.57z"/>
		<g>
			<g>
				<defs>
					<circle id="SVGID_1_" cx="-271.589" cy="160.609" r="59.217"/>
				</defs>
				<clipPath id="SVGID_2_">
					<use xlink:href="#SVGID_1_"  overflow="visible"/>
				</clipPath>
				<circle clip-path="url(#SVGID_2_)" fill="#F9A31A" cx="-271.589" cy="160.609" r="59.217"/>
				<circle clip-path="url(#SVGID_2_)" fill="#46A1D7" cx="-229.995" cy="164.768" r="41.594"/>
			</g>
		</g>
		
			<rect x="-403.541" y="196.122" transform="matrix(0.9925 0.1223 -0.1223 0.9925 30.8383 47.8542)" fill="#F9A31A" width="58.231" height="158.059"/>
		
			<rect x="-403.34" y="353.131" transform="matrix(0.9925 0.1223 -0.1223 0.9925 41.4321 49.7506)" fill="#DADCDA" width="37.471" height="18.588"/>
		<path fill="#DADCDA" d="M-346.705,490.162l83.545,27.232c0,0,8.361,18.844-30.845,40.1L-346.705,490.162z"/>
		<path fill="#DADCDA" d="M-234.967,472.635l46.528-67.773c0,0,21.449-3.174,31.505,39.287L-234.967,472.635z"/>
		<rect x="-286.111" y="303.527" fill="#F9A31A" width="115.784" height="58.898"/>
		<g>
			<g>
				<rect x="-310.774" y="251.236" fill="#F9A31A" width="58.898" height="87.64"/>
			</g>
			<path fill="#F9A31A" d="M-251.876,254.101c0,16.136-13.224,29.214-29.535,29.214c-16.313,0-29.538-13.079-29.538-29.214
				c0-16.132,13.224-29.21,29.538-29.21C-265.1,224.891-251.876,237.969-251.876,254.101z"/>
		</g>
		<path fill="#DADCDA" d="M-251.876,299.589l-24.814,62.546c0,0-17.561,6.939-33.97-25.005L-251.876,299.589z"/>
		<path fill="#46A1D7" d="M-168.011,362.77"/>
	</g>
</g>
</svg>
